<svg width="65" height="41" viewBox="0 0 65 41" fill="none" xmlns="http://www.w3.org/2000/svg">
<path d="M63.9876 4.65332C63.9876 4.09619 63.5279 3.63811 62.9688 3.63811C52.9182 3.63811 47.2903 6.08947 46.6815 6.37423C46.4206 6.49803 46.2218 6.72088 46.1473 7.00564C46.0728 7.25325 46.0976 7.50086 46.2094 7.7361L46.5449 8.42941L45.8243 8.15704C43.9235 7.43896 41.0661 6.3247 38.2086 5.0495C33.7983 3.08098 30.829 3.40288 27.251 6.21328L27.1641 6.27518H16.0947L16.1444 5.92852C16.2065 5.4952 16.2437 5.09902 16.281 4.73998C16.3059 4.43047 16.194 4.13333 15.9704 3.92286C14.2187 2.26386 7.64662 1.33531 2.08085 1.00104C1.78269 0.988655 1.52179 1.0877 1.32301 1.27341C1.11181 1.45912 1 1.73149 1 2.01625V25.787C1 26.3442 1.45967 26.8023 2.01873 26.8023H9.96983C10.4047 26.8023 10.8022 26.5175 10.9389 26.1089C10.9637 26.0223 11.0755 25.688 11.2495 25.1433L11.411 24.648L11.7712 25.0194C11.9949 25.2423 12.2185 25.4899 12.467 25.7375L12.7776 26.0594C13.9454 27.2727 15.1505 28.5355 15.958 29.2041C20.8777 33.3145 26.8038 37.7467 27.9716 38.5143C28.9158 39.1334 30.9408 40 32.5062 40C33.7237 40 34.6679 39.7276 35.3139 39.1953L35.4506 39.0715L35.6245 39.1334C36.4942 39.4676 37.4881 39.4553 38.4074 39.0962C39.5131 38.6629 40.4573 37.7962 41.0039 36.7068L41.1158 36.4963L41.3518 36.5458C42.3457 36.7563 43.4762 36.5953 44.4701 36.0877C45.4392 35.6049 46.1722 34.8373 46.5324 33.9459L46.6194 33.7354L46.843 33.7478C47.8369 33.7973 48.8432 33.4383 49.6632 32.7326C50.7689 31.7916 51.2658 30.405 50.9925 29.0184L50.9552 28.8203L53.5642 27.0746L53.6884 27.4708C53.8375 27.9537 53.9617 28.3622 54.0487 28.6717C54.1729 29.1051 54.5705 29.4146 55.0302 29.4146H62.9813C63.5403 29.4146 64 28.9565 64 28.3994V4.65332H63.9876ZM9.29895 24.549L9.22441 24.7595H3.02504V3.09336L3.36048 3.11812C7.34845 3.42764 12.1812 4.14571 13.9951 5.02474L14.1938 5.12378L14.169 5.33425C13.4609 11.1531 10.2556 21.5157 9.29895 24.549ZM48.3339 31.2098C47.7251 31.7297 46.9051 31.8907 46.3958 31.5936L46.3585 31.5688C45.3025 30.7269 40.7803 26.0966 38.5317 23.7566C38.3453 23.5585 38.0968 23.4471 37.8235 23.4471C37.5626 23.4471 37.3017 23.5462 37.1029 23.7319C36.9042 23.9176 36.7923 24.1652 36.7923 24.4376C36.7923 24.7099 36.8917 24.9699 37.0781 25.1556C38.0099 26.1213 42.7184 30.9993 44.6192 32.7326L44.7559 32.8564L44.7062 33.0421C44.5198 33.723 43.9111 34.1192 43.5632 34.2925C42.5942 34.7754 41.5754 34.6763 41.153 34.2925C41.1282 34.2678 41.1033 34.2554 41.0909 34.2306C39.4758 32.943 35.4879 28.7089 34.5809 27.7308C34.2082 27.3222 33.5622 27.2975 33.1398 27.6689C32.941 27.8546 32.8292 28.1022 32.8168 28.3746C32.8044 28.647 32.9038 28.907 33.0777 29.1051L33.1025 29.1298C33.7734 29.8479 37.1899 33.5002 39.1901 35.2706L39.3516 35.4192L39.2771 35.6173C38.9913 36.3353 38.395 36.9296 37.6868 37.202C36.9911 37.462 36.3575 37.3629 35.8482 36.9172L35.8233 36.8925C33.9101 35.283 30.0339 31.1726 29.2761 30.3679C29.0897 30.1698 28.8413 30.0584 28.5679 30.046C28.2946 30.0336 28.0461 30.1326 27.8474 30.3184C27.4374 30.7022 27.4125 31.3459 27.7977 31.7545C28.5804 32.5964 31.3135 35.4935 33.3634 37.4001L33.8355 37.8458L33.1895 37.9324C32.9907 37.9572 32.7671 37.9696 32.5186 37.9696C31.562 37.9696 29.9345 37.3629 29.1021 36.8058C28.158 36.1868 22.294 31.8164 17.2749 27.6318C16.5543 27.0251 15.3244 25.7499 14.2311 24.6109C13.4484 23.8061 12.7154 23.0385 12.2309 22.5928L12.0943 22.4567L12.1564 22.2709C13.3118 18.4701 14.8647 13.0102 15.7344 8.54084L15.7841 8.29322H24.9154L24.3936 8.82559C22.6419 10.5836 20.2566 14.1121 20.8653 16.6501C21.1138 17.6777 21.8468 18.4453 22.9401 18.8044C25.8223 19.7577 28.394 18.8787 30.3818 16.254L30.4563 16.1549L30.5806 16.1302C31.3881 16.0064 31.8353 15.8206 32.4938 15.5235C32.7174 15.4245 33.028 15.2883 33.438 15.1273L33.6243 15.053L33.7734 15.1892C35.3015 16.6254 37.426 18.3215 39.4758 19.9805C43.4017 23.15 47.8493 26.728 48.8681 28.8451C49.4023 30.1079 48.6817 30.925 48.3339 31.2098ZM50.0483 27.0127L49.8744 26.7775C48.073 24.3757 44.321 21.3548 40.6934 18.433C38.2832 16.4892 36.0097 14.6569 34.5437 13.196C34.2704 12.9236 33.848 12.8245 33.4877 12.9607C32.6429 13.2702 32.1211 13.5055 31.6863 13.6912L31.6241 13.7159C30.9408 14.0255 30.6924 14.1369 29.7482 14.2235C29.45 14.2483 29.1767 14.4093 29.0028 14.6692C26.7665 17.9873 24.3315 17.1825 23.5364 16.9101C23.0022 16.7368 22.8655 16.4521 22.8034 16.2044C22.468 14.8054 24.1203 11.9455 25.8099 10.2494C27.8598 8.20656 29.5991 6.72088 31.4005 6.139C33.1274 5.58187 34.9164 5.80472 37.3763 6.90659C41.8363 8.88749 46.3461 10.5341 47.6257 10.9922L47.7499 11.0417L47.7996 11.1655C49.3899 15.0035 51.5143 20.971 52.8312 24.8833L52.9057 25.1061L50.0483 27.0127ZM61.9625 27.4089H55.788L55.7259 27.1861C54.4587 23.0633 50.7316 12.416 48.7066 8.11989L48.5575 7.81038L48.8805 7.69895C50.9304 7.00564 55.3035 5.82948 61.6395 5.68091L61.9625 5.66853V27.4089Z" fill="#332B68" stroke="#332B68" stroke-width="0.5"/>
</svg>
