<svg width="58" height="58" viewBox="0 0 58 58" fill="none" xmlns="http://www.w3.org/2000/svg">
<path d="M14.9332 9.46757C14.9332 6.37923 12.4216 3.86768 9.3333 3.86768C6.24495 3.86768 3.7334 6.37923 3.7334 9.46757C3.7334 12.5559 6.24495 15.0675 9.3333 15.0675C12.4216 15.0675 14.9332 12.5559 14.9332 9.46757ZM5.60003 9.46757C5.60003 7.40868 7.2744 5.73431 9.3333 5.73431C11.3922 5.73431 13.0666 7.40868 13.0666 9.46757C13.0666 11.5265 11.3922 13.2008 9.3333 13.2008C7.2744 13.2008 5.60003 11.5265 5.60003 9.46757Z" fill="#332B68"/>
<path d="M51.6055 5.07464L50.2856 6.39453L51.6055 7.71443L52.9254 6.39453L51.6055 5.07464Z" fill="#332B68"/>
<path d="M48.9654 7.71428L47.6455 9.03418L48.9654 10.3541L50.2853 9.03418L48.9654 7.71428Z" fill="#332B68"/>
<path d="M46.3255 10.3549L45.0723 11.6082L46.3922 12.928L47.6454 11.6748L46.3255 10.3549Z" fill="#332B68"/>
<path d="M55.0657 39.3337H49.8885C51.4463 36.1539 52.2657 32.6371 52.2657 29.0672C52.2657 24.326 50.8508 19.8096 48.1955 15.9298C48.9002 15.438 49.588 14.9219 50.2572 14.3796L55.999 20.1204L58 18.1194L55.2001 9.71862L55.4987 9.41996C56.4236 8.49691 56.9323 7.26867 56.9323 5.96016C56.9323 3.26287 54.7371 1.06771 52.0389 1.06771C50.7332 1.06771 49.504 1.57637 48.5791 2.49942L48.2786 2.79995L39.8797 0L37.8796 2.00103L43.6213 7.74279C43.0781 8.41105 42.563 9.09983 42.0711 9.80355C38.1904 7.1492 33.674 5.73429 28.9328 5.73429C25.3255 5.73429 21.7705 6.57148 18.5646 8.16185C17.9262 3.6334 14.0352 0.134398 9.33316 0.134398C4.18686 0.134398 0 4.32125 0 9.46756V9.72422C0 11.5722 0.542257 13.3623 1.56797 14.9013L6.57708 22.4145C5.93682 24.5658 5.5999 26.8002 5.5999 29.0672C5.5999 31.9754 6.12722 34.794 7.16134 37.467H6.53321C4.98951 37.467 3.73326 38.7233 3.73326 40.267C3.73326 41.4822 4.51632 42.5088 5.5999 42.8952V44.9336H0V48.0592C0 53.5406 4.45938 58 9.94075 58H20.2716C24.1066 58 27.573 55.7619 29.2137 52.3926C32.0221 52.36 34.7464 51.8392 37.3336 50.8387V55.2001C37.3336 56.7438 38.5898 58 40.1335 58H55.0666C56.6103 58 57.8665 56.7438 57.8665 55.2001V42.1336C57.8656 40.5899 56.6094 39.3337 55.0657 39.3337ZM44.7992 41.2003H50.3991V43.0669H44.7992V41.2003ZM40.1326 39.3337H37.3457C37.8861 36.5113 38.2062 33.3567 38.2566 30.0005H50.3683C50.2264 33.2737 49.3388 36.4703 47.7765 39.3337H40.1326ZM29.8372 50.3449L29.8661 48.6668H25.7763L22.8 42.7132C23.3992 42.3856 23.8621 41.8508 24.0945 41.2003H35.0246C33.7627 46.2271 31.7981 49.5498 29.8372 50.3449ZM24.0945 39.3337C23.779 38.4489 23.037 37.7694 22.1112 37.5492C21.7341 35.1496 21.5251 32.6185 21.4849 30.0005H36.39C36.3368 33.451 35.9905 36.5963 35.4436 39.3337H24.0945ZM7.502 28.1339C7.56079 26.76 7.73626 25.4002 8.05265 24.0721C8.43998 24.284 8.8777 24.4006 9.33316 24.4006C10.2301 24.4006 11.0626 23.9545 11.561 23.2088L14.4991 18.8007H20.5199C19.9795 21.6231 19.6594 24.7777 19.609 28.1339H7.502ZM22.4276 18.8007H35.4501C36.0157 21.6548 36.3312 24.8318 36.3825 28.1339H21.484C21.5381 24.6843 21.8797 21.5363 22.4276 18.8007ZM28.9328 7.60093C30.5913 7.60093 32.2974 9.47876 33.6666 12.7472L32.9573 13.4566L34.1743 14.0651C34.4916 14.9657 34.78 15.9205 35.033 16.9341H22.8466C24.3054 11.1373 26.6984 7.60093 28.9328 7.60093ZM39.2739 14.528L36.1081 12.9451L36.6859 12.3683L39.9655 13.1878C39.7247 13.6283 39.497 14.0763 39.2739 14.528ZM38.49 16.2229C38.4825 16.2397 38.4741 16.2565 38.4666 16.2733C38.3752 16.4852 38.3266 16.7082 38.2977 16.9341H36.9481C36.81 16.3489 36.6597 15.7824 36.5011 15.2289L38.49 16.2229ZM50.3627 28.1339H38.2492C38.1997 24.8505 37.8926 21.6819 37.3457 18.8007H38.8241C39.2795 19.3654 39.9674 19.734 40.7477 19.734C41.0836 19.734 41.4122 19.6668 41.7258 19.5334C41.7435 19.5259 41.7594 19.5175 41.7771 19.51L44.5434 25.0427L47.699 21.8863L46.4913 17.0545C46.5417 17.0237 46.5902 16.9901 46.6406 16.9584C48.917 20.2782 50.1909 24.1048 50.3627 28.1339ZM44.8122 18.0345L45.6317 21.3141L45.054 21.8909L43.4711 18.7251C43.9237 18.503 44.3717 18.2753 44.8122 18.0345ZM55.7302 17.2122L51.6814 13.1635C52.1509 12.7407 52.612 12.3076 53.06 11.8587L53.7235 11.1951L55.7302 17.2122ZM52.0389 2.93435C53.7077 2.93435 55.0657 4.29139 55.0657 5.96016C55.0657 6.76934 54.7511 7.52906 54.179 8.10025L51.7402 10.539C48.6388 13.6404 45.0213 16.0894 40.9922 17.817C40.5974 17.9831 40.1326 17.6751 40.1326 17.2523C40.1326 17.1684 40.1494 17.0862 40.1821 17.0088C41.9106 12.9778 44.3587 9.36116 47.4601 6.25882L49.8979 3.82006V3.821C50.4709 3.24887 51.2316 2.93435 52.0389 2.93435ZM40.7887 2.26982L46.8049 4.27552L46.1413 4.94004C45.6924 5.38897 45.2593 5.85003 44.8365 6.31855L40.7887 2.26982ZM40.9446 11.5087L36.1137 10.3001L35.089 11.3249C34.4758 9.99302 33.7972 8.8805 33.0665 8.01159C35.9187 8.56504 38.615 9.69436 41.0416 11.3585C41.009 11.4098 40.9754 11.4583 40.9446 11.5087ZM18.6281 10.2431C20.5778 9.1745 22.6796 8.41385 24.8589 7.99385C23.2125 9.94448 21.8471 13.0571 20.9203 16.9341H15.7432L17.0984 14.9013C18.027 13.5079 18.5357 11.9054 18.6281 10.2431ZM1.86663 9.72422V9.46756C1.86663 5.3507 5.2163 2.00103 9.33316 2.00103C13.45 2.00103 16.7997 5.3507 16.7997 9.46756V9.72422C16.7997 11.2035 16.3657 12.6352 15.5453 13.8663L10.007 22.1728C9.70555 22.6245 8.95984 22.6245 8.65837 22.1728L3.12008 13.8663C2.30062 12.6362 1.86663 11.2035 1.86663 9.72422ZM7.4908 30.0005H19.6183C19.6575 32.5821 19.8563 35.0834 20.2128 37.467H9.1801C8.16932 35.0946 7.60093 32.5905 7.4908 30.0005ZM6.53321 39.3337H21.4663C21.9805 39.3337 22.3996 39.7518 22.3996 40.267C22.3996 40.7822 21.9805 41.2003 21.4663 41.2003H6.53321C6.01896 41.2003 5.5999 40.7822 5.5999 40.267C5.5999 39.7518 6.01896 39.3337 6.53321 39.3337ZM7.46653 43.0669H20.8895L23.6894 48.6668H10.8433L8.97663 44.9336H7.46653V43.0669ZM20.2716 56.1334H9.94075C5.48883 56.1334 1.86663 52.5112 1.86663 48.0592V46.8002H7.82306L9.68969 50.5335H27.9575C26.8907 53.8439 23.7678 56.1334 20.2716 56.1334ZM33.0058 50.1415C34.6522 48.1908 36.0185 45.0773 36.9453 41.2003H37.5044C37.3998 41.4934 37.3326 41.8051 37.3326 42.1336V48.819C35.9327 49.4163 34.4879 49.8578 33.0058 50.1415ZM55.999 55.2001C55.999 55.7152 55.5799 56.1334 55.0657 56.1334H40.1326C39.6183 56.1334 39.1993 55.7152 39.1993 55.2001V42.1336C39.1993 41.6184 39.6183 41.2003 40.1326 41.2003H42.9325V44.9336H52.2657V41.2003H55.0657C55.5799 41.2003 55.999 41.6184 55.999 42.1336V55.2001Z" fill="#332B68"/>
<path d="M54.1323 52.4001H52.2656V54.2668H54.1323V52.4001Z" fill="#332B68"/>
<path d="M50.3989 52.4001H48.5322V54.2668H50.3989V52.4001Z" fill="#332B68"/>
<path d="M16.7997 44.9336H14.9331V46.8002H16.7997V44.9336Z" fill="#332B68"/>
<path d="M20.5331 44.9336H18.6665V46.8002H20.5331V44.9336Z" fill="#332B68"/>
<path d="M13.0663 44.9336H11.1997V46.8002H13.0663V44.9336Z" fill="#332B68"/>
<path d="M26.1327 31.8672H24.2661V33.7338H26.1327V31.8672Z" fill="#332B68"/>
<path d="M33.5995 31.8672H31.7329V33.7338H33.5995V31.8672Z" fill="#332B68"/>
<path d="M29.8661 31.8672H27.9995V33.7338H29.8661V31.8672Z" fill="#332B68"/>
<path d="M33.5995 24.4006H31.7329V26.2673H33.5995V24.4006Z" fill="#332B68"/>
<path d="M29.8661 24.4006H27.9995V26.2673H29.8661V24.4006Z" fill="#332B68"/>
<path d="M26.1327 24.4006H24.2661V26.2673H26.1327V24.4006Z" fill="#332B68"/>
</svg>
