<svg width="60" height="60" viewBox="0 0 60 60" fill="none" xmlns="http://www.w3.org/2000/svg">
<path d="M30.1138 9V23" stroke="#332B68" stroke-width="2" stroke-linecap="round" stroke-linejoin="round"/>
<path d="M16 36V50" stroke="#332B68" stroke-width="2" stroke-linecap="round" stroke-linejoin="round"/>
<path d="M45 36V50" stroke="#332B68" stroke-width="2" stroke-linecap="round" stroke-linejoin="round"/>
<path d="M37.1138 16L30.1138 23L23.1138 16" stroke="#332B68" stroke-width="2" stroke-linecap="round" stroke-linejoin="round"/>
<path d="M23 43L16 50L9 43" stroke="#332B68" stroke-width="2" stroke-linecap="round" stroke-linejoin="round"/>
<path d="M52 43L45 50L38 43" stroke="#332B68" stroke-width="2" stroke-linecap="round" stroke-linejoin="round"/>
<path fill-rule="evenodd" clip-rule="evenodd" d="M14.9878 5.22329C14.9878 2.89083 16.8877 1 19.2314 1H40.7326C43.0763 1 44.9762 2.89083 44.9762 5.22329V26.6213C44.9762 28.9537 43.0763 30.8446 40.7326 30.8446H19.2314C16.8877 30.8446 14.9878 28.9537 14.9878 26.6213V5.22329ZM19.2314 2.68931C17.8252 2.68931 16.6853 3.82381 16.6853 5.22329V26.6213C16.6853 28.0208 17.8252 29.1552 19.2314 29.1552H40.7326C42.1388 29.1552 43.2787 28.0208 43.2787 26.6213V5.22329C43.2787 3.82381 42.1388 2.68931 40.7326 2.68931H19.2314Z" fill="#332B68" stroke="#332B68" stroke-width="0.8"/>
<path fill-rule="evenodd" clip-rule="evenodd" d="M29.2915 33.3788C29.2915 31.0463 31.1914 29.1555 33.5351 29.1555H55.0363C57.38 29.1555 59.2799 31.0463 59.2799 33.3788V54.7768C59.2799 57.1092 57.38 59.0001 55.0363 59.0001H33.5351C31.1914 59.0001 29.2915 57.1092 29.2915 54.7768V33.3788ZM33.5351 30.8448C32.1289 30.8448 30.989 31.9793 30.989 33.3788V54.7768C30.989 56.1763 32.1289 57.3108 33.5351 57.3108H55.0363C56.4425 57.3108 57.5825 56.1763 57.5825 54.7768V33.3788C57.5825 31.9793 56.4425 30.8448 55.0363 30.8448H33.5351Z" fill="#332B68" stroke="#332B68" stroke-width="0.8"/>
<path fill-rule="evenodd" clip-rule="evenodd" d="M1 33.3783C1 31.0459 2.89994 29.155 5.24364 29.155H26.7448C29.0885 29.155 30.9884 31.0459 30.9884 33.3783V54.7763C30.9884 57.1088 29.0885 58.9996 26.7448 58.9996H5.24364C2.89994 58.9996 1 57.1088 1 54.7763V33.3783ZM5.24364 30.8443C3.83742 30.8443 2.69746 31.9788 2.69746 33.3783V54.7763C2.69746 56.1758 3.83742 57.3103 5.24364 57.3103H26.7448C28.151 57.3103 29.291 56.1758 29.291 54.7763V33.3783C29.291 31.9788 28.151 30.8443 26.7448 30.8443H5.24364Z" fill="#332B68" stroke="#332B68" stroke-width="0.8"/>
</svg>
