<svg width="60" height="60" viewBox="0 0 60 60" fill="none" xmlns="http://www.w3.org/2000/svg">
<path d="M58.2871 57.5532H57.864V12.9365C57.864 12.6753 57.7235 12.4345 57.4966 12.3057C57.2689 12.1775 56.991 12.1803 56.7666 12.3145L40.1186 22.2828V13.6807C40.1186 13.4254 39.9844 13.1893 39.7656 13.0583C39.5468 12.928 39.276 12.9213 39.0501 13.042L18.8598 23.8946V20.9024C18.8598 20.502 18.5351 20.1774 18.1347 20.1774H16.948V16.8726C16.948 16.4722 16.6234 16.1475 16.223 16.1475H8.37958C7.97918 16.1475 7.65454 16.4722 7.65454 16.8726V20.1774H6.46785C6.06744 20.1774 5.7428 20.502 5.7428 20.9024V26.057C5.7428 26.4574 6.06744 26.7821 6.46785 26.7821H7.60064L5.3147 57.5532H1.73383C1.33343 57.5532 1.00879 57.8778 1.00879 58.2782C1.00879 58.6786 1.33343 59.0033 1.73383 59.0033H58.2871C58.6875 59.0033 59.0121 58.6786 59.0121 58.2782C59.0121 57.8778 58.6875 57.5532 58.2871 57.5532ZM38.6685 14.8936V23.5619C38.6685 23.8231 38.809 24.0639 39.036 24.1927C39.2633 24.3209 39.5415 24.3181 39.766 24.1839L56.414 14.2156V57.5532H38.3619V48.5238C38.3619 48.1234 38.0373 47.7987 37.6369 47.7987H24.658C24.2576 47.7987 23.9329 48.1234 23.9329 48.5238V57.5532H19.2911L17.0051 26.7821H18.1347C18.5351 26.7821 18.8598 26.4574 18.8598 26.057V25.541L38.6685 14.8936ZM31.8726 49.2488H36.9118V57.5532H31.8726V49.2488ZM30.4226 57.5532H25.383V49.2488H30.4226V57.5532ZM9.10462 17.5976H15.4979V20.1774H9.10462V17.5976ZM7.19289 21.6275H17.4097V25.332H7.19289V21.6275ZM9.05448 26.7821H15.5513L17.8372 57.5532H6.76854L9.05448 26.7821Z" fill="#332B68" stroke="#332B68"/>
<path d="M10.7858 4.23153H16.5571C17.9392 4.23153 19.0636 3.10715 19.0636 1.72504C19.0636 1.32464 18.7389 1 18.3385 1C17.9381 1 17.6135 1.32464 17.6135 1.72504C17.6135 2.30741 17.1395 2.78145 16.5571 2.78145H10.7858C9.40368 2.78145 8.2793 3.90619 8.2793 5.2883C8.2793 6.67041 9.40368 7.79479 10.7858 7.79479H21.5676C22.1252 7.79479 22.579 8.24865 22.579 8.80624C22.579 9.36383 22.1252 9.81733 21.5676 9.81733H16.983C15.3233 9.81733 13.9731 11.1676 13.9731 12.8276V13.1119C13.9731 13.5123 14.2977 13.8369 14.6981 13.8369C15.0985 13.8369 15.4232 13.5123 15.4232 13.1119V12.8276C15.4232 11.9673 16.1231 11.2674 16.983 11.2674H21.5676C22.9249 11.2674 24.0291 10.1632 24.0291 8.80624C24.0291 7.44891 22.9249 6.34471 21.5676 6.34471H10.7858C10.2034 6.34471 9.72938 5.87067 9.72938 5.2883C9.72938 4.70557 10.2034 4.23153 10.7858 4.23153Z" fill="#332B68" stroke="#332B68"/>
<path d="M3.46153 7.79481C3.86193 7.79481 4.18657 7.47017 4.18657 7.06977C4.18657 6.66937 3.86193 6.34473 3.46153 6.34473C2.1042 6.34473 1 7.44893 1 8.80626C1 10.1632 2.1042 11.2674 3.46153 11.2674H8.04615C8.90643 11.2674 9.60633 11.9673 9.60633 12.8276V13.1119C9.60633 13.5123 9.93097 13.8369 10.3314 13.8369C10.7318 13.8369 11.0564 13.5123 11.0564 13.1119V12.8276C11.0564 11.1676 9.70617 9.81735 8.04615 9.81735H3.46153C2.90394 9.81735 2.45008 9.36385 2.45008 8.80626C2.45008 8.24867 2.90394 7.79481 3.46153 7.79481Z" fill="#332B68" stroke="#332B68"/>
<path d="M44.1264 44.1998C44.5268 44.1998 44.8515 43.8752 44.8515 43.4748V40.1091C44.8515 39.7087 44.5268 39.384 44.1264 39.384C43.726 39.384 43.4014 39.7087 43.4014 40.1091V43.4748C43.4014 43.8752 43.726 44.1998 44.1264 44.1998Z" fill="#332B68" stroke="#332B68"/>
<path d="M44.1264 52.6146C44.5268 52.6146 44.8515 52.29 44.8515 51.8896V48.5239C44.8515 48.1235 44.5268 47.7988 44.1264 47.7988C43.726 47.7988 43.4014 48.1235 43.4014 48.5239V51.8896C43.4014 52.29 43.726 52.6146 44.1264 52.6146Z" fill="#332B68" stroke="#332B68"/>
<path d="M50.6157 44.1998C51.0161 44.1998 51.3407 43.8752 51.3407 43.4748V40.1091C51.3407 39.7087 51.0161 39.384 50.6157 39.384C50.2153 39.384 49.8906 39.7087 49.8906 40.1091V43.4748C49.8906 43.8752 50.2153 44.1998 50.6157 44.1998Z" fill="#332B68" stroke="#332B68"/>
<path d="M50.6157 52.6146C51.0161 52.6146 51.3407 52.29 51.3407 51.8896V48.5239C51.3407 48.1235 51.0161 47.7988 50.6157 47.7988C50.2153 47.7988 49.8906 48.1235 49.8906 48.5239V51.8896C49.8906 52.29 50.2153 52.6146 50.6157 52.6146Z" fill="#332B68" stroke="#332B68"/>
<path d="M24.6581 35.9944C25.0585 35.9944 25.3832 35.6697 25.3832 35.2693V31.9033C25.3832 31.5029 25.0585 31.1782 24.6581 31.1782C24.2577 31.1782 23.9331 31.5029 23.9331 31.9033V35.2693C23.9331 35.6697 24.2577 35.9944 24.6581 35.9944Z" fill="#332B68" stroke="#332B68"/>
<path d="M31.1479 35.9944C31.5483 35.9944 31.8729 35.6697 31.8729 35.2693V31.9033C31.8729 31.5029 31.5483 31.1782 31.1479 31.1782C30.7475 31.1782 30.4229 31.5029 30.4229 31.9033V35.2693C30.4229 35.6697 30.7475 35.9944 31.1479 35.9944Z" fill="#332B68" stroke="#332B68"/>
<path d="M37.6372 35.9944C38.0376 35.9944 38.3622 35.6697 38.3622 35.2693V31.9033C38.3622 31.5029 38.0376 31.1782 37.6372 31.1782C37.2367 31.1782 36.9121 31.5029 36.9121 31.9033V35.2693C36.9121 35.6697 37.2367 35.9944 37.6372 35.9944Z" fill="#332B68" stroke="#332B68"/>
<path d="M24.6581 44.1998C25.0585 44.1998 25.3832 43.8752 25.3832 43.4748V40.1091C25.3832 39.7087 25.0585 39.384 24.6581 39.384C24.2577 39.384 23.9331 39.7087 23.9331 40.1091V43.4748C23.9331 43.8752 24.2577 44.1998 24.6581 44.1998Z" fill="#332B68" stroke="#332B68"/>
<path d="M31.1479 44.1998C31.5483 44.1998 31.8729 43.8752 31.8729 43.4748V40.1091C31.8729 39.7087 31.5483 39.384 31.1479 39.384C30.7475 39.384 30.4229 39.7087 30.4229 40.1091V43.4748C30.4229 43.8752 30.7475 44.1998 31.1479 44.1998Z" fill="#332B68" stroke="#332B68"/>
<path d="M37.6372 44.1998C38.0376 44.1998 38.3622 43.8752 38.3622 43.4748V40.1091C38.3622 39.7087 38.0376 39.384 37.6372 39.384C37.2367 39.384 36.9121 39.7087 36.9121 40.1091V43.4748C36.9121 43.8752 37.2367 44.1998 37.6372 44.1998Z" fill="#332B68" stroke="#332B68"/>
<path d="M44.1264 35.9944C44.5268 35.9944 44.8515 35.6697 44.8515 35.2693V31.9033C44.8515 31.5029 44.5268 31.1782 44.1264 31.1782C43.726 31.1782 43.4014 31.5029 43.4014 31.9033V35.2693C43.4014 35.6697 43.726 35.9944 44.1264 35.9944Z" fill="#332B68" stroke="#332B68"/>
<path d="M50.6157 35.9944C51.0161 35.9944 51.3407 35.6697 51.3407 35.2693V31.9033C51.3407 31.5029 51.0161 31.1782 50.6157 31.1782C50.2153 31.1782 49.8906 31.5029 49.8906 31.9033V35.2693C49.8906 35.6697 50.2153 35.9944 50.6157 35.9944Z" fill="#332B68" stroke="#332B68"/>
</svg>
