<svg width="60" height="59" viewBox="0 0 60 59" fill="none" xmlns="http://www.w3.org/2000/svg">
<path d="M14.239 8.43018H10.4563C9.41183 8.43018 8.56494 9.26183 8.56494 10.2877V17.7179V21.4329C8.56494 22.4587 9.41172 23.2905 10.4563 23.2905C11.5008 23.2905 12.3476 22.4588 12.3476 21.4329V19.5754H14.239C17.3676 19.5754 19.9129 17.0755 19.9129 14.0028C19.9129 10.93 17.3676 8.43018 14.239 8.43018ZM14.239 15.8602H12.3476V12.1452H14.239C15.2818 12.1452 16.1303 12.9785 16.1303 14.0028C16.1303 15.027 15.2818 15.8602 14.239 15.8602Z" fill="#332B68" stroke="white"/>
<path d="M55.2173 50.2146C57.4186 49.4478 58.9999 47.3831 58.9999 44.9614V41.2464C58.9999 38.6564 57.1915 36.4735 54.7495 35.8515L52.1997 28.3389C51.4263 26.0599 49.2629 24.5287 46.817 24.5287H32.0959C29.6499 24.5287 27.4867 26.0599 26.7131 28.339L24.1634 35.8515C21.7215 36.4735 19.9129 38.6563 19.9129 41.2464V44.9614C19.9129 47.3831 21.4942 49.4477 23.6955 50.2145V52.3915C23.6955 53.0426 23.8108 53.6676 24.0209 54.249H16.1304V30.5872C22.5378 29.6831 27.4782 24.2567 27.4782 17.7178V14.0027C27.4782 6.83304 21.5391 1 14.2392 1C6.93921 1 1 6.83304 1 14.0027V17.7178C1 24.2567 5.94041 29.6831 12.3478 30.5872V54.2492H2.89134C1.84678 54.2492 1 55.0808 1 56.1066C1 57.1324 1.84678 57.9642 2.89134 57.9642H57.1087C58.1531 57.9642 59 57.1325 59 56.1066C59 55.0807 58.1532 54.249 57.1087 54.249H54.8921C55.102 53.6676 55.2174 53.0427 55.2174 52.3915V50.2146H55.2173ZM4.78257 17.7178V14.0027C4.78257 8.88153 9.02472 4.71513 14.239 4.71513C19.4534 4.71513 23.6955 8.88153 23.6955 14.0027V17.7178C23.6955 22.839 19.4534 27.0054 14.239 27.0054C9.02472 27.0054 4.78257 22.839 4.78257 17.7178ZM30.3017 29.5139C30.5596 28.7541 31.2807 28.2437 32.096 28.2437H46.8171C47.6325 28.2437 48.3536 28.7541 48.6113 29.5139L50.7019 35.6738C49.4419 35.6738 29.5577 35.6738 28.211 35.6738L30.3017 29.5139ZM23.6956 44.9614V41.2464C23.6956 40.2222 24.5441 39.3888 25.587 39.3888H28.0063L30.5281 46.819H25.587C24.5441 46.819 23.6956 45.9857 23.6956 44.9614ZM31.2608 52.3916C31.2608 53.4158 30.4123 54.2492 29.3694 54.2492C28.3266 54.2492 27.4781 53.4158 27.4781 52.3916V50.534H31.2606V52.3916H31.2608ZM34.7181 54.2492C34.928 53.6677 35.0434 53.0428 35.0434 52.3916V50.534H43.8695V52.3916C43.8695 53.0427 43.9848 53.6677 44.1949 54.2492H34.7181ZM44.3975 46.819H34.5152L31.9935 39.3888H46.9193L44.3975 46.819ZM51.4346 52.3916C51.4346 53.4158 50.5862 54.2492 49.5433 54.2492C48.5004 54.2492 47.652 53.4158 47.652 52.3916V50.534H51.4345V52.3916H51.4346ZM53.326 46.819H48.3849L50.9066 39.3888H53.326C54.3688 39.3888 55.2173 40.2222 55.2173 41.2464V44.9614C55.2173 45.9857 54.3688 46.819 53.326 46.819Z" fill="#332B68" stroke="white"/>
</svg>
