<svg width="28" height="28" viewBox="0 0 28 28" fill="none" xmlns="http://www.w3.org/2000/svg">
<g clip-path="url(#clip0)">
<path d="M8.09395 20.744C6.87065 20.6815 6.89369 18.9609 8.09389 18.9011C11.4937 18.913 20.461 18.9043 23.9689 18.9068C24.9284 18.9068 25.7492 18.2539 25.965 17.3191L27.9569 8.6935C28.071 8.19963 27.9559 7.68846 27.6412 7.29117C27.3264 6.89387 26.8553 6.6628 26.3484 6.6628C24.9372 6.6628 12.9584 6.60858 6.82288 6.58412L5.8503 2.9754C5.61682 2.11301 4.82983 1.51074 3.93642 1.51074H0.820749C0.367476 1.51074 0 1.87822 0 2.33149C0 2.78476 0.367476 3.15224 0.820749 3.15224H3.93642C4.09023 3.15224 4.22565 3.25593 4.26565 3.4035L8.00088 17.2619C7.34411 17.2858 6.73238 17.5529 6.26849 18.0235C5.78108 18.5182 5.51932 19.1729 5.53141 19.8672C5.55559 21.2558 6.70513 22.3854 8.09395 22.3854H9.29071C9.11283 22.7588 9.01297 23.1763 9.01297 23.6166C9.01297 25.2007 10.3017 26.4894 11.8857 26.4894C13.4697 26.4894 14.7584 25.2007 14.7584 23.6166C14.7584 23.1762 14.6585 22.7588 14.4806 22.3854H19.6632C19.4854 22.7587 19.3856 23.1759 19.3856 23.6162C19.3856 25.2002 20.6743 26.4889 22.2583 26.4889C23.8424 26.4889 25.1311 25.2002 25.1311 23.6162C25.1311 23.1588 25.0231 22.7263 24.8321 22.3421C25.1569 22.2327 25.3911 21.9264 25.3911 21.5648C25.3911 21.1115 25.0236 20.744 24.5704 20.744H8.09395ZM13.1169 23.6167C13.1169 24.2956 12.5646 24.8479 11.8856 24.8479C11.2067 24.8479 10.6544 24.2956 10.6544 23.6167C10.6544 22.9381 11.2062 22.386 11.8846 22.3855H11.8867C12.5651 22.386 13.1169 22.9381 13.1169 23.6167ZM22.2584 24.8475C21.5795 24.8475 21.0271 24.2951 21.0271 23.6162C21.0271 22.944 21.5687 22.3963 22.2384 22.3855H22.2784C22.9481 22.3963 23.4897 22.944 23.4897 23.6162C23.4897 24.2951 22.9373 24.8475 22.2584 24.8475ZM26.3545 8.31032C26.3593 8.31645 26.3586 8.31934 26.3576 8.32405L25.5183 11.9586H22.6762L23.1602 8.29133L26.3419 8.30413C26.3467 8.30424 26.3496 8.30424 26.3545 8.31032ZM17.8928 17.2652V13.6001H20.8038L20.3201 17.2652H17.8928ZM13.8229 17.2652L13.3352 13.6001H16.2513V17.2652H13.8229ZM10.0445 17.2652H10.042C9.84192 17.2652 9.66568 17.1302 9.61365 16.938L8.714 13.6001H11.6793L12.1669 17.2652H10.0445ZM13.1168 11.9587L12.6232 8.24892L16.2513 8.26353V11.9587H13.1168ZM17.8928 11.9587V8.27015L21.5053 8.28471L21.0205 11.9587H17.8928ZM10.9663 8.24219L11.4608 11.9586H8.27156L7.26587 8.22726L10.9663 8.24219ZM23.9689 17.2652H21.9758L22.4595 13.6001H25.1391L24.3656 16.9497C24.3227 17.1355 24.1596 17.2652 23.9689 17.2652Z" fill="#2B2A29"/>
</g>
<defs>
<clipPath id="clip0">
<rect width="28" height="28" fill="white"/>
</clipPath>
</defs>
</svg>
