<svg width="78" height="59" viewBox="0 0 78 59" fill="none" xmlns="http://www.w3.org/2000/svg">
<rect y="0.5" width="78" height="58" rx="10" fill="#F6F6F6"/>
<path fill-rule="evenodd" clip-rule="evenodd" d="M35.408 35.4722H46.8657C47.2892 35.4722 47.6326 35.8109 47.6326 36.2283C47.6326 36.3074 47.6169 36.3815 47.5942 36.4529C47.6169 36.5244 47.6326 36.599 47.6326 36.6776C47.6326 37.0954 47.2892 37.4342 46.8657 37.4342H35.408C34.9846 37.4342 34.6411 37.0954 34.6411 36.6776C34.6411 36.599 34.6569 36.5244 34.6795 36.4529C34.6569 36.3815 34.6411 36.3074 34.6411 36.2283C34.6411 35.8109 34.9846 35.4722 35.408 35.4722ZM63.2326 40.6604H60.7249C60.7253 40.677 60.7262 40.6937 60.7262 40.7107C60.7262 43.3516 58.5462 45.5 55.8674 45.5C53.1881 45.5 51.0085 43.3516 51.0085 40.7107C51.0085 40.6937 51.0095 40.677 51.0099 40.6604H33.7189C33.7189 40.677 33.7203 40.6937 33.7203 40.7107C33.7203 43.3516 31.5407 45.5 28.8615 45.5C26.1822 45.5 24.0026 43.3516 24.0026 40.7107C24.0026 40.6937 24.0035 40.677 24.0035 40.6604H19.8593C18.9847 40.6604 18.2738 39.9591 18.2738 39.0974V38.6481V37.4337H15.7674C15.3439 37.4337 15 37.095 15 36.6776C15 36.5985 15.0157 36.5244 15.0384 36.4529C15.0157 36.3815 15 36.3069 15 36.2283C15 35.8105 15.3439 35.4717 15.7674 35.4717H23.1326C23.5565 35.4717 23.9 35.8105 23.9 36.2283C23.9 36.3069 23.8843 36.3815 23.8616 36.4529C23.8843 36.5244 23.9 36.5985 23.9 36.6776C23.9 37.095 23.5565 37.4337 23.1326 37.4337H19.808V38.6481C19.808 38.676 19.8311 38.6984 19.8593 38.6984H24.2693C24.928 36.8227 26.7369 35.4717 28.8615 35.4717C30.9851 35.4717 32.7944 36.8227 33.4531 38.6984H49.3712V33.4509V33.0021C49.3712 32.5842 49.7151 32.2455 50.1385 32.2455C50.5624 32.2455 50.9059 32.5842 50.9059 33.0021V33.4509V38.6989H51.2757C51.9344 36.8231 53.7433 35.4722 55.8674 35.4722C57.9915 35.4722 59.8003 36.8231 60.4591 38.6989H62.4657V35.8208H61.5958C60.27 35.8208 59.192 34.7578 59.192 33.4513V33.0021V31.838V31.3887C59.192 30.9709 59.5359 30.6326 59.9594 30.6326H62.1389C61.709 29.8805 60.8968 29.3683 59.9607 29.3679H59.9584L59.9566 29.3674H50.9059V29.7754V30.2246C50.9059 30.6425 50.5624 30.9812 50.139 30.9812C49.7151 30.9812 49.3717 30.6425 49.3717 30.2246V29.7754V16.5119C49.3717 16.484 49.3485 16.4615 49.3203 16.4615H19.8593C19.8311 16.4615 19.808 16.484 19.808 16.5119V29.7754V30.2246C19.808 30.6425 19.4645 30.9808 19.0407 30.9808C18.6172 30.9808 18.2738 30.6425 18.2738 30.2246V29.7754V16.5119V16.063C18.2738 15.2009 18.9847 14.5 19.8593 14.5H49.3208C50.1949 14.5 50.9064 15.2009 50.9064 16.063V16.5119V17.7267H56.6861C58.4625 17.7267 59.9085 19.1513 59.9085 20.9026V21.3519V21.7091V22.1583C59.9085 22.4827 59.6959 22.7496 59.4046 22.857L60.57 27.4513C62.5097 27.7424 64 29.3971 64 31.3887V31.838V39.4546V39.9038C64 40.3217 63.6565 40.6604 63.2326 40.6604ZM28.8615 37.4337C27.1048 37.4337 25.6663 38.7842 25.5484 40.4861C25.6663 42.1884 27.1048 43.5385 28.8615 43.5385C30.6171 43.5385 32.0562 42.1884 32.1745 40.4861C32.0562 38.7842 30.6171 37.4337 28.8615 37.4337ZM55.8674 37.4337C54.1112 37.4337 52.6722 38.7842 52.5543 40.4861C52.6722 42.1884 54.1112 43.5385 55.8674 43.5385C57.6235 43.5385 59.0626 42.1884 59.1809 40.4861C59.0626 38.7842 57.6235 37.4337 55.8674 37.4337ZM56.6861 19.6882H50.9064V20.9529H58.3192C58.1366 20.2287 57.4765 19.6882 56.6861 19.6882ZM57.7238 22.9145H50.9064V27.4059H58.8629L57.7238 22.9145ZM62.4657 32.5941H60.7267V33.0021C60.7267 33.4747 61.1169 33.8588 61.5962 33.8588H62.4657V32.5941ZM55.8674 42.2738C54.9932 42.2738 54.2818 41.5724 54.2818 40.7107C54.2818 40.6339 54.2943 40.5602 54.3049 40.4861C54.2943 40.412 54.2818 40.3383 54.2818 40.2614C54.2818 39.3997 54.9932 38.6989 55.8674 38.6989C56.742 38.6989 57.4534 39.3997 57.4534 40.2614C57.4534 40.3383 57.4414 40.412 57.4303 40.4861C57.4414 40.5602 57.4534 40.6339 57.4534 40.7107C57.4534 41.5724 56.742 42.2738 55.8674 42.2738ZM28.8615 42.2738C27.9868 42.2738 27.2759 41.5724 27.2759 40.7107C27.2759 40.6339 27.2879 40.5602 27.299 40.4861C27.2879 40.412 27.2759 40.3383 27.2759 40.2614C27.2759 39.3997 27.9868 38.6989 28.8615 38.6989C29.7356 38.6989 30.447 39.3997 30.447 40.2614C30.447 40.3383 30.435 40.412 30.4239 40.4861C30.435 40.5602 30.447 40.6339 30.447 40.7107C30.447 41.5724 29.7356 42.2738 28.8615 42.2738ZM27.9919 33.0021C27.9919 33.0807 27.9762 33.1553 27.9536 33.2267C27.9762 33.2981 27.9919 33.3723 27.9919 33.4513C27.9919 33.8687 27.6485 34.2075 27.2246 34.2075H17.4038C16.9803 34.2075 16.6369 33.8687 16.6369 33.4513C16.6369 33.3723 16.6526 33.2981 16.6752 33.2267C16.6526 33.1553 16.6369 33.0807 16.6369 33.0021C16.6369 32.5842 16.9803 32.2459 17.4038 32.2459H27.2246C27.6485 32.2459 27.9919 32.5842 27.9919 33.0021Z" fill="#2B2B2C"/>
<path d="M30.6627 26.0972C30.5406 25.9777 30.3451 25.9786 30.224 26.0991C30.1008 26.2219 30.1016 26.4217 30.2258 26.5435L32.5458 28.8164C32.9338 29.1965 33.5542 29.1975 33.9433 28.8186L40.7729 22.1684C40.898 22.0466 40.8999 21.846 40.777 21.7219C40.6555 21.599 40.4577 21.5972 40.334 21.7177L33.9428 27.9413C33.5539 28.3201 32.9338 28.3193 32.5458 27.9397L30.6627 26.0972Z" fill="#E31E24" stroke="#E31E24"/>
</svg>
