<svg width="18" height="20" viewBox="0 0 18 20" fill="none" xmlns="http://www.w3.org/2000/svg">
<path d="M1 18V7.48908L9 1.26686L17 7.48908V18C17 18.2652 16.8946 18.5196 16.7071 18.7071C16.5196 18.8946 16.2652 19 16 19H2C1.73478 19 1.48043 18.8946 1.29289 18.7071C1.10536 18.5196 1 18.2652 1 18Z" stroke="#A9A9A9" stroke-width="2" stroke-linecap="round" stroke-linejoin="round"/>
<mask id="path-2-inside-1" fill="white">
<path d="M6 20V10H12V20"/>
</mask>
<path d="M4 20C4 21.1046 4.89543 22 6 22C7.10457 22 8 21.1046 8 20H4ZM6 10V8C4.89543 8 4 8.89543 4 10H6ZM12 10H14C14 8.89543 13.1046 8 12 8V10ZM10 20C10 21.1046 10.8954 22 12 22C13.1046 22 14 21.1046 14 20H10ZM8 20V10H4V20H8ZM6 12H12V8H6V12ZM10 10V20H14V10H10Z" fill="#A9A9A9" mask="url(#path-2-inside-1)"/>
</svg>
