<svg width="24" height="24" viewBox="0 0 24 24" fill="none" xmlns="http://www.w3.org/2000/svg">
<path d="M12.77 21.11L13.5382 21.7502L13.5408 21.7471L12.77 21.11ZM11.24 21.11L10.4709 21.7491L10.4718 21.7502L11.24 21.11ZM12 1C7.57772 1 4 4.57772 4 9H6C6 5.68228 8.68228 3 12 3V1ZM20 9C20 4.57772 16.4223 1 12 1V3C15.3177 3 18 5.68228 18 9H20ZM13.5408 21.7471C14.4606 20.6342 16.0541 18.6047 17.4226 16.3097C18.7667 14.0557 20 11.3746 20 9H18C18 10.7954 17.0233 13.0743 15.7049 15.2853C14.4109 17.4553 12.8894 19.3958 11.9992 20.4729L13.5408 21.7471ZM10.4718 21.7502C11.2716 22.7099 12.7384 22.7099 13.5382 21.7502L12.0018 20.4698C11.9998 20.4722 11.999 20.4727 11.9995 20.4723C12 20.4719 12.0008 20.4714 12.0019 20.4709C12.0038 20.47 12.0049 20.47 12.005 20.47C12.0051 20.47 12.0062 20.47 12.0081 20.4709C12.0092 20.4714 12.01 20.4719 12.0105 20.4723C12.011 20.4727 12.0102 20.4722 12.0082 20.4698L10.4718 21.7502ZM4 9C4 11.3747 5.23333 14.0557 6.57882 16.31C7.94876 18.6052 9.54496 20.6349 10.4709 21.7491L12.0091 20.4709C11.115 19.3951 9.59124 17.4548 8.29618 15.285C6.97667 13.0743 6 10.7953 6 9H4ZM12 10.5C11.1723 10.5 10.5 9.82772 10.5 9H8.5C8.5 10.9323 10.0677 12.5 12 12.5V10.5ZM13.5 9C13.5 9.82772 12.8277 10.5 12 10.5V12.5C13.9323 12.5 15.5 10.9323 15.5 9H13.5ZM12 7.5C12.8277 7.5 13.5 8.17228 13.5 9H15.5C15.5 7.06772 13.9323 5.5 12 5.5V7.5ZM10.5 9C10.5 8.17228 11.1723 7.5 12 7.5V5.5C10.0677 5.5 8.5 7.06772 8.5 9H10.5Z" fill="#E31E24"/>
</svg>
