<svg width="122" height="56" viewBox="0 0 122 56" fill="none" xmlns="http://www.w3.org/2000/svg">
<path d="M104.649 28.1834C105.639 24.4378 105.395 18.6289 97.5982 18.6289C90.948 18.6289 86.1038 23.4069 84.8698 28.2602C83.5395 33.4957 86.0542 37.738 93.9639 37.738C96.2949 37.738 98.5793 37.4701 101.202 36.4769L103.944 31.8524C100.182 33.5725 97.8103 34.0314 96.2814 34.0314C92.3822 34.0314 91.1994 31.3181 92.1505 28.1834H104.647H104.649ZM93.2535 24.8968C93.8043 23.4822 95.1 22.1458 96.7434 22.1458C98.769 22.1458 98.8472 23.7892 98.6049 24.8968H93.255H93.2535Z" fill="#2B2A29"/>
<path d="M110.891 37.3453C110.364 36.7869 110.152 35.8208 110.427 34.966L113.1 26.638C113.851 24.2949 116.083 23.3664 117.868 23.3664C118.649 23.3664 119.22 23.5515 119.582 23.7004L121.168 18.7554H120.239C118.864 18.7554 116.697 18.9044 114.278 21.8043L115.222 18.8667C114.521 19.3122 113.83 19.4988 112.081 19.4988H107.174C107.991 20.4288 107.982 21.729 107.421 23.4777L104.009 34.1113C103.568 35.4867 102.924 36.5657 101.67 37.3453H110.891Z" fill="#2B2A29"/>
<path fill-rule="evenodd" clip-rule="evenodd" d="M78.9212 10.6186C79.3562 11.3319 79.8287 12.4606 79.3998 14.8262L78.4818 19.8992C78.2606 19.6735 77.0808 18.5087 74.4502 18.5087C71.1244 18.5087 68.0093 20.3341 66.0108 23.2356C65.9837 23.3545 65.9551 23.4748 65.9235 23.5982L64.3133 29.9218C64.0258 31.049 64.3614 32.2905 65.7204 32.2905H68.2621L65.8468 35.5004C67.1139 36.6697 68.8912 37.2957 70.9769 37.2957C71.4284 37.2957 71.9235 37.2581 72.387 37.1829L74.9799 33.6509C72.9679 33.7638 70.235 33.0866 71.1455 28.0527C71.5398 25.8736 72.6097 22.4545 75.5398 22.4545C77.0808 22.4545 77.8498 23.3936 77.5367 25.1227L75.4028 36.921H83.4811C82.6082 36.1325 82.5059 35.0429 82.7572 33.6524L87.0582 9.86914C86.5902 10.1701 85.758 10.6201 84.4051 10.6201H78.9197L78.9212 10.6186Z" fill="#2B2A29"/>
<path d="M47.4595 24.092C48.6378 19.636 48.3474 12.7271 39.0728 12.7271C31.1631 12.7271 25.3993 18.4095 23.9321 24.1838C22.3489 30.4125 25.3407 35.4584 34.7507 35.4584C37.5242 35.4584 40.2421 35.1409 43.3602 33.958L46.6228 28.4577C42.1473 30.5028 39.3271 31.0491 37.5077 31.0491C32.8696 31.0491 31.4641 27.8211 32.5927 24.0935H47.4595V24.092ZM33.905 20.1823C34.5596 18.4998 36.1006 16.9091 38.0555 16.9091C40.4648 16.9091 40.5596 18.864 40.2692 20.1823H33.905Z" fill="#E31E24"/>
<path fill-rule="evenodd" clip-rule="evenodd" d="M11.2822 2.11437C11.3755 1.42513 11.3408 0.711813 11.4341 0H33.4717C33.4793 0.437923 33.4537 0.850262 33.4386 1.40557C33.3664 1.97592 33.258 2.26937 32.2468 2.32204H28.5237C27.5214 2.25282 26.9631 2.84575 26.8051 4.04063C23.8841 14.9405 20.4891 25.8405 17.5681 36.7419C17.9714 38.0195 22.6019 38.6636 26.4364 37.6072C29.4522 36.7765 31.9097 34.6787 31.8856 32.459H39.7456C38.6666 35.702 37.8434 39.2746 37.8901 40.4574H0V38.614C0.254326 38.319 0.899924 38.2859 1.88864 38.2708C2.82317 38.2708 4.20466 38.322 4.85778 38.1474C5.73212 37.3213 6.58841 36.4559 7.03686 34.5658C9.83897 24.4981 12.8006 14.5086 15.6027 4.43942C16.003 2.99473 15.7682 2.1851 14.7193 2.20015C13.3183 2.14748 12.6847 2.16704 11.2837 2.11587L11.2822 2.11437Z" fill="#2B2A29"/>
<path d="M48.435 20.9437C51.2657 19.5727 53.4132 19.4403 54.5163 19.4403C57.2733 19.4403 57.6119 20.4576 57.3756 21.3861C56.9256 23.1543 54.9166 23.4643 52.9888 23.818L50.1882 24.3492C44.1506 25.499 42.2831 28.6833 41.7097 30.9376C40.888 34.1656 42.1115 37.4824 47.9023 37.4824C48.6382 37.4824 49.6134 37.4388 50.5103 37.35L53.7292 33.371C53.4418 33.4147 53.1664 33.4147 52.891 33.4147C51.0536 33.4147 50.1055 32.2649 50.5554 30.4967C51.1077 28.3297 53.1032 27.8872 54.7676 27.3124C55.2718 27.1348 55.5351 27.0023 55.9128 26.7811L54.8429 30.9813C54.3703 32.8383 53.8767 37.4809 61.9204 37.4809C62.3794 37.4809 62.7932 37.4809 63.2642 37.4372L66.4591 33.192H65.7232C64.2063 33.192 62.879 31.9098 63.4418 29.6991L65.052 23.3756C65.8617 20.1912 66.262 15.3726 57.5306 15.3726C55.6931 15.3726 54.0498 15.505 51.9851 16.0362L48.4381 20.9437H48.435Z" fill="#332B68"/>
<path d="M120.806 40.4577H40.8667L41.3167 39.0762H121.256L120.806 40.4577Z" fill="#E31E24"/>
<path d="M76.8354 43.3238L76.5766 44.6918H75.5728L75.314 46.0597H76.3177L75.6797 49.3479C75.5578 49.8957 75.5126 50.3035 75.5126 50.7143C75.5126 51.5782 76.0604 52.2629 77.2763 52.2629C77.7022 52.2629 78.1733 52.2027 78.4321 52.1109L78.5991 50.7128C78.417 50.7429 78.2034 50.758 77.9912 50.758C77.5201 50.758 77.338 50.4991 77.338 50.0883C77.338 49.7843 77.3982 49.3885 77.4599 49.0545L78.0529 46.0597H79.7097L79.9836 44.6918H78.3117L78.6759 42.7911L76.8369 43.3238H76.8354ZM81.7308 52.0958L82.2936 49.1162C82.5826 47.5345 83.3877 46.2584 84.6503 46.2584C84.7722 46.2584 84.8941 46.2734 84.9844 46.2885L85.3335 44.5548C85.2116 44.5398 85.0747 44.5247 84.9528 44.5247C83.934 44.5247 83.1289 45.2546 82.6262 46.2584H82.5811C82.6578 45.7106 82.703 45.1944 82.7481 44.6933H81.2131C81.1213 45.363 81.031 46.4871 80.8324 47.536L79.9656 52.0973H81.7293L81.7308 52.0958ZM91.5668 52.0958C91.5367 51.214 91.6586 49.831 91.8708 48.7204L92.6307 44.8588C92.0679 44.6767 91.2011 44.5247 90.396 44.5247C86.9453 44.5247 85.1815 47.2155 85.1815 49.7392C85.1815 51.229 86.0483 52.2629 87.3711 52.2629C88.3132 52.2629 89.2869 51.7919 90.0167 50.4239H90.0619C90.0017 51.062 89.94 51.6549 89.9249 52.0958H91.5668ZM90.259 47.9153C89.9099 49.8009 88.9061 50.8347 88.0845 50.8347C87.3094 50.8347 87.0205 50.1967 87.0205 49.4201C87.0205 47.7332 88.2816 45.8927 89.9234 45.8927C90.2425 45.8927 90.4712 45.9228 90.6533 45.9694L90.2575 47.9153H90.259ZM99.8211 41.3028L99.168 44.7384C98.8489 44.6015 98.408 44.5262 98.0273 44.5262C95.3064 44.5262 93.4057 46.913 93.4057 49.5119C93.4057 51.1839 94.3328 52.2629 95.6556 52.2629C96.6127 52.2629 97.5261 51.7919 98.1943 50.773H98.2244L98.0724 52.0958H99.6992C99.7443 51.2907 99.8662 50.3171 100.033 49.4653L101.583 41.3013H99.8196L99.8211 41.3028ZM98.4682 48.4329C98.1642 49.9679 97.2221 50.8347 96.4306 50.8347C95.5954 50.8347 95.2447 50.135 95.2447 49.2381C95.2447 47.5812 96.3689 45.8927 97.8903 45.8927C98.3312 45.8927 98.6954 46.0296 98.9091 46.1816L98.4682 48.4314V48.4329ZM103.302 52.0973L104.715 44.6933H102.951L101.538 52.0973H103.302ZM104.139 43.6293C104.732 43.6293 105.218 43.2185 105.233 42.5654C105.233 42.0025 104.837 41.6083 104.291 41.6083C103.713 41.6083 103.227 42.0492 103.227 42.6873C103.227 43.2351 103.592 43.6293 104.124 43.6293H104.139ZM107.088 52.0973L107.726 48.6767C108.045 46.9431 109.079 45.9709 109.884 45.9709C110.584 45.9709 110.811 46.4269 110.811 47.0349C110.811 47.3238 110.766 47.6429 110.719 47.9168L109.929 52.0973H111.693L112.515 47.7949C112.592 47.4141 112.652 46.898 112.652 46.5639C112.652 45.1658 111.815 44.5262 110.766 44.5262C109.732 44.5262 108.79 45.0274 108.105 46.0311H108.075L108.227 44.6933H106.662C106.571 45.3314 106.465 46.1064 106.282 46.9882L105.324 52.0958H107.088V52.0973ZM113.549 54.773C114.035 55.077 114.917 55.2742 115.86 55.2742C116.787 55.2742 117.836 55.0921 118.611 54.454C119.433 53.7542 119.859 52.6 120.131 51.1553L121.257 45.0484C120.572 44.7414 119.645 44.5262 118.688 44.5262C115.618 44.5262 113.839 46.9988 113.839 49.4563C113.854 50.8498 114.691 52.0657 116.166 52.0657C117.108 52.0657 117.883 51.6399 118.491 50.758H118.521L118.339 51.5932C117.975 53.3118 117.093 53.8581 115.937 53.8581C115.237 53.8581 114.417 53.676 113.976 53.4171L113.55 54.77L113.549 54.773ZM118.915 48.3035C118.656 49.6384 117.776 50.6827 116.894 50.6827C116.012 50.6827 115.693 49.9559 115.708 49.1824C115.708 47.5917 116.802 45.9243 118.354 45.9243C118.765 45.9243 119.144 46.0161 119.327 46.1049L118.917 48.3035H118.915Z" fill="#2B2A29"/>
</svg>
