<svg width="24" height="32" viewBox="0 0 24 32" fill="none" xmlns="http://www.w3.org/2000/svg">
<path d="M20.6704 9.1298V2.1998C20.6704 1.6898 20.2804 1.2998 19.7704 1.2998H18.0604C17.5504 1.2998 17.1604 1.6898 17.1604 2.1998V6.3398C18.6004 6.9098 19.8004 7.8698 20.6704 9.1298Z" stroke="#E31E24" stroke-width="2" stroke-miterlimit="10" stroke-linecap="round" stroke-linejoin="round"/>
<path d="M9.66027 5.80004H14.3103C14.5203 5.80004 14.7303 5.80004 14.9103 5.83004V5.29004C14.9103 4.06004 13.8903 3.04004 12.6603 3.04004H11.2803C10.0503 3.04004 9.03027 4.06004 9.03027 5.29004V5.83004C9.27027 5.80004 9.48027 5.80004 9.66027 5.80004Z" stroke="#E31E24" stroke-width="2" stroke-miterlimit="10" stroke-linecap="round" stroke-linejoin="round"/>
<path d="M6.84008 6.3398V2.1998C6.84008 1.6898 6.45008 1.2998 5.94008 1.2998H4.23008C3.72008 1.2998 3.33008 1.6898 3.33008 2.1998V9.1298C4.20008 7.8698 5.40008 6.9098 6.84008 6.3398Z" stroke="#E31E24" stroke-width="2" stroke-miterlimit="10" stroke-linecap="round" stroke-linejoin="round"/>
<path d="M14.3402 5.7998H9.6602C5.4002 5.7998 1.9502 9.24981 1.9502 13.5098V29.7998C1.9502 30.3098 2.3402 30.6998 2.8502 30.6998H21.1202C21.6302 30.6998 22.0202 30.3098 22.0202 29.7998V13.5098C22.0202 9.24981 18.5702 5.7998 14.3402 5.7998Z" stroke="#E31E24" stroke-width="2" stroke-miterlimit="10" stroke-linecap="round" stroke-linejoin="round"/>
<path d="M18.5401 18.9404H5.46006C4.95006 18.9404 4.56006 19.3304 4.56006 19.8404V27.0404C4.56006 27.5504 4.95006 27.9404 5.46006 27.9404H18.5401C19.0501 27.9404 19.4401 27.5504 19.4401 27.0404V19.8404C19.4401 19.3304 19.0201 18.9404 18.5401 18.9404Z" stroke="#E31E24" stroke-width="2" stroke-miterlimit="10" stroke-linecap="round" stroke-linejoin="round"/>
<path d="M18.5627 21.625H5.43774" stroke="#E31E24" stroke-width="2" stroke-miterlimit="10" stroke-linecap="round" stroke-linejoin="round"/>
<path d="M7.17017 23.3282V21.9482" stroke="#E31E24" stroke-width="2" stroke-miterlimit="10" stroke-linecap="round" stroke-linejoin="round"/>
<path d="M14.7302 12.2195L12.2102 14.7395C12.0902 14.8595 11.9102 14.8595 11.7902 14.7395L9.27018 12.2195C9.15018 12.0995 9.15018 11.9195 9.27018 11.7995L11.7902 9.27945C11.9102 9.15945 12.0902 9.15945 12.2102 9.27945L14.7302 11.7995C14.8502 11.9195 14.8502 12.1295 14.7302 12.2195Z" stroke="#E31E24" stroke-width="2" stroke-miterlimit="10" stroke-linecap="round" stroke-linejoin="round"/>
</svg>
