<svg width="30" height="22" viewBox="0 0 30 22" fill="none" xmlns="http://www.w3.org/2000/svg">
<path d="M28.75 12.084H1.25C0.559998 12.084 0 11.524 0 10.834C0 10.144 0.559998 9.58398 1.25 9.58398H28.75C29.44 9.58398 30 10.144 30 10.834C30 11.524 29.44 12.084 28.75 12.084Z" fill="white"/>
<path d="M28.75 2.5H1.25C0.559998 2.5 0 1.94 0 1.25C0 0.559998 0.559998 0 1.25 0H28.75C29.44 0 30 0.559998 30 1.25C30 1.94 29.44 2.5 28.75 2.5Z" fill="white"/>
<path d="M28.75 21.666H1.25C0.559998 21.666 0 21.106 0 20.416C0 19.726 0.559998 19.166 1.25 19.166H28.75C29.44 19.166 30 19.726 30 20.416C30 21.106 29.44 21.666 28.75 21.666Z" fill="white"/>
</svg>
