<svg width="24" height="24" viewBox="0 0 24 24" fill="none" xmlns="http://www.w3.org/2000/svg">
<path d="M21.4457 17.3664V20.3664C21.4469 20.6449 21.3898 20.9206 21.2782 21.1757C21.1667 21.4309 21.003 21.66 20.7978 21.8483C20.5926 22.0365 20.3503 22.1799 20.0865 22.2691C19.8227 22.3583 19.5431 22.3915 19.2657 22.3664C16.1886 22.032 13.2327 20.9805 10.6357 19.2964C8.21956 17.7611 6.17107 15.7126 4.63573 13.2964C2.94571 10.6876 1.89398 7.71738 1.56573 4.62639C1.54074 4.34985 1.57361 4.07115 1.66223 3.80801C1.75086 3.54487 1.8933 3.30308 2.0805 3.09801C2.2677 2.89294 2.49554 2.7291 2.74952 2.61691C3.00351 2.50472 3.27807 2.44665 3.55573 2.44639H6.55573C7.04104 2.44161 7.51153 2.61346 7.8795 2.92992C8.24747 3.24637 8.48781 3.68583 8.55573 4.16639C8.68236 5.12645 8.91718 6.06911 9.25573 6.97639C9.39028 7.33431 9.4194 7.7233 9.33964 8.09727C9.25988 8.47123 9.0746 8.8145 8.80573 9.08639L7.53573 10.3564C8.95929 12.8599 11.0322 14.9328 13.5357 16.3564L14.8057 15.0864C15.0776 14.8175 15.4209 14.6322 15.7949 14.5525C16.1688 14.4727 16.5578 14.5018 16.9157 14.6364C17.823 14.9749 18.7657 15.2098 19.7257 15.3364C20.2115 15.4049 20.6551 15.6496 20.9723 16.0239C21.2894 16.3982 21.4579 16.876 21.4457 17.3664Z" stroke="#2B2A29" stroke-width="1.5" stroke-linecap="round" stroke-linejoin="round"/>
</svg>
