<svg width="24" height="24" viewBox="0 0 24 24" fill="none" xmlns="http://www.w3.org/2000/svg">
<path fill-rule="evenodd" clip-rule="evenodd" d="M21.5 12C21.5 15.0169 19.9956 17.7602 17.7045 19.5205L17.5989 19.5993C16.0096 20.7856 14.07 21.5 12 21.5C9.92998 21.5 7.99036 20.7856 6.40108 19.5993L6.29549 19.5205C4.00445 17.7601 2.5 15.0159 2.5 12C2.5 6.85514 6.85514 2.5 12 2.5C17.1449 2.5 21.5 6.85514 21.5 12ZM7.58579 18.8191L7.50684 19.1762L7.82326 19.3596C9.0618 20.0775 10.4896 20.5 12 20.5C13.5104 20.5 14.9382 20.0775 16.1767 19.3596L16.4932 19.1761L16.4142 18.8189C16.2421 18.0414 15.8102 17.3458 15.1898 16.8466C14.5693 16.3475 13.7973 16.0746 13.001 16.073L10.9991 16.073C10.2027 16.0744 9.43057 16.3472 8.81005 16.8464C8.18953 17.3456 7.7577 18.0414 7.58579 18.8191ZM17.149 17.8346L17.4364 18.5188L17.9626 17.9955C19.5163 16.4503 20.5 14.3196 20.5 12C20.5 7.38686 16.6131 3.5 12 3.5C7.38686 3.5 3.5 7.38686 3.5 12C3.5 14.3196 4.48375 16.4503 6.03741 17.9955L6.5636 18.5188L6.85099 17.8346C7.19434 17.0172 7.77117 16.3192 8.50928 15.8279C9.2474 15.3367 10.114 15.0741 11.0006 15.073H12.9994C13.886 15.0741 14.7526 15.3367 15.4907 15.8279C16.2288 16.3192 16.8057 17.0172 17.149 17.8346Z" fill="white"/>
<path fill-rule="evenodd" clip-rule="evenodd" d="M8.5 10C8.5 7.99614 9.99614 6.5 12 6.5C14.0039 6.5 15.5 7.99614 15.5 10C15.5 12.0039 14.0039 13.5 12 13.5C9.99614 13.5 8.5 12.0039 8.5 10ZM9.5 10C9.5 10.7084 9.74922 11.3398 10.2047 11.7953C10.6602 12.2508 11.2916 12.5 12 12.5C12.7084 12.5 13.3398 12.2508 13.7953 11.7953C14.2508 11.3398 14.5 10.7084 14.5 10C14.5 9.29163 14.2508 8.66018 13.7953 8.2047C13.3398 7.74922 12.7084 7.5 12 7.5C11.2916 7.5 10.6602 7.74922 10.2047 8.2047C9.74922 8.66018 9.5 9.29163 9.5 10Z" fill="white"/>
</svg>
