<svg width="78" height="59" viewBox="0 0 78 59" fill="none" xmlns="http://www.w3.org/2000/svg">
<rect y="0.5" width="78" height="58" rx="10" fill="#F6F6F6"/>
<path d="M34.0172 30.3532C33.8453 30.183 33.5681 30.1842 33.3977 30.3559C33.2271 30.5277 33.2282 30.8053 33.4002 30.9758L36.9118 34.4579C37.3008 34.8437 37.9277 34.8446 38.3178 34.4601L48.1214 24.7985C48.2945 24.6279 48.2971 24.3493 48.1272 24.1754C47.9562 24.0006 47.6757 23.9979 47.5015 24.1696L38.3174 33.2213C37.9274 33.6056 37.3008 33.6049 36.9118 33.2196L34.0172 30.3532Z" fill="#E31E24" stroke="#E31E24"/>
<path d="M39.9783 14.6994L39.7124 14.5L39.4465 14.6994C33.5399 19.1531 26.4178 20.7722 26.3466 20.7864L26 20.8624V21.2185C26 28.5685 26 43.8714 39.6601 45.5H39.7646C53.4247 43.8714 53.4247 28.578 53.4247 21.2185V20.8624L53.0781 20.7864C53.0069 20.7722 45.8848 19.1531 39.9783 14.6994ZM39.7124 44.6121C27.0731 43.069 26.8926 29.2712 26.8926 21.5651C28.3883 21.1805 34.4895 19.4665 39.7124 15.6015C44.9684 19.4665 51.0459 21.1805 52.5321 21.5651C52.5321 29.2712 52.3517 43.069 39.7124 44.6169V44.6121Z" fill="#2B2B2C" stroke="#2B2B2C"/>
</svg>
