<svg width="17" height="16" viewBox="0 0 17 16" fill="none" xmlns="http://www.w3.org/2000/svg">
<path fill-rule="evenodd" clip-rule="evenodd" d="M7.97277 2.12675C8.01882 1.98072 8.11022 1.85318 8.2337 1.76264C8.35719 1.6721 8.50632 1.62329 8.65943 1.62329C8.81255 1.62329 8.96168 1.6721 9.08516 1.76264C9.20865 1.85318 9.30005 1.98072 9.3461 2.12675L10.5861 5.94009H14.5861C14.7447 5.93409 14.9009 5.98018 15.0308 6.07131C15.1608 6.16244 15.2573 6.29361 15.3056 6.44476C15.354 6.59592 15.3516 6.75875 15.2987 6.90839C15.2458 7.05802 15.1454 7.18623 15.0128 7.27342L11.7661 9.62675L13.0061 13.4468C13.0551 13.5923 13.0564 13.7496 13.0096 13.8959C12.9629 14.0422 12.8706 14.1697 12.7463 14.2597C12.6219 14.3498 12.472 14.3978 12.3185 14.3967C12.1649 14.3955 12.0158 14.3453 11.8928 14.2534L8.63943 11.8734L5.39277 14.2334C5.26977 14.3253 5.12061 14.3755 4.96706 14.3767C4.81352 14.3778 4.66363 14.3298 4.53928 14.2397C4.41494 14.1497 4.32265 14.0222 4.27591 13.8759C4.22916 13.7296 4.23039 13.5723 4.27943 13.4268L5.51943 9.60675L2.27277 7.25342C2.14016 7.16623 2.03974 7.03802 1.98685 6.88839C1.93396 6.73875 1.93151 6.57592 1.97988 6.42476C2.02825 6.27361 2.12478 6.14244 2.25471 6.05131C2.38465 5.96018 2.54084 5.91409 2.69943 5.92009H6.69943L7.97277 2.12675Z" fill="#E31E24"/>
</svg>
