<svg width="78" height="59" viewBox="0 0 78 59" fill="none" xmlns="http://www.w3.org/2000/svg">
<rect y="0.5" width="78" height="58" rx="10" fill="#F6F6F6"/>
<path d="M50.1823 39.447L50.4285 39.4901L49.8857 42.5851C49.7601 43.301 49.0966 43.7829 48.3769 43.6813L48.3768 43.6813L45.2656 43.2412L45.2656 43.2412C44.3498 43.1115 43.4451 43.4057 42.7803 44.0487L40.5219 46.2334C39.9996 46.7386 39.1794 46.7386 38.657 46.2334L38.6569 46.2334L36.3986 44.0487C35.8365 43.505 35.1032 43.2112 34.3376 43.2112C34.1971 43.2112 34.0554 43.2211 33.9134 43.2412L33.9133 43.2412L30.8021 43.6813C30.0828 43.783 29.4189 43.3009 29.2933 42.5851L29.2933 42.585L28.7504 39.49C28.5906 38.5791 28.0313 37.8094 27.2144 37.376L27.2144 37.376L24.4387 35.9032C23.7967 35.5626 23.5432 34.7825 23.8623 34.1296L24.0869 34.2393L23.8623 34.1295L25.2423 31.3065C25.6484 30.4757 25.6484 29.5243 25.2423 28.6935L23.8623 25.8704L23.8623 25.8704C23.5432 25.2175 23.7967 24.4374 24.4387 24.0968L24.4387 24.0968M50.1823 39.447L24.5559 24.3176L24.4387 24.0968M50.1823 39.447L50.4285 39.4901C50.5883 38.5793 51.1476 37.8096 51.9644 37.376L54.7401 35.9033C55.3822 35.5627 55.6356 34.7825 55.3164 34.1294L55.0918 34.2392L55.3164 34.1294L53.9364 31.3065C53.5303 30.4757 53.5303 29.5242 53.9364 28.6934L55.3164 25.8704C55.6355 25.2175 55.3821 24.4374 54.74 24.0968L51.9643 22.624L51.9643 22.624C51.1474 22.1906 50.5882 21.4209 50.4284 20.51L49.8855 17.415C49.76 16.6991 49.096 16.2169 48.3767 16.3187L45.2655 16.7588L45.2655 16.7588C44.3499 16.8884 43.4449 16.5944 42.7802 15.9513L40.5219 13.7666L40.5218 13.7666C39.9994 13.2614 39.1792 13.2614 38.6569 13.7666L36.3985 15.9513C36.3985 15.9513 36.3985 15.9513 36.3985 15.9513C35.7337 16.5943 34.8287 16.8884 33.9132 16.7588L33.9132 16.7588L30.802 16.3187L30.8019 16.3187C30.0821 16.217 29.4188 16.6991 29.2932 17.4149L29.2932 17.415L28.7503 20.5099C28.5906 21.4208 28.0312 22.1905 27.2144 22.624L50.1823 39.447ZM24.4387 24.0968L27.2144 22.624L24.4387 24.0968ZM28.9966 39.4468C28.8235 38.46 28.2166 37.6247 27.3316 37.1551L28.9966 39.4468ZM28.9966 39.4468L29.5395 42.5418C29.6419 43.1249 30.1813 43.5165 30.7671 43.4337L28.9966 39.4468ZM41.8319 47.5877L41.658 47.408C41.0773 47.9698 40.3331 48.2499 39.5895 48.25C38.8457 48.2501 38.1019 47.97 37.5209 47.408L35.2626 45.2233L35.2625 45.2232C34.9636 44.9341 34.5542 44.8007 34.1421 44.8592L31.031 45.2993C30.8874 45.3196 30.7446 45.3295 30.604 45.3295C29.1783 45.3296 27.938 44.3156 27.684 42.8676L27.1411 39.7725L27.1411 39.7725C27.0692 39.3628 26.8163 39.0145 26.4486 38.8195L23.673 37.3468L23.5558 37.5676L23.673 37.3468C22.2466 36.59 21.6854 34.8628 22.3945 33.4121L23.7745 30.5892C23.9572 30.2154 23.9572 29.785 23.7745 29.4112L23.7745 29.4112L22.3946 26.5882C21.6855 25.1375 22.2467 23.4102 23.673 22.6535L23.673 22.6535L26.4487 21.1807L26.4488 21.1807C26.8163 20.9857 27.0692 20.6375 27.1411 20.2277L27.1411 20.2277L27.684 17.1328C27.9629 15.5423 29.432 14.4747 31.031 14.701L31.031 14.701L34.1422 15.1411L34.1424 15.1411C34.5543 15.1991 34.9633 15.0664 35.2625 14.777L35.2625 14.777L37.5209 12.5921L37.5209 12.5921C38.6814 11.4693 40.4975 11.4693 41.6581 12.5921L43.9164 14.7768C44.2155 15.0661 44.6246 15.1991 45.0367 15.1409L45.0368 15.1409L48.148 14.7008L48.113 14.4532L48.148 14.7008C49.7464 14.4746 51.216 15.5422 51.495 17.1326L52.0378 20.2276L52.0379 20.2276C52.1098 20.6373 52.3627 20.9856 52.7303 21.1806C52.7303 21.1806 52.7303 21.1806 52.7303 21.1806L55.506 22.6533C56.9323 23.4101 57.4935 25.1373 56.7844 26.588L55.4045 29.411C55.2217 29.7848 55.2218 30.2152 55.4045 30.589L55.6291 30.4793L55.4045 30.589L56.7844 33.4121C57.4935 34.8628 56.9323 36.5901 55.506 37.3468L55.6232 37.5676L55.506 37.3468L52.7303 38.8196L52.7303 38.8196C52.3628 39.0146 52.1099 39.3628 52.0379 39.7726L52.0379 39.7726L51.495 42.8675C51.216 44.4579 49.7472 45.5255 48.148 45.2993L45.0368 44.8592L45.0365 44.8592C44.6248 44.8014 44.2157 44.9339 43.9165 45.2232L43.9164 45.2233L41.658 47.408L41.8319 47.5877Z" fill="transparent" stroke="#2B2B2C" stroke-width="0.5"/>
<path d="M46.7998 22.4834L46.7998 22.4834C47.119 22.8025 47.119 23.3198 46.7998 23.6389L46.7998 23.6389L32.7162 37.7225L32.7161 37.7226C32.5566 37.8821 32.348 37.9618 32.1385 37.9618C31.9291 37.9618 31.7204 37.8821 31.5608 37.7225C31.2418 37.4035 31.2418 36.8862 31.5608 36.5671L31.384 36.3903L31.5608 36.5671L45.6444 22.4834C45.9635 22.1644 46.4809 22.1644 46.7998 22.4834Z" fill="#E31E24" stroke="#E31E24" stroke-width="0.5"/>
<path d="M36.9407 24.4123V24.4123C36.9407 23.2936 36.031 22.384 34.9123 22.384C33.7937 22.384 32.8841 23.2936 32.8841 24.4123C32.8841 25.531 33.7937 26.4406 34.9123 26.4406C36.031 26.4406 36.9406 25.531 36.9407 24.4123ZM31.25 24.4123C31.25 22.3932 32.8932 20.75 34.9123 20.75C36.9315 20.75 38.5747 22.3932 38.5747 24.4123C38.5747 26.4315 36.9315 28.0747 34.9123 28.0747C32.8932 28.0747 31.25 26.4315 31.25 24.4123Z" fill="#E31E24" stroke="#E31E24" stroke-width="0.5"/>
<path d="M39.786 35.7936C39.786 33.7744 41.4292 32.1312 43.4484 32.1312C45.4675 32.1312 47.1107 33.7744 47.1107 35.7936C47.1107 37.8127 45.4675 39.4559 43.4484 39.4559C41.4292 39.4559 39.786 37.8127 39.786 35.7936ZM41.42 35.7936C41.42 36.9122 42.3297 37.8219 43.4484 37.8219C44.567 37.8219 45.4766 36.9122 45.4766 35.7936C45.4766 34.6749 44.567 33.7653 43.4484 33.7653C42.3297 33.7653 41.42 34.6749 41.42 35.7936Z" fill="#E31E24" stroke="#E31E24" stroke-width="0.5"/>
</svg>
