<?xml version="1.0" encoding="UTF-8"?>
<!DOCTYPE svg PUBLIC "-//W3C//DTD SVG 1.1//EN" "http://www.w3.org/Graphics/SVG/1.1/DTD/svg11.dtd">
<!-- Creator: CorelDRAW 2019 (64-Bit) -->
<svg xmlns="http://www.w3.org/2000/svg" xml:space="preserve" width="11.8447mm" height="7.8775mm" version="1.1" style="shape-rendering:geometricPrecision; text-rendering:geometricPrecision; image-rendering:optimizeQuality; fill-rule:evenodd; clip-rule:evenodd"
viewBox="0 0 45.84 30.49"
 xmlns:xlink="http://www.w3.org/1999/xlink">
 <defs>
  <style type="text/css">
   <![CDATA[
    .fil0 {fill:black}
   ]]>
  </style>
 </defs>
 <g id="Layer_x0020_1">
  <metadata id="CorelCorpID_0Corel-Layer"/>
  <g id="_2407452655024">
   <path class="fil0" d="M11.64 13.33c-0.33,0.04 -5.21,2.33 -6.08,2.7 -1.64,0.7 -4.34,1.52 -2.18,2.78 1.42,0.83 2.77,1.57 4.34,2.25 6.05,2.6 11.35,3.59 17.99,3.99 0.7,0.04 1.4,0.05 2.12,0.06 1.01,0.02 0.99,-0.06 1.75,-0.44 4.27,-2.12 9.16,-4.24 13.39,-6.39 0.42,-0.21 1.04,-0.42 1.42,-0.71 -0.38,-0.16 -1.08,-0.06 -1.55,-0.07 -0.61,-0.01 -0.78,0.09 -1.23,0.3l-6.33 2.9c-1.42,0.63 -2.8,1.24 -4.23,1.93 -2.6,1.24 -2.04,1.22 -4.74,0.64 -3.3,-0.72 -6.15,-2.26 -8.4,-3.89 -0.91,-0.66 -2.58,-2 -3.34,-2.82 -0.51,-0.55 -1.01,-1.03 -1.51,-1.57 -0.53,-0.57 -0.91,-1.11 -1.42,-1.66z"/>
   <path class="fil0" d="M42.04 14.65c-0.31,0.26 -1.8,0.85 -2.25,1.06 -1.38,0.63 -10.84,5 -11.08,5 -1.13,0.02 -3.92,-0.99 -5.02,-1.42 -1.5,-0.58 -3.99,-2.05 -5.13,-3l-2.58 -2.25c-1.97,-1.86 -4.3,-4.95 -5.63,-7.26 -0.62,-1.07 -1.28,-1.75 -0.37,-1.99l7.78 -1.88c1.76,-0.42 3.46,-0.86 5.2,-1.25 1.23,-0.28 1.52,0.19 1.96,1.03 0.38,0.73 0.79,1.34 1.21,2.01l1.4 1.89c1.13,1.28 1.9,2.04 3.29,3.16 0.55,0.44 1.19,0.87 1.9,1.32 1.19,0.76 2.86,1.61 4.3,2.14 0.78,0.29 1.61,0.58 2.42,0.8 0.49,0.13 2.36,0.49 2.6,0.64zm3.8 -0.72l0 0.48c-0.45,0.46 -0.07,0.3 -1.14,0.78l-14.13 6.44c-1.37,0.62 -1.23,0.79 -2.96,0.47 -1.03,-0.19 -2.02,-0.46 -2.95,-0.77 -7.07,-2.34 -12.64,-8.47 -15.85,-14.11 -0.41,-0.71 -1.21,-1.75 -0.68,-2.84 0.48,-0.97 1.22,-1.06 2.39,-1.34 2.01,-0.47 4,-0.98 6.01,-1.46 2.04,-0.49 4.04,-0.94 6.03,-1.44 1.35,-0.34 1.99,-0.12 2.87,0.56 1.13,0.87 4.33,11.11 19.13,12.64 1.03,0.11 0.79,0 1.28,0.57z"/>
   <path class="fil0" d="M28.34 28.23c0.46,0 7.34,-3.17 8.36,-3.6 0.89,-0.38 7.95,-3.43 8.19,-3.66 -1.18,-0.05 -2.49,-0.02 -3.67,-0.01 -0.67,0.01 -1.92,0.77 -2.53,1.05 -3.24,1.46 -6.57,3.27 -9.71,4.64 -0.62,0.27 -5.72,-0.14 -6.73,-0.24 -3.14,-0.31 -7.44,-1.1 -10.46,-2.15 -0.48,-0.17 -0.87,-0.4 -1.37,-0.21 -1.73,0.66 -3.36,1.4 -5.12,2.07l-4.95 2.01c-0.17,0.09 -0.08,0.04 -0.15,0.1l28.14 0.01z"/>
   <polygon class="fil0" points="-0,30.49 28.48,30.47 28.49,28.84 -0,28.84 "/>
   <path class="fil0" d="M28.92 30.47c0.55,-0.18 1.45,-0.63 2.03,-0.91l12.1 -5.47c0.6,-0.27 1.32,-0.65 2,-0.88l-0.01 -1.67 -16.13 7.28 0.01 1.65z"/>
  </g>
 </g>
</svg>
