<?xml version="1.0" encoding="UTF-8"?>
<!DOCTYPE svg PUBLIC "-//W3C//DTD SVG 1.1//EN" "http://www.w3.org/Graphics/SVG/1.1/DTD/svg11.dtd">
<!-- Creator: CorelDRAW 2019 (64-Bit) -->
<svg xmlns="http://www.w3.org/2000/svg" xml:space="preserve" width="8.4928mm" height="11.0505mm" version="1.1" style="shape-rendering:geometricPrecision; text-rendering:geometricPrecision; image-rendering:optimizeQuality; fill-rule:evenodd; clip-rule:evenodd"
viewBox="0 0 31.6 41.12"
 xmlns:xlink="http://www.w3.org/1999/xlink">
 <defs>
  <style type="text/css">
   <![CDATA[
    .fil0 {fill:#2B2A29}
   ]]>
  </style>
 </defs>
 <g id="Layer_x0020_1">
  <metadata id="CorelCorpID_0Corel-Layer"/>
  <g id="_2407427993760">
   <path class="fil0" d="M14.92 32.76c1.34,-0.32 2.45,0.58 2.7,1.58 0.32,1.29 -0.61,2.35 -1.63,2.59 -2.85,0.66 -4.02,-3.46 -1.06,-4.17zm6.41 -4.58c1.7,-0.31 3.02,0.89 3.25,2.18 0.29,1.6 -0.9,2.89 -2.24,3.13 -1.73,0.31 -3.08,-0.87 -3.32,-2.22 -0.28,-1.65 0.93,-2.84 2.3,-3.09zm3.3 -7.37c1.95,-0.29 3.48,1.05 3.73,2.62 0.3,1.89 -1.11,3.36 -2.74,3.61 -1.94,0.29 -3.51,-1.07 -3.74,-2.62 -0.29,-1.9 1.1,-3.35 2.75,-3.6zm-1.96 -6.8c1.55,-0.38 2.82,0.64 3.12,1.82 0.38,1.48 -0.68,2.67 -1.82,2.98 -3.33,0.89 -4.71,-3.96 -1.3,-4.8zm-0.66 -2.99c-0.17,0.5 -2.29,3.72 -2.6,4.21 -0.93,1.44 -3.14,4.56 -4.24,6 -0.51,0.66 -0.92,1.28 -1.42,1.95 -2.82,3.79 -2.05,2.23 -1.66,4.28 0.39,2.03 -0.21,3.99 -1.27,5.23 -0.95,1.11 -2.51,1.95 -2.98,3.83 -0.49,1.99 1.14,3.54 2.48,4.1 1.95,0.8 3.92,0.5 5.96,0.04 6.83,-1.55 12.72,-6.71 14.61,-12.75 1.2,-3.83 0.91,-7.88 -1.02,-11.03 -0.32,-0.52 -1.05,-1.57 -1.46,-1.98l-1.32 -1.26c-0.89,-0.75 -3.71,-2.48 -5.08,-2.63z"/>
   <path class="fil0" d="M0.34 36.55c0.29,-1.31 6.08,-10.21 6.86,-11.36 1,-1.47 6.66,-9.38 7.71,-10.55l0.38 0.24 -1.95 2.61c-3.58,4.84 -6.04,8.39 -9.45,13.47 -1.12,1.68 -2.55,4.17 -3.55,5.59zm14.26 -22.1c-0.09,0.12 -0.18,0.23 -0.26,0.35l-3.59 4.83c-2.57,3.39 -5.6,7.93 -7.77,11.5 -0.6,0.99 -1.19,1.99 -1.76,3.02 -0.3,0.55 -0.56,1 -0.86,1.56 -0.25,0.46 -0.72,1.31 0.14,1.48 0.57,0.11 1.12,-0.74 1.39,-1.01l4.02 -4.43c1.25,-1.55 2.42,-2.87 3.78,-4.59 0.53,-0.67 7.63,-10.02 8.11,-11.09 -0.87,-0.54 -1.71,-1.25 -2.89,-1.93l-0.3 0.32z"/>
   <path class="fil0" d="M6.98 16.6c-0.25,-1.25 0.63,-2.19 1.65,-2.38 1.25,-0.23 2.28,0.63 2.47,1.59 0.24,1.23 -0.66,2.19 -1.67,2.36 -1.29,0.22 -2.25,-0.62 -2.45,-1.58zm0.82 5.7l4.42 -6.08c1.32,-1.73 2.63,-3.5 4.02,-5.15 0.23,-0.27 0.43,-0.47 0.61,-0.77 -5.16,0.19 -8.77,1.84 -11.95,4.13 -3.28,2.36 -4.08,7.03 1.16,7.53 0.81,0.08 1.03,0.16 1.74,0.33z"/>
   <path class="fil0" d="M20.11 7.91c0.21,-2.3 3.62,-6.98 6.62,-7.37 -0.21,0.2 -0.76,0.44 -1.07,0.66 -1.24,0.9 -0.81,0.68 -1.4,1.18 -1.5,1.26 -2.98,3.89 -3,6.19 -0.07,-0.03 -1.09,-0.6 -1.15,-0.66zm-0.3 0.32c1,0.26 1.66,1.01 2.21,1.42 0.91,-0.35 1.92,-1.18 2.36,-1.79 1.4,-1.97 0.43,-5.32 3.27,-7.13 0.33,-0.21 1.27,-0.56 1.42,-0.68 -2.23,-0.23 -4.18,0.57 -5.67,1.98 -0.21,0.2 -0.39,0.38 -0.59,0.57 -0.85,0.76 -3.04,3.89 -3.01,5.65z"/>
   <path class="fil0" d="M15.71 13.61c0.55,-0.86 3.47,-4.1 3.65,-4.4 0.25,0.05 0.35,0.06 0.48,0.22 -0.15,0.19 -0.38,0.44 -0.49,0.56l-3.27 3.87c-0.24,-0.08 -0.26,-0.11 -0.37,-0.25zm-0.53 0.15l2.89 1.91c0.49,-0.51 2.6,-4 3.1,-4.84 0.39,-0.65 0.43,-0.79 -0.64,-1.5 -0.22,-0.15 -0.57,-0.37 -0.85,-0.45 -0.36,-0.11 -0.32,-0.08 -0.52,0.1l-4 4.8z"/>
   <path class="fil0" d="M0.34 36.55c1,-1.42 2.43,-3.91 3.55,-5.59 3.4,-5.08 5.87,-8.63 9.45,-13.47l1.95 -2.61 -0.38 -0.24c-1.05,1.17 -6.71,9.08 -7.71,10.55 -0.78,1.15 -6.57,10.06 -6.86,11.36z"/>
   <path class="fil0" d="M20.11 7.91c0.07,0.06 1.08,0.63 1.15,0.66 0.02,-2.3 1.5,-4.93 3,-6.19 0.59,-0.49 0.15,-0.28 1.4,-1.18 0.31,-0.22 0.86,-0.46 1.07,-0.66 -3,0.39 -6.41,5.07 -6.62,7.37z"/>
   <path class="fil0" d="M15.71 13.61c0.11,0.14 0.12,0.17 0.37,0.25l3.27 -3.87c0.12,-0.12 0.34,-0.36 0.49,-0.56 -0.13,-0.17 -0.23,-0.18 -0.48,-0.22 -0.18,0.3 -3.1,3.54 -3.65,4.4z"/>
  </g>
 </g>
</svg>
