<?xml version="1.0" encoding="UTF-8"?>
<!DOCTYPE svg PUBLIC "-//W3C//DTD SVG 1.1//EN" "http://www.w3.org/Graphics/SVG/1.1/DTD/svg11.dtd">
<!-- Creator: CorelDRAW 2019 (64-Bit) -->
<svg xmlns="http://www.w3.org/2000/svg" xml:space="preserve" width="8.0309mm" height="10.6604mm" version="1.1" style="shape-rendering:geometricPrecision; text-rendering:geometricPrecision; image-rendering:optimizeQuality; fill-rule:evenodd; clip-rule:evenodd"
viewBox="0 0 27.93 37.08"
 xmlns:xlink="http://www.w3.org/1999/xlink">
 <defs>
  <style type="text/css">
   <![CDATA[
    .fil0 {fill:#010101}
    .fil1 {fill:whitesmoke}
   ]]>
  </style>
 </defs>
 <g id="Layer_x0020_1">
  <metadata id="CorelCorpID_0Corel-Layer"/>
  <g id="_2407445164336">
   <path class="fil0" d="M2.73 36.6c-0.13,-0.55 -0.33,-0.9 -0.36,-1.57 -0.07,-1.3 -0.02,-4.27 -0.01,-5.64 0.01,-1.41 -0.12,-6.37 0.15,-7.38 0.47,-1.78 1.99,-3.28 4.06,-3.46 0.99,-0.09 14.22,-0.07 14.94,0.02 1.97,0.26 3.51,1.75 3.91,3.61 0.21,1 0.1,2.58 0.11,3.66 0.01,1.25 -0,2.51 0,3.76 0.01,1.73 0.24,5.71 -0.4,6.99 0.59,-0.1 1.31,-0.86 1.63,-1.2 1.57,-1.69 1.11,-4.93 1.09,-7.6 -0.01,-1.93 0.01,-3.86 0,-5.79 -0.02,-3.58 0.31,-6.53 -1.85,-9.74 -0.83,-1.23 -1.66,-2.17 -2.79,-3 -2.9,-2.13 -4.9,-2.32 -9.19,-2.32 -4.39,0 -6.29,0.14 -9.29,2.29 -1.02,0.73 -2.09,1.87 -2.81,2.99 -0.78,1.23 -1.33,2.48 -1.67,4.13 -0.37,1.85 -0.2,8.98 -0.21,11.37 -0.01,1.41 -0.15,4.5 0.1,5.69 0.31,1.43 1.44,2.77 2.58,3.19z"/>
   <path class="fil0" d="M7 25.49l13.9 -0 0 2.32 -13.9 0 -0 -2.32zm16.17 9.7c0.13,-0.62 0.04,-7.39 0.04,-8.62 0,-2.3 0.45,-4.45 -1.12,-5.39 -0.59,-0.35 -1.06,-0.33 -1.85,-0.33 -2.89,0.02 -5.79,-0.02 -8.69,0 -1.45,0.01 -2.9,-0 -4.35,-0 -1.31,-0 -2.27,0.73 -2.49,1.86 -0.12,0.64 -0.05,7.4 -0.05,8.65 0,0.92 -0.1,3.52 0.15,4.2 0.51,1.41 1.68,1.51 2.83,1.52 2.9,0.01 5.8,-0.02 8.69,0 1.44,0.01 2.9,0.01 4.34,-0 1.36,-0.02 2.23,-0.68 2.49,-1.88z"/>
   <polygon class="fil1" points="7,27.8 20.9,27.8 20.9,25.48 7,25.49 "/>
   <path class="fil0" d="M14.57 0l-1.14 0c-0.65,0.29 -1.67,0.18 -2.86,1.47 -0.69,0.75 -1.24,1.76 -1.25,3.16l2.32 0.01c0.18,-3.06 4.46,-3.05 4.63,-0l2.31 -0.01c-0,-1.35 -0.52,-2.33 -1.18,-3.08 -1.13,-1.28 -2.07,-1.19 -2.83,-1.55z"/>
  </g>
 </g>
</svg>
