<?xml version="1.0" encoding="UTF-8"?>
<!DOCTYPE svg PUBLIC "-//W3C//DTD SVG 1.1//EN" "http://www.w3.org/Graphics/SVG/1.1/DTD/svg11.dtd">
<!-- Creator: CorelDRAW 2019 (64-Bit) -->
<svg xmlns="http://www.w3.org/2000/svg" xml:space="preserve" width="8.6755mm" height="9.4266mm" version="1.1" style="shape-rendering:geometricPrecision; text-rendering:geometricPrecision; image-rendering:optimizeQuality; fill-rule:evenodd; clip-rule:evenodd"
viewBox="0 0 183.07 198.92"
 xmlns:xlink="http://www.w3.org/1999/xlink">
 <defs>
  <style type="text/css">
   <![CDATA[
    .fil0 {fill:black}
   ]]>
  </style>
 </defs>
 <g id="Layer_x0020_1">
  <metadata id="CorelCorpID_0Corel-Layer"/>
  <g id="_2407617774128">
   <path class="fil0" d="M34.1 131.23l-19.25 0c-0.51,-1.92 -4.17,-3.9 -6.29,-3.9 -2.74,0 -4.5,0.53 -6.26,2.29 -4.84,4.84 -1.56,13.68 5.63,13.68 1.71,0 3.12,-0.52 4.23,-1.18 0.88,-0.53 2.42,-1.82 2.69,-2.84l64.67 0 0 7.67c0,1.33 0.41,2.22 1.08,2.94l0.52 0.49c0.54,0.45 1.4,0.85 2.17,0.85l16.48 0c0.93,0 1.81,-0.5 2.44,-1.08l0.19 -0.19c0.72,-0.74 1.15,-1.64 1.15,-3.01l0 -7.67 64.67 0c0.65,2.44 7.46,6.7 12.42,1.73 5.24,-5.25 1.25,-13.68 -5,-13.68 -2.71,0 -4.51,0.53 -6.32,2.35 -0.34,0.34 -0.97,1.08 -1.1,1.54l-19.25 0 -1.76 -3.9c-0.27,-0.6 -0.6,-1.28 -0.88,-1.89 -0.31,-0.69 -0.58,-1.32 -0.88,-2.01 -1.44,-3.22 -3.04,-6.39 -4.44,-9.65l-1.35 -2.93c-0.16,-0.33 -0.24,-0.6 -0.42,-0.97 -0.16,-0.35 -0.32,-0.61 -0.46,-0.92l-1.76 -3.9c-0.17,-0.35 -0.27,-0.66 -0.46,-1.05l-2.22 -4.95c-0.17,-0.37 -0.31,-0.6 -0.45,-0.94 -0.66,-1.64 -1.53,-3.19 -2.21,-4.83 -0.17,-0.42 -0.31,-0.62 -0.49,-1.02l-3.57 -7.75c-0.32,-0.69 -0.56,-1.22 -0.85,-1.92 -1.23,-2.95 -2.67,-5.83 -3.97,-8.73 -0.17,-0.38 -0.26,-0.65 -0.46,-1.05 -0.31,-0.62 -1.65,-3.32 -1.8,-3.98 -0.35,0.09 -0.35,0.19 -0.55,0.46 -1.03,1.4 -2.15,2.67 -3.38,3.91 -2.04,2.06 -4.71,3.92 -7.16,5.42l-2.8 1.48c-1.7,0.7 -4.43,2.04 -6.24,2.19 0.06,0.67 0.34,1.02 0.59,1.55l11.12 24.37c0.24,0.49 0.46,1.02 0.71,1.55 0.49,1.06 0.87,1.99 1.39,3.02 0.26,0.52 0.43,0.98 0.67,1.47 0.25,0.51 0.44,1 0.71,1.55 0.27,0.54 0.45,1 0.71,1.55l4.16 9.17c0.52,1.26 1.82,3.57 2.09,4.71l-19 0c0,-1.83 0.26,-7.94 -0.3,-9.39 -0.37,-0.96 -1.08,-1.72 -2,-2.15 -0.47,-0.22 -1.07,-0.42 -1.72,-0.42l-15.98 0c-0.62,0 -1.21,0.19 -1.64,0.38 -1.54,0.68 -2.39,2.19 -2.39,3.9l0 7.67 -19 0c0.24,-1.06 2.2,-4.91 2.69,-6.11l1.37 -3.03c0.25,-0.53 0.47,-1.06 0.71,-1.55l2.1 -4.57c0.25,-0.52 0.43,-0.99 0.67,-1.47l4.91 -10.69c0.22,-0.44 0.45,-0.99 0.66,-1.47l4.87 -10.73c0.89,-2.01 1.97,-4.06 2.82,-6.11 0.23,-0.55 0.46,-1.03 0.7,-1.56 0.23,-0.52 0.57,-0.94 0.63,-1.64 -2.12,-0.18 -6.97,-2.44 -8.88,-3.58l-3.78 -2.52c-1.35,-1.02 -3.46,-2.68 -4.48,-3.95 -0.8,-1.01 -1.66,-1.84 -2.4,-2.88 -0.2,-0.28 -0.23,-0.44 -0.6,-0.54l-4.41 9.69c-1.58,3.19 -2.89,6.56 -4.44,9.77 -0.92,1.91 -1.69,3.91 -2.64,5.79l-2.27 4.91c-0.19,0.39 -0.28,0.7 -0.46,1.05 -0.63,1.26 -1.15,2.63 -1.76,3.9 -0.16,0.33 -0.25,0.6 -0.42,0.96l-4.01 8.7c-0.14,0.34 -0.27,0.57 -0.44,0.94l-1.34 2.94c-1.56,3.21 -2.94,6.54 -4.44,9.77 -0.34,0.72 -0.58,1.28 -0.89,2.01l-0.92 1.98z"/>
   <path class="fil0" d="M79.64 47.68c0,-1.68 0.52,-3.65 1.09,-4.82 4.45,-9.25 16.98,-9.37 21.56,-0.08 1.97,4 1.17,9.4 -1.61,12.49 -0.29,0.32 -0.38,0.5 -0.69,0.82 -0.92,0.94 -2.31,1.84 -3.49,2.42 -0.61,0.3 -1.47,0.61 -2.24,0.78 -5.78,1.31 -11.03,-1.47 -13.53,-6.65 -0.57,-1.18 -1.09,-3.26 -1.09,-4.95zm-15.98 -0.75c0,5.02 0.68,8.49 2.56,12.54 1.9,4.11 5.35,8.48 9.22,11.04 3.09,2.04 5.52,3.33 9.31,4.28 4.46,1.11 8.99,1.14 13.46,0.03 2.26,-0.57 3.02,-0.93 5.03,-1.76 1.6,-0.66 2.95,-1.59 4.3,-2.49 1.27,-0.84 2.64,-2.03 3.71,-3.09 4.64,-4.65 8.15,-11.79 8.15,-18.9 0,-4.42 -0.61,-8.66 -2.56,-12.54 -3.26,-6.51 -7.01,-10.27 -13.5,-13.55 -5.49,-2.77 -12.38,-3.24 -18.51,-1.81 -1.46,0.34 -3.73,1.12 -5.02,1.77 -4.74,2.37 -7.92,4.86 -11.06,9.2 -2.84,3.92 -5.09,9.92 -5.09,15.3z"/>
   <path class="fil0" d="M156.01 185.2c0.04,0.48 2.67,6.04 2.98,6.71l1.3 2.86c0.94,2.11 1.45,4.15 4.78,4.15 1.61,0 3.65,-1.68 3.65,-3.52 0,-2.35 -0.92,-3.42 -1.92,-5.75l-3.49 -7.84c0.62,-0.93 1.11,-0.84 2.48,-3.56 1.6,-3.2 1.49,-7.27 -0.08,-10.4l-2.18 -4.74c-0.27,-0.56 -0.46,-1.03 -0.71,-1.55l-3.65 -7.93c-0.48,-1.09 -0.91,-2.12 -1.43,-3.23 -0.5,-1.06 -0.95,-2.2 -1.47,-3.19l-26.29 0c0.08,0.33 0.38,0.99 0.54,1.34 2.33,4.98 4.53,10.11 6.92,15.1 0.46,0.95 0.78,1.83 1.26,2.77l3.73 8.22c0.42,0.94 0.81,1.86 1.26,2.76 1,2.03 1.33,2.92 3.3,4.75 0.64,0.6 1.61,1.23 2.4,1.62 2.12,1.05 3.51,1.42 6.63,1.42z"/>
   <path class="fil0" d="M16.1 173.25c0,2.4 0.98,5.08 2.21,6.85l1.44 1.71 -0.67 1.59c-0.25,0.53 -0.47,1.07 -0.71,1.55l-2.81 6.25c-0.25,0.54 -0.48,1.05 -0.71,1.55 -1.58,3.48 0.67,5.96 3.17,6.16l0.68 0c1.22,-0.11 2.42,-0.77 3.19,-2.14 0.18,-0.33 0.24,-0.59 0.42,-0.96 0.18,-0.37 0.26,-0.56 0.43,-0.96l4.31 -9.65c4.9,0 8.1,-1.48 10.86,-5.12 0.79,-1.04 2.11,-3.95 2.66,-5.27l12.53 -27.61 -26.29 0c-0.91,1.72 -2.59,5.79 -3.56,7.89l-4.7 10.15c-1.12,2.42 -2.43,4.91 -2.43,8.01z"/>
   <path class="fil0" d="M79.51 4.03l0 9.69c0,0.43 0.18,0.32 0.39,0.28l2.02 -0.65c5.67,-1.82 13.43,-1.79 19.13,-0.03l2.02 0.65c0.29,0.07 0.48,0.2 0.48,-0.26l0 -9.69c0,-2.2 -1.87,-4.03 -3.65,-4.03l-16.73 0c-1.81,0 -3.65,1.91 -3.65,4.03z"/>
  </g>
 </g>
</svg>
