<?xml version="1.0" encoding="UTF-8"?>
<!DOCTYPE svg PUBLIC "-//W3C//DTD SVG 1.1//EN" "http://www.w3.org/Graphics/SVG/1.1/DTD/svg11.dtd">
<!-- Creator: CorelDRAW 2019 (64-Bit) -->
<svg xmlns="http://www.w3.org/2000/svg" xml:space="preserve" width="8.8765mm" height="10.6603mm" version="1.1" style="shape-rendering:geometricPrecision; text-rendering:geometricPrecision; image-rendering:optimizeQuality; fill-rule:evenodd; clip-rule:evenodd"
viewBox="0 0 25.59 30.73"
 xmlns:xlink="http://www.w3.org/1999/xlink">
 <defs>
  <style type="text/css">
   <![CDATA[
    .fil0 {fill:black}
   ]]>
  </style>
 </defs>
 <g id="Layer_x0020_1">
  <metadata id="CorelCorpID_0Corel-Layer"/>
  <path class="fil0" d="M12.64 19.72l1.11 1.24c0.13,0.16 0.42,0.44 0.58,0.58l0.32 0.27c0.1,0.08 0.25,0.18 0.28,0.31 -0.6,0.14 -2.15,-0.09 -2.65,-0.2 -0.43,-0.1 -0.84,-0.2 -1.24,-0.35 -0.13,-0.05 -0.28,-0.14 -0.4,-0.17 0.05,-0.2 1.24,-1.14 1.46,-1.3 0.19,-0.15 0.36,-0.26 0.55,-0.39zm-3.92 -19.72l0 0c0.31,0 0.4,0.15 0.58,0.45 0.14,0.24 0.61,1.29 0.74,1.61 0.04,0.1 0.13,0.23 0.15,0.32 0.19,0 0.33,-0.06 0.48,-0.11 3.23,-1.09 6.63,-0.6 9.52,1.12 0.15,0.09 0.27,0.17 0.42,0.27 0.55,0.37 1.06,0.8 1.55,1.24 0.28,0.26 0.74,0.79 0.99,1.11 0.11,0.14 0.2,0.25 0.3,0.39 0.7,0.99 1.03,1.68 1.45,2.75 0.6,1.52 0.68,2.57 0.68,4.24 0,3.22 -1.55,6.2 -3.85,8.25 -0.06,0.05 -0.08,0.06 -0.14,0.11 -0.33,0.29 -0.93,0.72 -1.3,0.96 -0.19,0.13 -0.83,0.45 -0.92,0.58 0.04,0.16 0.17,0.44 0.24,0.6 0.09,0.2 0.15,0.36 0.24,0.57 0.13,0.31 0.57,1.07 0.36,1.42 -0.2,0.34 -2.11,0.89 -2.35,0.95 -1.96,0.5 -2.78,0.43 -4.77,0.43l0 2.29 4.14 0c0.14,0 0.41,0.37 0.41,0.53 0,0.32 -0.25,0.63 -0.38,0.63l-9.5 0c-0.12,0 -0.38,-0.32 -0.38,-0.47l0 -0.19c0,-0.17 0.28,-0.5 0.38,-0.5l4.17 0 0 -2.45c-0.22,0 -1.09,-0.22 -1.34,-0.29 -1.08,-0.29 -2.18,-0.71 -3.16,-1.26 -0.84,-0.47 -1.38,-0.8 -2.15,-1.42l-0.86 -0.74c-0.46,-0.43 -0.76,-0.79 -1.16,-1.25 -0.34,-0.39 -0.74,-0.96 -1.02,-1.39 -0.22,-0.33 -0.4,-0.66 -0.59,-1.01l-0.51 -1.09c-0.84,-2.13 -1.14,-3.5 -1.14,-5.85 0,-1.36 0.34,-3.3 0.84,-4.56 0.33,-0.84 0.61,-1.54 1.08,-2.31 0.27,-0.45 0.46,-0.78 0.79,-1.22 0.33,-0.44 0.84,-1.09 1.22,-1.47l1.4 -1.3c0.64,-0.56 2.91,-1.97 3.39,-1.97zm5.02 19.06c0,-0.18 1.83,-1 1.98,-1.07 0.15,0.29 0.27,0.57 0.41,0.88 0.17,0.39 1.14,2.53 1.16,2.73 -0.55,0.29 -0.76,0.14 -1.41,-0.35l-0.79 -0.65c-0.2,-0.19 -1.34,-1.35 -1.34,-1.54zm3.07 -1.6l1.05 -0.42c0.24,-0.09 0.87,-0.36 1.11,-0.36 0.14,0.61 0.19,0.96 0.19,1.63 0,0.7 0.04,1.52 -0.11,2.18 -0.05,0.22 -0.07,0.26 -0.21,0.39 -0.08,0.07 -0.29,0.2 -0.4,0.23l-0.84 -1.8c-0.24,-0.55 -0.52,-1.14 -0.74,-1.7 -0.02,-0.04 -0.04,-0.12 -0.05,-0.14zm-10.6 -0.16c0.6,-0.32 2.25,-1.08 2.89,-1.34 0.18,-0.07 0.88,-0.41 1.03,-0.41 0.08,0 0.4,0.65 0.46,0.76 0.08,0.16 0.14,0.26 0.22,0.41 0.24,0.48 0.73,1.34 1.03,1.79 0.05,0.08 0.08,0.11 0.11,0.21 -0.06,0.09 -0.51,0.4 -0.63,0.5 -0.53,0.4 -0.79,0.65 -1.24,1.05l-0.6 0.56c-0.18,-0.09 -0.34,-0.23 -0.5,-0.35 -0.08,-0.06 -0.15,-0.11 -0.23,-0.17 -0.4,-0.3 -0.75,-0.67 -1.11,-1.02 -0.08,-0.08 -0.13,-0.13 -0.2,-0.21 -0.07,-0.09 -0.13,-0.14 -0.21,-0.23 -0.08,-0.1 -0.11,-0.13 -0.18,-0.22 -0.42,-0.55 -0.52,-0.71 -0.83,-1.3zm14.17 2.41c-0.1,-0.41 0,-1.57 -0.08,-2.15l-0.14 -1.24 2.35 -0.44c0.17,-0 0.25,-0.03 0.38,-0.03 -0.05,0.1 -0.06,0.15 -0.11,0.27 -0.04,0.11 -0.07,0.19 -0.12,0.29 -0.18,0.44 -0.28,0.65 -0.51,1.06 -0.32,0.57 -0.59,0.92 -0.99,1.43 -0.13,0.16 -0.66,0.72 -0.79,0.81zm-9.09 -4.7c0.35,-0.19 2.45,-1.08 2.63,-1.1l1.29 2.92c-0.43,0.29 -1.7,0.92 -2.26,1.19 -0.58,-0.87 -1.11,-1.83 -1.58,-2.78 -0.05,-0.1 -0.05,-0.15 -0.08,-0.23zm-6.15 -1.79c0,-0.75 0.07,-1.49 0.23,-2.19 0.02,-0.07 0.05,-0.16 0.06,-0.26l1.44 -0.19c1.89,-0.32 1.44,-0.56 1.8,0.75 0.14,0.53 0.47,1.57 0.66,2.07l0.37 1.01 -1 0.44c-0.16,0.07 -0.32,0.15 -0.5,0.22 -0.18,0.08 -0.33,0.14 -0.5,0.22l-2.02 0.87c-0.01,-0.16 -0.14,-0.47 -0.19,-0.66 -0.18,-0.72 -0.35,-1.49 -0.35,-2.29zm9.94 0.13c0.12,-0.03 0.19,-0.08 0.3,-0.13l1.59 -0.7c0.12,-0.06 0.56,-0.25 0.68,-0.26l0.84 2.3c0.07,0.22 0.2,0.66 0.2,0.9 0,0.11 -0.05,0.08 -0.26,0.14l-2.12 0.8c-0.01,-0.18 -1.21,-2.63 -1.22,-3.04zm3.73 -1.57c0,-0.13 0.79,-0.42 0.93,-0.48l1.99 -0.87c0.17,-0.07 0.33,-0.14 0.51,-0.21 0.17,-0.07 0.37,-0.13 0.52,-0.2 0.28,0.57 0.53,2.09 0.53,2.79 0,0.55 -0.01,1 -0.06,1.53 -0.05,0.48 -0.29,0.3 -0.96,0.39 -0.59,0.08 -1.13,0.16 -1.7,0.28 -0.2,0.04 -0.36,0.12 -0.6,0.12 -0.11,0 -0.14,-0.19 -0.19,-0.38l-0.69 -2.13c-0.06,-0.16 -0.28,-0.67 -0.28,-0.85zm-9.25 -1.79l1.94 -0.69c0.13,-0.05 0.12,-0.09 0.32,-0.09l0.42 0.84c0.14,0.28 1.13,2.44 1.15,2.71 -0.42,0.22 -0.84,0.39 -1.27,0.61 -0.11,0.05 -0.22,0.1 -0.32,0.15 -0.11,0.05 -0.21,0.1 -0.33,0.14 -0.15,0.06 -0.54,0.25 -0.68,0.26l-0.52 -1.39c-0.16,-0.5 -0.7,-2.15 -0.7,-2.53zm-3.7 -0.47c0.04,-0.18 0.23,-0.48 0.32,-0.65 0.05,-0.09 0.07,-0.14 0.12,-0.22 0.42,-0.69 0.58,-0.92 1.09,-1.55l0.31 -0.35c0.11,-0.11 0.23,-0.25 0.35,-0.34 0,0.38 0.03,0.41 0.03,0.63 0.01,0.23 -0.01,0.46 -0,0.69 0.01,0.23 0.03,0.26 0.03,0.66 0,0.14 0.03,0.62 0.02,0.66 -0.02,0.15 -0.24,0.15 -0.48,0.2 -0.39,0.08 -1.45,0.27 -1.8,0.27zm7.12 -0.78c0.06,-0.08 0.4,-0.26 0.5,-0.31 0.18,-0.09 0.35,-0.19 0.53,-0.28l1.07 -0.6c0.05,0.07 0.1,0.12 0.15,0.19 0.32,0.43 0.7,1.07 0.97,1.51 0.22,0.36 0.92,1.6 0.98,1.87l-0.64 0.3c-0.27,0.14 -1.8,0.77 -2.03,0.79l-1.54 -3.48zm-2.98 -3.67c0.14,0.21 0.24,0.46 0.37,0.7 0.13,0.25 0.22,0.49 0.35,0.75 0.13,0.27 0.59,1.4 0.61,1.59 -0.11,0.03 -1.06,0.4 -1.46,0.51 -0.15,0.04 -0.37,0.13 -0.51,0.14l-0.06 -1.04c0,-0.19 0.03,-0.3 0.03,-0.53 -0,-0.49 -0.07,-1.58 0.32,-1.94 0.09,-0.08 0.25,-0.17 0.37,-0.19zm6.11 1.85l2.38 -1.85c0.24,0.06 1.39,0.91 1.65,1.17l1.15 1.21c0.08,0.1 0.14,0.17 0.21,0.26 0.14,0.18 0.27,0.35 0.4,0.54 0.1,0.15 0.31,0.41 0.32,0.62l-2.94 1.35c-0.16,0.07 -0.33,0.15 -0.51,0.22 -0.15,0.06 -0.36,0.17 -0.53,0.19 -0.37,-0.7 -0.59,-1.2 -1,-1.91 -0.09,-0.16 -0.17,-0.3 -0.26,-0.46 -0.1,-0.16 -0.18,-0.29 -0.27,-0.45 -0.18,-0.3 -0.4,-0.59 -0.59,-0.88zm-4.95 -2.35c0.56,-0.3 0.55,-0.27 1.37,0.29l1.15 0.98c0.23,0.23 0.5,0.48 0.68,0.76 -0.1,0.03 -0.15,0.08 -0.22,0.12l-0.69 0.38c-0.2,0.1 -0.81,0.39 -1,0.44 -0.02,-0.09 -0.11,-0.28 -0.16,-0.38 -0.05,-0.12 -0.11,-0.24 -0.17,-0.37l-0.81 -1.86c-0.02,-0.06 -0.05,-0.1 -0.08,-0.17 -0.03,-0.07 -0.05,-0.14 -0.08,-0.21zm2.29 -0.53c0.48,-0.11 1.98,0.04 2.41,0.1 0.3,0.04 1.13,0.27 1.38,0.4 -0.22,0.32 -1.49,1.15 -1.79,1.41 -0.21,-0.14 -1.52,-1.57 -1.86,-1.8 -0.1,-0.07 -0.07,-0.01 -0.14,-0.11zm-10.6 8.53c0,2 0.12,3 0.84,4.81 0.16,0.41 0.45,1.03 0.67,1.4 0.58,0.95 0.97,1.53 1.79,2.35 0.97,0.97 1.96,1.65 3.22,2.27l0.98 0.4c0.36,0.12 0.67,0.23 1.06,0.32 2.02,0.51 4.02,0.45 6.02,-0.11 0.13,-0.04 0.26,-0.08 0.4,-0.13 0.14,-0.05 0.31,-0.09 0.42,-0.14 0.2,0.38 0.5,1.2 0.66,1.54l-1.03 0.35c-1.05,0.33 -2.54,0.53 -3.64,0.53 -2.05,0 -4.19,-0.57 -5.61,-1.29 -0.26,-0.13 -0.52,-0.24 -0.81,-0.41 -0.29,-0.18 -0.73,-0.42 -1,-0.63l-0.93 -0.7c-0.22,-0.17 -1.08,-0.97 -1.24,-1.17 -0.42,-0.53 -0.64,-0.7 -1.09,-1.36 -0.43,-0.64 -0.57,-0.88 -0.93,-1.52 -0.2,-0.36 -0.6,-1.31 -0.73,-1.72 -0.95,-2.87 -1,-5.52 -0.04,-8.42 0.17,-0.5 0.45,-1.18 0.69,-1.67 0.34,-0.69 0.9,-1.55 1.35,-2.16 0.42,-0.56 0.91,-1.05 1.4,-1.55l0.46 -0.41c0.49,-0.38 0.62,-0.53 1.17,-0.9 0.23,-0.15 1.25,-0.83 1.5,-0.85 0.4,0.76 0.41,0.96 0.66,1.47l-0.92 0.55c-0.42,0.25 -0.79,0.55 -1.16,0.84 -0.5,0.39 -1.12,0.98 -1.5,1.47 -1.29,1.64 -1.94,2.83 -2.44,5.02 -0.11,0.47 -0.21,1.22 -0.21,1.79z"/>
 </g>
</svg>
