<?xml version="1.0" encoding="UTF-8"?>
<!DOCTYPE svg PUBLIC "-//W3C//DTD SVG 1.1//EN" "http://www.w3.org/Graphics/SVG/1.1/DTD/svg11.dtd">
<!-- Creator: CorelDRAW 2019 (64-Bit) -->
<svg xmlns="http://www.w3.org/2000/svg" xml:space="preserve" width="4.6238mm" height="9.2976mm" version="1.1" style="shape-rendering:geometricPrecision; text-rendering:geometricPrecision; image-rendering:optimizeQuality; fill-rule:evenodd; clip-rule:evenodd"
viewBox="0 0 67.83 136.39"
 xmlns:xlink="http://www.w3.org/1999/xlink">
 <defs>
  <style type="text/css">
   <![CDATA[
    .fil0 {fill:black}
    .fil1 {fill:gray}
   ]]>
  </style>
 </defs>
 <g id="Layer_x0020_1">
  <metadata id="CorelCorpID_0Corel-Layer"/>
  <g id="_2407417147008">
   <path class="fil0" d="M50.72 108.59l0 -54.59c7.2,-0.61 7.37,3.61 7.37,9.75l0 34.79c0,4.63 0.62,10.93 -7.37,10.05zm3.79 9.08c5.09,-0.06 9.62,-4.42 11.41,-7.67 2.58,-4.7 1.8,-11.72 1.8,-17.47 0,-6.39 0,-12.79 0,-19.18 0,-4.89 0.56,-14.5 -0.81,-18.48 -1.52,-4.42 -5.14,-8.04 -9.75,-9.45 -3.73,-1.14 -13.93,-0.63 -18.53,-0.63 -6.39,0 -12.79,0 -19.18,0 -6.22,0 -12.91,-0.24 -19.07,0.02l-0.07 73.01c8.71,-0.35 18.15,-0.02 26.95,-0.02 9.03,0 18.28,-0.22 27.26,-0.11z"/>
   <path class="fil0" d="M5.24 28.73c-0.36,1 -1.4,1.16 -2.65,2.98 -0.59,0.85 -1.58,2.64 -1.59,3.83l49.41 0.01c-0,-1.37 -1.57,-3.66 -2.19,-4.37 -2.58,-2.95 -2.59,-1.1 -2.56,-4.24 0.04,-3.9 0.33,-9.91 -0.07,-13.59 -0.81,-7.28 -6.5,-12.95 -14.3,-13.17 -7.72,-0.22 -17.31,-1.22 -22.28,4.93 -2.06,2.55 -3.72,5.26 -3.76,9.77 -0.04,4.6 -0.01,9.23 -0,13.83z"/>
   <path class="fil0" d="M0.77 127.08c2.7,11.25 12.95,9.16 24.92,9.16 4.11,0 13.39,0.45 16.74,-0.43 3.82,-1 7.63,-4.31 8.22,-8.76l-49.88 0.04z"/>
   <path class="fil1" d="M54.51 117.66c-8.98,-0.1 -18.22,0.11 -27.26,0.11 -8.8,0 -18.23,-0.33 -26.95,0.02l0.07 -73.01c-0.36,0.36 -0.12,-0.11 -0.27,0.46 -0.03,0.11 -0.24,70.43 0.05,72.58 1.59,0.53 23.69,0.16 27.32,0.16 0.95,0 25.55,0.12 26.54,-0.1 0.37,-0.08 0.33,-0.13 0.5,-0.23z"/>
  </g>
 </g>
</svg>
