<?xml version="1.0" encoding="UTF-8"?>
<!DOCTYPE svg PUBLIC "-//W3C//DTD SVG 1.1//EN" "http://www.w3.org/Graphics/SVG/1.1/DTD/svg11.dtd">
<!-- Creator: CorelDRAW 2019 (64-Bit) -->
<svg xmlns="http://www.w3.org/2000/svg" xml:space="preserve" width="9.4654mm" height="7.094mm" version="1.1" style="shape-rendering:geometricPrecision; text-rendering:geometricPrecision; image-rendering:optimizeQuality; fill-rule:evenodd; clip-rule:evenodd"
viewBox="0 0 38.61 28.93"
 xmlns:xlink="http://www.w3.org/1999/xlink">
 <defs>
  <style type="text/css">
   <![CDATA[
    .fil0 {fill:black}
   ]]>
  </style>
 </defs>
 <g id="Layer_x0020_1">
  <metadata id="CorelCorpID_0Corel-Layer"/>
  <path class="fil0" d="M38.55 25.46c0.2,-1.05 -0.16,-2.02 -0.59,-2.77l-5.18 -8.74c-0.31,-0.52 -0.93,-1.8 -1.44,-2.04 -0.52,-0.24 -5.83,-0.12 -6.85,-0.12 -4.64,0 -9.28,0 -13.93,0 -4.27,0 -3.56,-0.46 -4.95,2.02l-5.01 8.92c-1.06,1.9 -0.65,3.81 0.65,5.08 1.47,1.43 3.5,1.1 5.89,1.1 6.96,0 13.93,0 20.89,0 1.37,0 5.97,0.06 6.96,-0.03 1.96,-0.19 3.23,-1.63 3.56,-3.41zm-20.03 -18.81c-0.5,-0.85 -1.24,-1.48 -1.33,-3.03 -0.04,-0.65 0.08,-1.33 0.31,-1.86 0.31,-0.74 0.64,-1.07 0.77,-1.37 -0.78,-0.53 -2.17,-0.46 -3.01,-0.11 -1.84,0.78 -2.52,3.06 -1.57,4.95 0.71,1.41 1.49,1.56 1.8,1.87 -2.66,0.02 -5.5,-0.1 -8.14,0.03 -1.68,0.08 -3.45,1.07 -4.41,2.3 -0.14,0.18 -0.27,0.38 -0.39,0.56 -0.49,0.74 -1.35,1.91 -1.15,2.66 0.27,1.04 1.69,1.3 2.3,0.45 0.92,-1.28 1.45,-3.38 4.26,-3.38l22.66 0c1.21,0 2.21,0.51 2.78,1.12 0.6,0.65 0.98,1.65 1.54,2.32 0.7,0.83 2.19,0.44 2.28,-0.74 0.05,-0.66 -0.98,-2.12 -1.29,-2.59 -0.95,-1.42 -2.64,-2.62 -5.05,-2.72 -2.56,-0.11 -5.22,0.07 -7.79,-0.01 0.22,-0.21 0.7,-0.44 0.95,-0.69 0.86,-0.82 1.43,-2.16 1.25,-3.46 -0.22,-1.65 -1.67,-3 -3.47,-2.95 -2.64,0.09 -4.3,2.92 -2.71,5.57 0.63,1.04 1.42,1.33 1.62,1.53l-2.89 -0.01c0.19,-0.16 0.46,-0.29 0.67,-0.44z"/>
 </g>
</svg>
