<?xml version="1.0" encoding="UTF-8"?>
<!DOCTYPE svg PUBLIC "-//W3C//DTD SVG 1.1//EN" "http://www.w3.org/Graphics/SVG/1.1/DTD/svg11.dtd">
<!-- Creator: CorelDRAW 2019 (64-Bit) -->
<svg xmlns="http://www.w3.org/2000/svg" xml:space="preserve" width="8.3778mm" height="9.585mm" version="1.1" style="shape-rendering:geometricPrecision; text-rendering:geometricPrecision; image-rendering:optimizeQuality; fill-rule:evenodd; clip-rule:evenodd"
viewBox="0 0 22.65 25.92"
 xmlns:xlink="http://www.w3.org/1999/xlink">
 <defs>
  <style type="text/css">
   <![CDATA[
    .fil0 {fill:black}
   ]]>
  </style>
 </defs>
 <g id="Layer_x0020_1">
  <metadata id="CorelCorpID_0Corel-Layer"/>
  <g id="_2407484037024">
   <path class="fil0" d="M16.09 23.56l-9.53 0c-0.66,0 -1.27,-0.33 -1.56,-0.92 -0.08,-0.17 -0.18,-0.41 -0.18,-0.66l0 -4.35c0,-0.48 0.29,-0.91 0.62,-1.2 0.26,-0.23 0.7,-0.38 1.05,-0.38l9.69 0c0.48,0 0.89,0.21 1.21,0.53 0.04,0.04 0.06,0.07 0.1,0.12 0.16,0.18 0.29,0.51 0.34,0.76 0.06,0.28 0.03,3.73 0.03,4.28 0,0.51 -0.14,0.96 -0.49,1.31 -0.3,0.3 -0.68,0.52 -1.28,0.52zm-10.59 -10.81l0 0.05c-0.17,0 -0.38,-0.01 -0.54,-0.03 -0.05,-0.01 -0.09,0 -0.14,-0l-0.4 -0.03c0,-0.15 0.02,-0.27 0.03,-0.4l0.04 -0.39c0.14,-0.94 0.3,-1.9 0.64,-2.8l0.18 -0.46c0.12,-0.3 0.35,-0.72 0.53,-0.97 0.03,-0.04 0.06,-0.08 0.09,-0.12 0.26,-0.35 0.65,-0.67 1,-0.93 0.26,-0.2 0.75,-0.5 1.08,-0.64 0.53,-0.22 0.63,-0.28 1.27,-0.45 0.89,-0.23 1.65,-0.2 2.56,-0.2 0.74,0 1.48,0.16 2.18,0.4 0.75,0.25 1.31,0.6 1.93,1.07 0.13,0.1 0.44,0.38 0.56,0.52 0.35,0.42 0.36,0.42 0.65,0.96l0.1 0.22c0.1,0.19 0.29,0.7 0.36,0.93l0.27 1.01c0.1,0.4 0.2,1.04 0.25,1.46l0.08 0.79c-0.07,0 -0.05,0.01 -0.12,0.02 -0.04,0 -0.09,-0 -0.14,-0l-0.27 0.02c-0.17,0.01 -0.36,0.03 -0.55,0.03 0,-0.2 -0.02,-0.24 -0.03,-0.42 -0.05,-0.59 -0.24,-1.65 -0.41,-2.24 -0.16,-0.54 -0.46,-1.42 -0.81,-1.84 -0.06,-0.08 -0.11,-0.14 -0.18,-0.21l-0.28 -0.27c-0.31,-0.29 -0.66,-0.48 -1.02,-0.68 -0.45,-0.25 -1.2,-0.49 -1.71,-0.58 -1.85,-0.33 -3.74,-0.08 -5.23,1.04l-0.41 0.34c-0.07,0.07 -0.13,0.12 -0.19,0.19 -0.09,0.1 -0.24,0.32 -0.31,0.43 -0.22,0.37 -0.32,0.64 -0.46,1.04l-0.18 0.57c-0.12,0.48 -0.18,0.73 -0.27,1.23l-0.13 0.99c-0.01,0.12 -0.03,0.21 -0.03,0.35zm-3.65 6.93c0,1.27 0.1,2.45 0.3,3.53 0.05,0.28 0.1,0.52 0.17,0.78 0.11,0.48 0.52,0.76 0.97,0.95 0.23,0.1 0.46,0.18 0.71,0.25 0.96,0.27 1.5,0.32 2.41,0.45l1.09 0.11c0.34,0.02 0.79,0.08 1.12,0.08 0.15,-0 0.31,0.03 0.46,0.03 0.08,0 0.15,-0 0.23,-0 0.1,0 0.13,0.02 0.23,0.02 0.18,-0 0.29,0.02 0.46,0.01 0.33,-0 0.61,0.02 0.95,0.02l1.59 0c0.59,0 1.14,-0.03 1.72,-0.05l0.82 -0.06c0.28,-0.04 0.72,-0.05 1.02,-0.09l0.59 -0.07c0.27,-0.04 0.52,-0.07 0.77,-0.11 0.25,-0.04 0.49,-0.09 0.73,-0.14 0.4,-0.09 0.8,-0.2 1.18,-0.36 0.44,-0.18 0.94,-0.42 1.07,-0.92 0.1,-0.36 0.17,-1.12 0.23,-1.53 0.02,-0.13 0.03,-0.27 0.04,-0.4 0.02,-0.4 0.08,-0.84 0.08,-1.24l-0.01 -2.19c-0.02,-0.12 0,-0.26 -0.02,-0.38 -0.01,-0.06 -0,-0.11 -0.01,-0.18l-0.09 -1.29c-0.01,-0.29 -0.12,-1.13 -0.15,-1.41 -0.06,-0.48 -0.11,-0.93 -0.19,-1.39 -0.02,-0.1 -0.03,-0.22 -0.05,-0.33l-0.17 -1.01c-0.11,-0.67 -0.24,-1.3 -0.39,-1.95l-0.3 -1.26c-0.05,-0.21 -0.11,-0.43 -0.17,-0.63 -0.06,-0.2 -0.12,-0.4 -0.17,-0.61 -0.13,-0.45 -0.4,-1.31 -0.61,-1.74 -0.15,-0.3 -0.35,-0.55 -0.58,-0.79 -0.04,-0.04 -0.06,-0.05 -0.11,-0.09 -0.14,-0.12 -0.28,-0.24 -0.44,-0.34 -0.08,-0.06 -0.16,-0.11 -0.24,-0.15 -0.03,-0.02 -0.04,-0.02 -0.06,-0.03 -0.03,-0.02 -0.03,-0.02 -0.07,-0.04l-0.67 -0.32c-0.76,-0.31 -1.34,-0.42 -2.16,-0.59 -0.05,-0.01 -0.12,-0.02 -0.17,-0.03 -0.05,-0.01 -0.12,-0.02 -0.17,-0.03l-1.04 -0.12c-0.22,-0.03 -0.56,-0.01 -0.76,-0.04 -0.21,-0.03 -0.61,-0.01 -0.83,-0.01 -0.5,0 -1.02,0.03 -1.46,0.09l-0.35 0.04c-0.54,0.05 -1.14,0.17 -1.65,0.31 -0.21,0.06 -0.41,0.1 -0.61,0.17l-0.29 0.1c-0.1,0.04 -0.2,0.07 -0.29,0.11 -0.49,0.19 -0.95,0.44 -1.36,0.77 -0.51,0.4 -0.83,0.9 -1.03,1.51 -0.03,0.09 -0.07,0.19 -0.1,0.28l-0.48 1.49c-0.12,0.4 -0.22,0.81 -0.34,1.21 -0.06,0.21 -0.1,0.42 -0.16,0.63 -0.06,0.2 -0.1,0.43 -0.15,0.63 -0.1,0.42 -0.4,1.79 -0.46,2.27l-0.06 0.34c-0.19,0.98 -0.45,3.25 -0.48,4.21 -0,0.08 -0.02,0.08 -0.02,0.17 -0,0.07 0,0.13 0,0.2l-0.02 0.38c0,0.26 -0.02,0.49 -0.02,0.77z"/>
   <path class="fil0" d="M17.01 4.22c0.33,0.18 0.48,0.25 0.8,0.48 0.12,0.08 0.24,0.18 0.35,0.28l0.08 0.07c0.42,0.39 0.79,0.88 0.99,1.42l0.17 0.47c0.03,-0.03 0.09,-0.14 0.12,-0.19 0.14,-0.28 0.44,-0.72 0.68,-0.9 0.57,-0.43 1.01,-0.14 1.17,0.56l0.06 0.4c0.1,0.78 -0.04,2.82 -0.19,3.47 -0.13,0.53 -0.25,0.97 -0.4,1.49l-0.11 0.35c-0.01,0.05 0.18,1.05 0.21,1.2l0.13 0.82c0.01,-0.01 0.02,-0.02 0.03,-0.03 0.02,-0.03 0,-0 0.02,-0.04 0.02,-0.03 0.03,-0.05 0.04,-0.08 0.03,-0.06 0.05,-0.1 0.08,-0.16l0.2 -0.41c0.02,-0.04 0.02,-0.05 0.04,-0.09 0.03,-0.05 0.05,-0.11 0.08,-0.17 0.27,-0.54 0.5,-1.23 0.64,-1.81l0.17 -0.81c0.06,-0.34 0.12,-0.72 0.16,-1.07 0.01,-0.06 0.02,-0.15 0.03,-0.22l0.06 -0.67c0,-0.04 -0,-0.08 0,-0.12 0,-0.06 0.01,-0.04 0.01,-0.11 0.01,-0.14 0.01,-0.29 0.02,-0.45l0 -1.23 -0.04 -0.49c-0.02,-0.11 -0.02,-0.21 -0.03,-0.32 -0.04,-0.31 -0.07,-0.61 -0.14,-0.91 -0.02,-0.1 -0.05,-0.18 -0.07,-0.28 -0.06,-0.24 -0.12,-0.43 -0.21,-0.66 -0.02,-0.05 -0.04,-0.08 -0.06,-0.12 -0.56,-1.24 -1.63,-1.39 -2.83,-0.96 -0.09,0.03 -0.17,0.06 -0.25,0.1 -0.64,0.29 -1.24,0.62 -1.79,1.04 -0.07,0.05 -0.16,0.1 -0.2,0.16z"/>
   <path class="fil0" d="M-0 8.03c0.01,0.3 0.09,1.17 0.12,1.4 0.03,0.27 0.06,0.51 0.11,0.77 0.05,0.27 0.09,0.49 0.14,0.75l0.17 0.7c0.23,0.78 0.4,1.14 0.71,1.82 0,0.01 0.02,0.04 0.02,0.04 0.01,0.02 0.01,-0 0.01,0.05l0.03 0c0,-0.23 0.43,-2.08 0.41,-2.17 -0.01,-0.06 -0.04,-0.11 -0.05,-0.17 -0.02,-0.06 -0.03,-0.11 -0.05,-0.17 -0.03,-0.11 -0.07,-0.24 -0.09,-0.35l-0.16 -0.7c-0.05,-0.29 -0.14,-1.4 -0.15,-1.6 -0,-0.08 -0.02,-0.12 -0.02,-0.2 -0,-0.07 0.01,-0.15 -0,-0.21 -0.05,-0.55 -0.01,-1.17 0.11,-1.7 0.06,-0.27 0.26,-0.66 0.59,-0.66 0.38,0 0.5,0.14 0.76,0.39 0.1,0.1 0.4,0.52 0.43,0.62 0.04,-0.03 0.15,-0.34 0.19,-0.42l0.22 -0.4c0.28,-0.42 0.65,-0.81 1.06,-1.1l0.38 -0.25c0.26,-0.16 0.36,-0.2 0.62,-0.33 -0.07,-0.1 -0.88,-0.61 -1.04,-0.69l-0.46 -0.25c-0.21,-0.1 -0.52,-0.24 -0.73,-0.31 -0.57,-0.19 -1.2,-0.3 -1.77,-0.07 -0.32,0.13 -0.57,0.35 -0.76,0.63 -0.1,0.14 -0.18,0.29 -0.25,0.45 -0.13,0.3 -0.27,0.73 -0.33,1.06l-0.14 0.92c-0.01,0.1 -0.02,0.23 -0.03,0.32l-0.03 0.67 0 1.15z"/>
   <path class="fil0" d="M7.23 3.54l0.61 -0.14c0.22,-0.04 0.42,-0.08 0.65,-0.12 0.33,-0.06 0.08,0.05 0.39,-0.55 0.12,-0.23 0.22,-0.37 0.4,-0.55 0.32,-0.34 0.72,-0.61 1.18,-0.72 0.35,-0.09 0.32,-0.07 0.67,-0.1 0.26,-0.02 0.7,0.09 0.95,0.18 0.33,0.12 0.65,0.36 0.91,0.61 0.25,0.25 0.45,0.61 0.57,0.94 0.07,0.18 -0,0.14 0.22,0.16 0.3,0.04 0.65,0.11 0.96,0.18 0.1,0.02 0.22,0.06 0.32,0.07 0,-0.1 -0.03,-0.29 -0.06,-0.39 -0.13,-0.59 -0.35,-1.06 -0.7,-1.54 -0.13,-0.18 -0.27,-0.33 -0.43,-0.48 -0.28,-0.28 -0.67,-0.56 -1.06,-0.73l-0.31 -0.13c-0.28,-0.11 -0.83,-0.23 -1.13,-0.23l-0.42 0c-0.11,0 -0.22,0.01 -0.41,0.04 -0.14,0.02 -0.26,0.05 -0.38,0.08 -0.5,0.14 -0.82,0.29 -1.24,0.57l-0.77 0.7c-0,0 -0,0.01 -0.01,0.01l-0.04 0.05c-0.18,0.23 -0.31,0.41 -0.45,0.69 -0.17,0.34 -0.28,0.62 -0.35,1.01 -0.02,0.1 -0.06,0.3 -0.06,0.4z"/>
   <polygon class="fil0" points="6.44,18.38 16.22,18.38 16.22,17.27 6.44,17.27 "/>
  </g>
 </g>
</svg>
