<?xml version="1.0" encoding="UTF-8"?>
<!DOCTYPE svg PUBLIC "-//W3C//DTD SVG 1.1//EN" "http://www.w3.org/Graphics/SVG/1.1/DTD/svg11.dtd">
<!-- Creator: CorelDRAW 2019 (64-Bit) -->
<svg xmlns="http://www.w3.org/2000/svg" xml:space="preserve" width="11.2746mm" height="7.7553mm" version="1.1" style="shape-rendering:geometricPrecision; text-rendering:geometricPrecision; image-rendering:optimizeQuality; fill-rule:evenodd; clip-rule:evenodd"
viewBox="0 0 57.92 39.84"
 xmlns:xlink="http://www.w3.org/1999/xlink">
 <defs>
  <style type="text/css">
   <![CDATA[
    .fil0 {fill:black}
   ]]>
  </style>
 </defs>
 <g id="Layer_x0020_1">
  <metadata id="CorelCorpID_0Corel-Layer"/>
  <path class="fil0" d="M8.63 29.74c-1.08,0 -1.88,-0.16 -2.74,-1.08 -1.08,-1.16 -1.29,-2.79 -0.59,-4.24 0.37,-0.76 0.99,-1.39 1.77,-1.71 1.11,-0.46 1.7,-0.39 2.8,0.04 0.76,0.29 1.43,1.03 1.77,1.77 0.89,1.93 0.06,4.04 -1.6,4.9 -0.35,0.18 -0.89,0.32 -1.4,0.32zm-8.63 7.79l0 -18.14c0,-0.22 0.32,-0.78 0.41,-0.97 0.34,-0.71 0.73,-0.99 1.37,-1.39 0.59,-0.37 1.21,-0.63 1.76,-0.92 1.47,-0.76 3.11,-1.47 4.59,-2.21l0.93 -0.44c0.33,-0.14 0.58,-0.26 0.9,-0.41 2.91,-1.4 6.32,-2.93 9.27,-4.21 0.2,-0.09 0.29,-0.14 0.49,-0.23l1.38 -0.59c6.06,-2.55 13.3,-5.57 19.74,-7.24 1.98,-0.51 3.17,-0.72 5.26,-0.78l1.88 0.1c3.53,0.3 6.82,1.7 8.66,4.84 0.6,1.03 1.22,2.61 1.22,4.23l0 5.36c0,0.76 -0.26,1.29 -0.67,1.81 -0.87,1.1 -1.25,1.16 -2.57,1.43l-21.58 4.01c-1.77,0.36 -3.6,0.61 -5.38,0.97 -1.79,0.37 -3.61,0.62 -5.43,0.98 -0.87,0.18 -1.79,0.32 -2.72,0.49l-2.68 0.47c0,0.88 0.02,2.46 -0.1,3.18 -0.12,0.74 -0.32,1.14 -0.56,1.74 -0.59,1.5 -1.31,2.05 -1.77,2.75l37.06 0c1.24,0 0.77,-0.21 2.02,1.08 0.48,0.5 4.42,4.27 4.42,4.95 0,0.55 -0.2,1.2 -0.78,1.33 -0.62,0.13 -4.5,0.07 -5.25,0.07 -1.23,0 -2.25,0.06 -3.49,0.06l-44.92 -0.06c-0.69,0 -1.19,-0.06 -1.83,-0.06 -1.28,0 -1.66,0.13 -1.66,-2.19zm28.6 -11.63c0,0.8 0.14,1.41 1.12,1.4 0.74,-0 1.34,0.06 2.13,0.06l18.03 0c0.15,0 0.83,-0.7 0.83,-0.85l0 -4.38c0,-0.2 -0.73,-0.85 -1.06,-0.85 -0.48,0 -0.94,0.12 -1.4,0.2 -5.86,1.01 -11.83,2.21 -17.65,3.19 -0.85,0.14 -1.99,0.27 -1.99,1.23z"/>
 </g>
</svg>
