<?xml version="1.0" encoding="UTF-8"?>
<!DOCTYPE svg PUBLIC "-//W3C//DTD SVG 1.1//EN" "http://www.w3.org/Graphics/SVG/1.1/DTD/svg11.dtd">
<!-- Creator: CorelDRAW 2019 (64-Bit) -->
<svg xmlns="http://www.w3.org/2000/svg" xml:space="preserve" width="10mm" height="9.74513mm" version="1.1" style="shape-rendering:geometricPrecision; text-rendering:geometricPrecision; image-rendering:optimizeQuality; fill-rule:evenodd; clip-rule:evenodd"
viewBox="0 0 36.29 35.37"
 xmlns:xlink="http://www.w3.org/1999/xlink">
 <defs>
  <style type="text/css">
   <![CDATA[
    .fil0 {fill:#151515}
    .fil1 {fill:#FEFEFE}
   ]]>
  </style>
 </defs>
 <g id="Layer_x0020_1">
  <metadata id="CorelCorpID_0Corel-Layer"/>
  <g id="_2407617788112">
   <path class="fil0" d="M15.43 24.9c1.79,-0.32 3.15,0.73 3.46,1.88 0.39,1.46 -0.83,2.67 -2.23,2.92 -1.74,0.31 -3.18,-0.69 -3.48,-1.87 -0.39,-1.49 0.83,-2.68 2.26,-2.94zm-2.73 -22.71l6.67 -0 0 19.69 -6.68 -0 0.01 -19.69zm-1.18 -1.54c-0.56,0.1 -0.58,0.36 -0.58,0.87l0 31.13c0,3.14 -0.52,2.7 3.21,2.7 0.82,0 6.11,0.05 6.45,-0.02 0.74,-0.14 0.51,-1.3 0.52,-2.23 0.05,-6.27 0,-12.69 0,-18.97 0,-3.6 0.01,-7.19 0,-10.79 -0.01,-3.12 0.54,-2.7 -3.18,-2.7 -0.85,0 -6.03,-0.05 -6.42,0.02z"/>
   <path class="fil0" d="M27.21 27.02c-0.18,-3.29 5.7,-3.44 5.84,-0.22 0.06,1.36 -1.21,2.48 -2.75,2.55 -1.67,0.08 -3.03,-1.01 -3.1,-2.33zm4.17 -25.62c-0.18,-1.18 -0,-1.55 -1.61,-1.36l-7.37 0.8c-1.65,0.16 -1.32,0.27 -0.91,2.96 0.97,6.33 1.14,7.07 2.47,16.23 0.05,0.34 2.18,14.72 2.31,14.98 0.25,0.47 0.83,0.33 1.41,0.27l8.14 -0.89c0.58,-0.15 0.48,-0.6 0.39,-1.13 -1.67,-10.6 -3.27,-21.24 -4.84,-31.84zm-8.27 0.94l6.54 -0.7 2.97 19.53 -6.62 0.7c-0.64,-4.78 -1.51,-9.82 -2.23,-14.64 -0.23,-1.51 -0.46,-3.02 -0.7,-4.54 -0,-0.02 -0.01,-0.13 -0.01,-0.15l0.05 -0.2z"/>
   <path class="fil0" d="M4.57 24.89c1.75,-0.29 3.14,0.75 3.43,1.94 0.36,1.47 -0.87,2.63 -2.3,2.88 -1.75,0.3 -3.16,-0.74 -3.45,-1.91 -0.37,-1.5 0.9,-2.67 2.32,-2.91zm-4.54 8.55c0,1.35 -0.27,1.91 0.97,1.91l7.92 -0c1.61,0 1.29,-0.14 1.29,-3.04l0 -30.79c0.01,-1.26 -0.87,-0.89 -3.73,-0.89 -0.81,-0 -5.83,-0.11 -6.19,0.12 -0.45,0.29 -0.26,1.91 -0.26,2.53 0,10.05 0,20.11 0,30.16zm1.75 -31.25l6.67 -0 -0 19.69 -6.68 -0 0.01 -19.69z"/>
   <path class="fil1" d="M18.4 21c-0.2,0.08 -4.34,0.08 -4.76,0.02l0.01 -0.2c0.37,-0.06 4.55,-0.06 4.75,0.01l-0 0.17zm-4.26 -1.02c-0.5,0.01 -0.44,-0.03 -0.5,-0.12 0.13,-0.13 -0.02,-0.09 0.23,-0.14l3.46 0c0.6,0 1.08,-0.1 1.08,0.13 -0,0.19 -0.28,0.12 -0.54,0.12l-3.73 0zm0 -1.05c-0.53,0.01 -0.46,-0.06 -0.5,-0.15 0.14,-0.09 -0.18,-0.12 0.57,-0.11l4.05 0.01c0.18,0.04 0.07,-0.04 0.15,0.1 -0.05,0.13 0.05,0.16 -0.55,0.15l-3.12 -0c-0.21,0 -0.41,0 -0.61,0.01zm4.27 -1.11c-0.22,0.09 -4.34,0.1 -4.76,0.02l0.01 -0.21c0.37,-0.06 4.55,-0.05 4.75,0.02l-0 0.17zm-4.27 -1.01c-0.52,0.01 -0.45,-0.04 -0.5,-0.12 0.12,-0.12 -0.02,-0.09 0.23,-0.13l3.46 0c0.58,0 1.08,-0.1 1.08,0.13 -0,0.19 -0.27,0.13 -0.54,0.12l-3.12 -0c-0.21,0 -0.41,0 -0.61,0zm0 -1.06c-0.53,0.01 -0.45,-0.05 -0.5,-0.14 0.14,-0.11 0.02,-0.12 0.57,-0.12 0.2,0 0.41,0 0.61,0l3.44 0.01c0.18,0.05 0.07,-0.04 0.15,0.1 -0.08,0.17 0.01,0.09 -0.21,0.14l-4.07 0zm0.61 -1.06c-0.26,0 -0.95,0.1 -1.11,-0.1 0.08,-0.22 0.13,-0.15 0.5,-0.15 0.83,0.02 3.96,-0.06 4.27,0.03l0 0.17c-0.29,0.12 -2.93,0.04 -3.65,0.04zm-2.06 7.19l6.68 0 -0 -19.69 -6.67 0 -0.01 19.69z"/>
   <path class="fil1" d="M2.74 20.95c0.08,-0.25 0.13,-0.15 1.04,-0.15 0.71,0 3.43,-0.06 3.72,0.03l0.01 0.17c-0.27,0.1 -3.41,0.03 -4.2,0.04 -0.05,0 -0.3,0 -0.34,0 -0.44,-0.06 -0.04,0 -0.23,-0.1zm0.17 -0.98c-0.2,-0.05 -0.08,0.04 -0.17,-0.1 0.12,-0.13 -0.02,-0.09 0.23,-0.14l3.46 0c0.77,0.02 1.08,-0.09 1.08,0.13 -0,0.22 0,0.09 -0.19,0.12l-4.41 -0.01zm0.33 -1.03c-0.55,0.01 -0.46,-0.06 -0.5,-0.15 0.16,-0.1 -0.22,-0.04 0.23,-0.11l4.07 -0c0.49,-0.01 0.42,0.02 0.48,0.11 -0.08,0.18 0.02,0.09 -0.21,0.14l-4.07 0zm4.27 -1.11c-0.22,0.09 -4.34,0.1 -4.77,0.02l0.01 -0.2c0.35,-0.07 4.55,-0.06 4.75,0.01l0 0.17zm-4.27 -1.01c-0.51,0.01 -0.44,-0.03 -0.5,-0.12 0.11,-0.11 -0.01,-0.14 0.57,-0.13l3.73 -0c0.52,-0.01 0.44,0.05 0.48,0.14 -0.08,0.15 -0,0.08 -0.21,0.12l-4.07 0zm0 -1.06c-0.56,0.01 -0.46,-0.06 -0.5,-0.14 0.19,-0.14 -0.18,-0.05 0.23,-0.12l4.07 -0c0.26,-0 0.47,-0.06 0.47,0.12 0,0.16 0.16,0.14 -0.54,0.13l-3.73 0zm4.27 -1.11c-0.23,0.09 -4.34,0.1 -4.77,0.02l0.01 -0.2c0.41,-0.07 4.49,-0.07 4.75,0.01l0 0.17zm-5.73 7.24l6.68 0 0 -19.69 -6.67 0 -0.01 19.69z"/>
   <path class="fil1" d="M26.82 20.89l-0.01 -0.17c0.1,-0.03 4.45,-0.59 4.72,-0.45 -0.01,0.29 0.01,0.18 -1.01,0.29 -0.61,0.07 -3.5,0.44 -3.69,0.34zm-0.18 -1.14c0.06,-0.12 0.02,-0.12 0.5,-0.16 0.85,-0.08 3.85,-0.46 4.21,-0.43l0.03 0.19c-0.27,0.13 -3.37,0.38 -4.17,0.49 -0.71,0.09 -0.5,0.04 -0.57,-0.09zm-0.16 -1.14c0.24,-0.09 3.39,-0.37 4.16,-0.46 0.67,-0.08 0.48,-0.06 0.57,0.07 -0.11,0.22 -0.52,0.17 -1.16,0.24l-3.2 0.35c-0.37,0.04 -0.36,0.09 -0.38,-0.2zm4.58 -1.42c-0.06,0.11 0.1,0.1 -0.51,0.15l-3.07 0.32c-0.22,0.02 -1.14,0.22 -1.15,-0.02 -0,-0.14 -0.16,-0.11 0.47,-0.16 0.2,-0.02 0.4,-0.04 0.6,-0.06l3.05 -0.32c0.03,-0 0.33,-0.04 0.33,-0.04 0.42,0.01 0.18,-0.08 0.27,0.13zm-4.91 -0.62c0.2,-0.19 4.59,-0.6 4.73,-0.51 0,0.26 -0.06,0.2 -0.44,0.23l-3.85 0.41c-0.35,0.04 -0.35,0.1 -0.44,-0.13zm-0.14 -0.97c0,-0.25 0.1,-0.18 0.45,-0.21l1.88 -0.2c0.41,-0.04 0.84,-0.09 1.24,-0.13 0.21,-0.02 0.41,-0.04 0.6,-0.07 0.03,-0 0.32,-0.03 0.33,-0.03 0.25,0.03 0.13,-0.06 0.23,0.14 -0.11,0.13 0.02,0.1 -0.59,0.15 -0.71,0.06 -3.95,0.51 -4.15,0.36zm-0.16 -1.19c0.32,-0.11 1.9,-0.23 2.37,-0.28 0.43,-0.04 2.11,-0.32 2.34,-0.17 -0.01,0.26 -0.06,0.19 -0.46,0.23 -0.23,0.02 -0.44,0.05 -0.67,0.07l-2.58 0.28c-0.22,0.02 -0.44,0.05 -0.66,0.08 -0.35,0.03 -0.33,0.06 -0.35,-0.2zm-2.79 -11.87c-0,0.02 0.01,0.13 0.01,0.15l0.33 2.13c0.12,0.8 0.24,1.61 0.36,2.41 0.73,4.83 1.59,9.86 2.23,14.64l6.62 -0.7 -2.97 -19.53 -6.54 0.7 -0.05 0.2z"/>
   <path class="fil0" d="M32.64 27.25c0.58,-2.76 -4.4,-3.48 -5,-0.77 -0.63,2.83 4.41,3.56 5,0.77z"/>
   <path class="fil0" d="M4.86 25.17c-3.34,0.31 -2.79,4.56 0.55,4.25 3.36,-0.32 2.74,-4.55 -0.55,-4.25z"/>
   <path class="fil0" d="M15.7 25.18c-1.32,0.15 -2.38,1.12 -2.21,2.38 0.15,1.1 1.38,2.02 2.87,1.85 3.33,-0.39 2.62,-4.61 -0.67,-4.23z"/>
   <path class="fil1" d="M15.7 16.09c3.28,-0.38 3.99,3.84 0.67,4.23 -1.49,0.17 -2.73,-0.75 -2.87,-1.85 -0.17,-1.27 0.89,-2.23 2.21,-2.38zm-0.28 -0.28c-1.42,0.25 -2.64,1.44 -2.26,2.94 0.3,1.17 1.74,2.18 3.48,1.87 1.4,-0.25 2.62,-1.46 2.23,-2.92 -0.31,-1.16 -1.67,-2.2 -3.46,-1.88z"/>
   <path class="fil1" d="M4.86 25.17c3.29,-0.31 3.91,3.93 0.55,4.25 -3.34,0.31 -3.89,-3.93 -0.55,-4.25zm-0.28 -0.28c-1.42,0.23 -2.69,1.4 -2.32,2.91 0.29,1.17 1.7,2.21 3.45,1.91 1.43,-0.25 2.67,-1.41 2.3,-2.88 -0.29,-1.18 -1.68,-2.22 -3.43,-1.94z"/>
   <path class="fil1" d="M32.64 27.25c-0.59,2.79 -5.63,2.06 -5,-0.77 0.6,-2.71 5.59,-1.99 5,0.77zm-5.43 -0.23c0.07,1.32 1.43,2.41 3.1,2.33 1.53,-0.07 2.81,-1.19 2.75,-2.55 -0.14,-3.22 -6.02,-3.07 -5.84,0.22z"/>
   <path class="fil0" d="M2.74 14.66c0.43,0.08 4.54,0.07 4.77,-0.02l-0 -0.17c-0.26,-0.08 -4.34,-0.08 -4.75,-0.01l-0.01 0.2z"/>
   <path class="fil0" d="M13.63 17.84c0.43,0.07 4.54,0.07 4.76,-0.02l0 -0.17c-0.2,-0.07 -4.38,-0.08 -4.75,-0.02l-0.01 0.21z"/>
   <path class="fil0" d="M2.74 17.84c0.42,0.08 4.54,0.07 4.77,-0.02l-0 -0.17c-0.2,-0.07 -4.4,-0.08 -4.75,-0.01l-0.01 0.2z"/>
   <path class="fil0" d="M13.64 21.02c0.42,0.06 4.56,0.06 4.76,-0.02l0 -0.17c-0.21,-0.07 -4.38,-0.08 -4.75,-0.01l-0.01 0.2z"/>
   <path class="fil0" d="M26.82 20.89c0.19,0.1 3.08,-0.27 3.69,-0.34 1.02,-0.11 1.01,-0 1.01,-0.29 -0.27,-0.14 -4.62,0.42 -4.72,0.45l0.01 0.17z"/>
   <path class="fil0" d="M25.85 14.41c0.02,0.26 -0,0.23 0.35,0.2 0.22,-0.02 0.44,-0.05 0.66,-0.08l2.58 -0.28c0.23,-0.03 0.44,-0.05 0.67,-0.07 0.4,-0.04 0.45,0.03 0.46,-0.23 -0.24,-0.15 -1.92,0.13 -2.34,0.17 -0.47,0.05 -2.05,0.17 -2.37,0.28z"/>
   <path class="fil0" d="M13.63 14.58c0.16,0.2 0.85,0.1 1.11,0.1 0.72,-0 3.37,0.07 3.65,-0.04l-0 -0.17c-0.31,-0.09 -3.43,-0.02 -4.27,-0.03 -0.37,-0.01 -0.42,-0.07 -0.5,0.15z"/>
   <path class="fil0" d="M26.65 19.75c0.07,0.13 -0.14,0.18 0.57,0.09 0.8,-0.1 3.89,-0.36 4.17,-0.49l-0.03 -0.19c-0.37,-0.03 -3.36,0.35 -4.21,0.43 -0.48,0.04 -0.44,0.04 -0.5,0.16z"/>
   <path class="fil0" d="M3.78 20.8c-0.92,0 -0.96,-0.11 -1.04,0.15 0.19,0.1 -0.21,0.04 0.23,0.1 0.03,0 0.29,0 0.34,0 0.79,-0.01 3.93,0.06 4.2,-0.04l-0.01 -0.17c-0.28,-0.09 -3.01,-0.03 -3.72,-0.03z"/>
   <path class="fil0" d="M26.16 16.57c0.09,0.23 0.09,0.17 0.44,0.13l3.85 -0.41c0.38,-0.03 0.45,0.03 0.44,-0.23 -0.14,-0.09 -4.53,0.32 -4.73,0.51z"/>
   <path class="fil0" d="M31.06 17.2c-0.09,-0.21 0.15,-0.13 -0.27,-0.13 -0,0 -0.3,0.04 -0.33,0.04l-3.05 0.32c-0.2,0.02 -0.4,0.04 -0.6,0.06 -0.63,0.05 -0.47,0.02 -0.47,0.16 0.01,0.24 0.93,0.04 1.15,0.02l3.07 -0.32c0.6,-0.05 0.44,-0.05 0.51,-0.15z"/>
   <path class="fil0" d="M2.74 15.61c0.04,0.08 -0.06,0.15 0.5,0.14l3.73 -0c0.7,0.01 0.54,0.03 0.54,-0.13 -0,-0.19 -0.2,-0.13 -0.47,-0.12l-4.07 0c-0.4,0.06 -0.04,-0.03 -0.23,0.12z"/>
   <path class="fil0" d="M26.49 18.62c0.02,0.29 0.01,0.24 0.38,0.2l3.2 -0.35c0.64,-0.07 1.05,-0.02 1.16,-0.24 -0.09,-0.13 0.1,-0.15 -0.57,-0.07 -0.77,0.1 -3.92,0.38 -4.16,0.46z"/>
   <path class="fil0" d="M26.01 15.61c0.2,0.15 3.44,-0.3 4.15,-0.36 0.61,-0.05 0.47,-0.02 0.59,-0.15 -0.1,-0.2 0.01,-0.11 -0.23,-0.14 -0,-0 -0.3,0.03 -0.33,0.03 -0.2,0.03 -0.39,0.05 -0.6,0.07 -0.4,0.04 -0.83,0.09 -1.24,0.13l-1.88 0.2c-0.34,0.03 -0.44,-0.03 -0.45,0.21z"/>
   <path class="fil0" d="M2.74 16.69c0.06,0.09 -0.01,0.13 0.5,0.12l4.07 -0c0.21,-0.04 0.13,0.03 0.21,-0.12 -0.04,-0.08 0.04,-0.14 -0.48,-0.14l-3.73 0c-0.58,-0.01 -0.46,0.03 -0.57,0.13z"/>
   <path class="fil0" d="M13.63 19.87c0.06,0.09 -0,0.12 0.5,0.12l3.73 -0c0.26,0 0.53,0.07 0.54,-0.12 0,-0.23 -0.48,-0.13 -1.08,-0.13l-3.46 -0c-0.25,0.05 -0.1,0.01 -0.23,0.14z"/>
   <path class="fil0" d="M13.63 16.69c0.05,0.09 -0.03,0.13 0.5,0.12 0.21,-0 0.41,-0 0.61,-0l3.12 0c0.26,0 0.54,0.07 0.54,-0.12 0,-0.22 -0.5,-0.13 -1.08,-0.13l-3.46 -0c-0.25,0.05 -0.1,0.01 -0.23,0.13z"/>
   <path class="fil0" d="M2.74 18.79c0.04,0.08 -0.05,0.15 0.5,0.15l4.07 -0c0.22,-0.05 0.13,0.04 0.21,-0.14 -0.05,-0.09 0.02,-0.11 -0.48,-0.11l-4.07 0c-0.45,0.07 -0.07,0 -0.23,0.11z"/>
   <path class="fil0" d="M13.63 15.61c0.05,0.09 -0.03,0.15 0.5,0.14l4.07 -0c0.22,-0.04 0.13,0.04 0.21,-0.14 -0.08,-0.14 0.03,-0.06 -0.15,-0.1l-3.44 -0.01c-0.2,0 -0.41,0 -0.61,-0 -0.56,-0.01 -0.43,0.01 -0.57,0.12z"/>
   <path class="fil0" d="M13.63 18.79c0.04,0.09 -0.03,0.15 0.5,0.15 0.21,-0 0.41,-0.01 0.61,-0.01l3.12 0c0.59,0.01 0.49,-0.02 0.55,-0.15 -0.09,-0.14 0.02,-0.05 -0.15,-0.1l-4.05 -0.01c-0.74,-0.01 -0.43,0.02 -0.57,0.11z"/>
   <path class="fil0" d="M2.74 19.87c0.09,0.14 -0.03,0.06 0.17,0.1l4.41 0.01c0.19,-0.03 0.19,0.1 0.19,-0.12 0,-0.22 -0.32,-0.11 -1.08,-0.13l-3.46 -0c-0.25,0.05 -0.1,0.01 -0.23,0.14z"/>
   <path class="fil0" d="M22.6 8.97c0.39,0.09 0.61,-0.16 0.4,-0.34 -0.23,-0.2 -0.57,-0.04 -0.4,0.34z"/>
  </g>
 </g>
</svg>
