<?xml version="1.0" encoding="UTF-8"?>
<!DOCTYPE svg PUBLIC "-//W3C//DTD SVG 1.1//EN" "http://www.w3.org/Graphics/SVG/1.1/DTD/svg11.dtd">
<!-- Creator: CorelDRAW 2019 (64-Bit) -->
<svg xmlns="http://www.w3.org/2000/svg" xml:space="preserve" width="8.3649mm" height="10.8728mm" version="1.1" style="shape-rendering:geometricPrecision; text-rendering:geometricPrecision; image-rendering:optimizeQuality; fill-rule:evenodd; clip-rule:evenodd"
viewBox="0 0 159.54 207.37"
 xmlns:xlink="http://www.w3.org/1999/xlink">
 <defs>
  <style type="text/css">
   <![CDATA[
    .fil0 {fill:black}
   ]]>
  </style>
 </defs>
 <g id="Layer_x0020_1">
  <metadata id="CorelCorpID_0Corel-Layer"/>
  <g id="_2407498372432">
   <path class="fil0" d="M70.2 167.57c2.25,-0.58 10.78,-0.24 13.76,-0.22 5.22,0.03 8.03,0.02 10.38,3.48 1.84,2.72 2.63,14.09 -0.51,17.61 -4,4.48 -10.27,2.75 -18.29,2.85 -11.94,0.15 -12.24,-4.55 -11.78,-16.15 0.17,-4.35 2.85,-6.65 6.44,-7.57zm48.01 -0.09c2.44,-0.53 10.77,-0.13 13.88,-0.13 5.25,0 7.91,0.22 10.18,3.67 1.73,2.63 1.46,8.78 1.25,12.52 -0.56,10.36 -13.14,7.68 -20.37,7.75 -11.78,0.12 -12.15,-4.79 -11.54,-16.41 0.2,-3.93 2.9,-6.6 6.6,-7.4zm-95.7 0.03c2.43,-0.53 10.73,-0.19 13.85,-0.17 5.45,0.04 7.88,0.06 10.25,3.61 1.78,2.67 1.41,8.81 1.29,12.61 -0.12,3.77 -2.94,6.85 -6.32,7.56 -2.98,0.62 -10.63,0.12 -14.16,0.18 -11.57,0.21 -12.09,-5.05 -11.47,-16.4 0.23,-4.13 3.06,-6.63 6.56,-7.4zm95.21 -39.74c2.68,-0.68 10.32,-0.32 13.58,-0.3 4.97,0.03 8.31,-0.08 10.69,3.32 2.11,3.02 1.69,8.3 1.55,12.54 -0.14,4.25 -2.74,7.05 -6.17,7.9 -2.31,0.57 -10.72,0.18 -13.7,0.19 -6.28,0.02 -12.19,-0.53 -12.08,-8.88 0.08,-6.01 -1.28,-12.89 6.13,-14.77zm-47.7 -0.07c2.58,-0.62 10.75,-0.24 13.95,-0.23 5.12,0.02 8.12,0.08 10.44,3.57 1.79,2.71 1.47,8.74 1.32,12.54 -0.4,10.36 -12.85,7.78 -20.17,7.84 -12.07,0.09 -12.19,-4.47 -11.79,-16 0.14,-4.06 2.75,-6.88 6.26,-7.72zm-47.7 -0.05c2.73,-0.57 10.72,-0.21 14.04,-0.18 3.76,0.03 7.54,-0.5 10.29,3.71 1.75,2.67 1.4,9.05 1.23,12.66 -0.47,10.15 -13.4,7.51 -20.47,7.59 -11.53,0.12 -12.05,-4.57 -11.47,-16.26 0.19,-3.8 2.92,-6.8 6.37,-7.52zm96.08 -39.94c2.96,-0.5 10.47,-0.05 13.95,-0.06 5.29,-0.02 7.82,0.4 10.01,3.85 1.61,2.53 1.39,8.9 1.15,12.58 -0.66,10.06 -13.32,7.46 -20.63,7.51 -5.3,0.04 -8.03,-0.51 -10.15,-3.88 -1.63,-2.6 -1.38,-9.19 -1.11,-12.78 0.28,-3.8 3.21,-6.62 6.77,-7.22zm-48.04 0.09c2.38,-0.53 10.8,-0.15 13.86,-0.14 5.36,0.02 7.94,0.18 10.2,3.65 1.84,2.83 1.44,8.59 1.29,12.56 -0.14,3.68 -2.88,6.87 -6.3,7.56 -3.02,0.61 -10.61,0.14 -14.14,0.18 -11.49,0.14 -12.24,-4.75 -11.5,-16.4 0.26,-4.09 2.96,-6.59 6.58,-7.4zm-47.86 0.01c1.95,-0.4 17.84,-0.6 20.34,0.38 1.79,0.71 2.94,1.86 3.75,3.08 1.85,2.82 1.42,8.7 1.3,12.6 -0.12,3.98 -3.05,6.85 -6.33,7.55 -2.84,0.6 -10.75,0.14 -14.15,0.18 -11.61,0.15 -12.14,-5.22 -11.46,-16.36 0.25,-4 2.92,-6.69 6.55,-7.43zm0.07 -71.72c2.25,-0.55 8.37,-0.21 11.15,-0.21 13.43,0.02 100.66,-0.35 103.34,0.17 2.85,0.54 5.31,2.85 6.08,5.48 0.84,2.86 0.35,29.39 0.39,33.69 0.06,6.32 1.43,14.7 -6.4,16.38 -1.76,0.38 -42.61,0.1 -45.81,0.13l-57.59 0.02c-6.87,0.02 -15.22,1.66 -17.43,-5.66 -0.67,-2.23 -0.37,-30.24 -0.35,-33.74 0.05,-8.06 -1.29,-14.32 6.63,-16.25zm114.57 -16.09l-114.81 0c-0.94,0.37 -4.01,0.39 -7.7,1.91 -2.29,0.94 -4.39,2.34 -6.01,3.74 -10.13,8.77 -8.4,18.07 -8.52,30.12 -0.06,6.37 -0.06,12.83 -0,19.2 0.22,25.73 0.03,51.58 -0.01,77.32 -0.02,12.89 0.02,25.77 0,38.66 -0.01,5.6 -0.49,13.63 0.84,18.59 1.53,5.73 4.31,8.85 7.42,11.8 8.28,7.84 21.34,5.8 32.75,5.8 12.88,0 25.79,0.13 38.66,0 12.86,-0.12 25.81,0.22 38.66,0.01 9.03,-0.15 19.72,1.3 26.97,-2.12 6.67,-3.15 11.31,-8.53 13.24,-15.72 1.25,-4.64 0.86,-13.11 0.82,-18.35 -0.1,-12.86 -0.06,-25.8 0,-38.66 0.11,-25.71 -0.46,-51.66 -0.02,-77.32 0.11,-6.37 0.1,-13.09 -0,-19.46 -0.2,-11.82 1.65,-21.09 -8.66,-30 -5.92,-5.12 -12.53,-5.05 -13.62,-5.51z"/>
   <path class="fil0" d="M111.61 31.85l15.97 0.04 0.01 23.94 -15.98 -0.02 0 -23.96zm-0.92 -7.8c-2.63,0.33 -4.24,1.45 -5.61,3.38 -1.68,2.36 -1.38,4.24 -1.4,7.55 -0.05,5.95 0,11.92 -0.02,17.88 -0.01,3.1 -0.05,5.29 1.49,7.48 3.18,4.54 8.77,3.38 14.59,3.37 5.85,-0.01 11.14,1.17 14.42,-3.55 1.47,-2.11 1.36,-4.62 1.35,-7.57 -0.02,-5.96 0.02,-11.92 -0.02,-17.88 -0.03,-3.27 0.14,-5.1 -1.46,-7.44 -3.04,-4.47 -9.04,-3.32 -14.55,-3.33 -2.7,-0.01 -6.27,-0.21 -8.78,0.1z"/>
  </g>
 </g>
</svg>
