<?xml version="1.0" encoding="UTF-8"?>
<!DOCTYPE svg PUBLIC "-//W3C//DTD SVG 1.1//EN" "http://www.w3.org/Graphics/SVG/1.1/DTD/svg11.dtd">
<!-- Creator: CorelDRAW 2019 (64-Bit) -->
<svg xmlns="http://www.w3.org/2000/svg" xml:space="preserve" width="9.0165mm" height="7.4065mm" version="1.1" style="shape-rendering:geometricPrecision; text-rendering:geometricPrecision; image-rendering:optimizeQuality; fill-rule:evenodd; clip-rule:evenodd"
viewBox="0 0 176.59 145.06"
 xmlns:xlink="http://www.w3.org/1999/xlink">
 <defs>
  <style type="text/css">
   <![CDATA[
    .fil0 {fill:black}
    .fil1 {fill:#2C2C2C}
   ]]>
  </style>
 </defs>
 <g id="Layer_x0020_1">
  <metadata id="CorelCorpID_0Corel-Layer"/>
  <g id="_2443813630048">
   <path class="fil0" d="M166.3 108.5c0.4,0.52 2.66,1.92 -0.39,3.94 1.03,1.24 0.71,2.59 -1.65,-0.42 -1.27,-1.62 -1.22,-3.48 2.04,-3.53zm-126.94 -69.26l67.71 0.02 -0.31 -5.54c-1.3,-0.41 -31.72,-0.29 -35.84,-0.32 -11.98,-0.08 -24.01,-0.19 -35.99,-0.16 -0.9,0.69 -1.93,4.87 -2.36,6.1 -0.74,2.15 -1.4,4.17 -2.12,6.27l-27.51 81.44c-0.61,1.81 -1.78,4.69 -2.1,6.47l175.74 0c-0.62,-2.85 -2.07,-6.28 -3.01,-9.13 -0.97,-2.91 -1.93,-5.79 -2.92,-8.64l-11.81 -34.78c-1.96,-5.72 -4.12,-11.59 -5.88,-17.26l-5.08 5.19c-1.03,1.16 -1.77,1.19 -1.2,3.26l5.33 20.57c1.22,4.91 7.8,29.03 8.45,32.89l-144.19 -0.01 23.08 -86.36z"/>
   <path class="fil0" d="M158.25 12.91l-1.13 -0.2c-0.34,0.53 -0.12,0.9 -0.47,1.59 -0.47,0.92 -0.27,0.4 -1.2,1.01 0.03,-0.01 -0.05,-0.76 0.46,0.37 0.37,0.83 0.15,0.15 0.27,1.11 -1.86,-0.17 -0.52,0.17 -1.71,-1.01 -0.44,1.12 -0.97,2.13 -2.88,1.54l-0.22 2.13 -0.14 1.12c-2.76,1.36 -24.15,17.32 -28.23,20.73l-6.65 5.68c-0.54,0.46 -1.03,0.99 -1.53,1.41 -4.11,3.46 -14.79,13.85 -15.98,18.02l11.75 12.77c1.35,1.63 2.91,2.92 3.9,4.51 1.93,-0.51 13.84,-11.14 16.25,-12.98l10.32 -9.15c0.9,-0.84 1.6,-1.65 2.48,-2.45 0.92,-0.84 1.65,-1.49 2.56,-2.36l9.59 -9.88c0.4,-0.48 0.56,-0.77 1,-1.23 0.6,-0.62 0.73,-0.67 1.19,-1.27 5.63,-7.31 8.94,-9.73 14.13,-20.13 1.6,-3.21 5.02,-12.7 0.95,-14.59 -4.79,-2.22 -11.11,4.7 -13.54,5.15 -0.42,-0.5 -0.85,-1.03 -1.17,-1.9z"/>
   <polygon class="fil0" points="0.11,145.06 176.53,145.03 176.5,138.43 -0,138.45 "/>
   <path class="fil0" d="M83.49 106.29c2.06,-0.5 12.06,-7.69 14.04,-9.15l13.23 -9.84c-2.39,-3.04 -5.33,-5.45 -7.67,-8.01 -1.32,-1.44 -2.43,-2.69 -3.78,-4.11 -0.68,-0.71 -1.37,-1.19 -2.05,-1.89 -0.67,-0.69 -1.14,-1.48 -1.95,-1.95 -4.53,5.39 -8.97,10.93 -12.77,16.97 -1.09,1.74 -6.32,10.55 -4.99,12.8 1.01,1.7 4.19,4.11 5.94,5.17z"/>
   <path class="fil0" d="M148.31 16.48c0.57,-0.42 -0.81,-0.49 0.87,-0.35 -0.24,-0.2 -0.38,-0.33 -0.55,-0.6 -0.67,-1.03 -0.36,0.2 -0.48,-1.35 1.59,-0.01 0.7,-0.27 2.12,1.43 0.48,0.57 0.29,0.05 0.37,0.49 -0.17,-1.61 0.66,-2.2 2.11,-2.34 0.49,0.92 0.18,1.55 0.12,2.74l1.28 -1.17c-1.89,-1.41 -1.05,-4.09 1.97,-3.63 -0.23,-2.05 1.1,-3.16 2.95,-2.17l2.78 -1.38c0.86,-0.42 1.97,-0.94 2.69,-1.38 -0.54,-1.27 -1.54,-1.16 -0.89,-3.16 0.62,-1.27 3.03,-1.67 3.58,0.22 0.27,0.93 -0.05,0.89 -0.02,1.54 0.9,-0.11 2.4,-0.65 3.14,-1.27 1.41,-5.43 -4.17,-4.37 -7.15,-2.96 -9.04,4.3 -20.2,11.27 -27.6,17.26l-5.18 4.42c-1.86,1.45 -6.12,5.91 -8.12,7.9l-2.92 3.48c-1.18,1.41 -5.32,5.78 -4.75,7.9 2.98,0.86 7.81,-4.43 9.01,-5.61 1.15,-1.12 2.78,-2.34 3.99,-3.42l20.69 -16.61z"/>
   <path class="fil0" d="M49.2 48.74c11.43,-0.53 28.92,0.01 41.44,-0.02l13.76 -0.21 0.13 -2.67 -55.24 -0.09 -0.09 2.98z"/>
   <polygon class="fil0" points="47.9,55.51 47.9,56.25 47.91,57.26 98.19,57.26 98.19,54.35 47.92,54.28 "/>
   <polygon class="fil0" points="90.67,114.34 139.33,114.29 139.37,111.39 90.6,111.39 "/>
   <polygon class="fil0" points="46.02,66.72 91.75,66.74 91.87,63.76 46.14,63.77 "/>
   <polygon class="fil0" points="44.15,77.78 83.58,77.82 83.65,74.86 44.2,74.86 "/>
   <polygon class="fil0" points="41.58,88.1 76.38,88.1 76.32,85.13 41.61,85.14 "/>
   <path class="fil0" d="M39.02 100.94c5.16,-0.1 10.48,-0.07 15.63,-0.05 3.03,0.01 13.16,0.44 15.41,-0.1l-0.01 -2.83 -30.98 -0.01 -0.04 2.99z"/>
   <polygon class="fil0" points="113.06,100.92 142.21,100.93 142.16,97.95 113.1,97.97 "/>
   <path class="fil0" d="M67.22 116.34c1.76,-0.67 5.16,-2.99 7,-4.06l6.71 -4.03c-0.53,-0.5 -2.41,-1.18 -3.6,-2.46 -0.83,-0.9 -1.78,-2.22 -2.11,-3.74l-9.48 12.37c0.45,1.02 0.8,1.16 1.49,1.93z"/>
   <polygon class="fil0" points="36.23,114.33 61.82,114.34 61.83,111.38 36.2,111.42 "/>
   <polygon class="fil0" points="124.47,88.09 142.51,88.11 142.45,85.12 124.49,85.17 "/>
   <path class="fil1" d="M148.31 16.48c1.07,0.15 1.39,0.53 1.9,1.15 0.42,0.52 0.82,1.43 1.16,1.82l0.22 -2.13c1.91,0.59 2.44,-0.42 2.88,-1.54 1.19,1.18 -0.16,0.83 1.71,1.01 -0.13,-0.96 0.1,-0.28 -0.27,-1.11 -0.51,-1.13 -0.42,-0.37 -0.46,-0.37 0.93,-0.61 0.73,-0.09 1.2,-1.01 0.35,-0.69 0.13,-1.06 0.47,-1.59l1.13 0.2c-0.09,-1.45 0.17,-2.36 0.82,-3.37 -1.85,-0.99 -3.18,0.11 -2.95,2.17 -3.02,-0.46 -3.86,2.22 -1.97,3.63l-1.28 1.17c0.05,-1.19 0.37,-1.81 -0.12,-2.74 -1.45,0.14 -2.28,0.73 -2.11,2.34 -0.08,-0.45 0.11,0.08 -0.37,-0.49 -1.43,-1.7 -0.53,-1.44 -2.12,-1.43 0.13,1.55 -0.19,0.32 0.48,1.35 0.18,0.27 0.31,0.4 0.55,0.6 -1.68,-0.13 -0.31,-0.06 -0.87,0.35z"/>
   <path class="fil1" d="M166.3 108.5c-3.25,0.05 -3.31,1.9 -2.04,3.53 2.36,3.01 2.68,1.65 1.65,0.42 3.05,-2.03 0.79,-3.42 0.39,-3.94z"/>
   <path class="fil1" d="M164.54 6.77c0.89,-0.35 2.09,-0.71 2.68,-1.41 -0.03,-0.64 0.29,-0.61 0.02,-1.54 -0.55,-1.89 -2.97,-1.48 -3.58,-0.22 -0.65,2 0.35,1.9 0.89,3.16z"/>
  </g>
 </g>
</svg>
