<?xml version="1.0" encoding="UTF-8"?>
<!DOCTYPE svg PUBLIC "-//W3C//DTD SVG 1.1//EN" "http://www.w3.org/Graphics/SVG/1.1/DTD/svg11.dtd">
<!-- Creator: CorelDRAW 2019 (64-Bit) -->
<svg xmlns="http://www.w3.org/2000/svg" xml:space="preserve" width="8mm" height="8.00908mm" version="1.1" style="shape-rendering:geometricPrecision; text-rendering:geometricPrecision; image-rendering:optimizeQuality; fill-rule:evenodd; clip-rule:evenodd"
viewBox="0 0 22.82 22.85"
 xmlns:xlink="http://www.w3.org/1999/xlink">
 <defs>
  <style type="text/css">
   <![CDATA[
    .fil0 {fill:black}
   ]]>
  </style>
 </defs>
 <g id="Layer_x0020_1">
  <metadata id="CorelCorpID_0Corel-Layer"/>
  <g id="_2407464267232">
   <path class="fil0" d="M18.25 0.02c0.24,0.28 0.34,0.69 0.34,1.06 0.53,0 1.06,0 1.59,0 1.85,0 1.57,-0.24 1.57,1.57l0 17.28c0,1.48 0.21,1.83 -0.53,1.83 -0.25,-0 -0.51,-0 -0.76,-0 -6.27,0 -12.59,-0.03 -18.86,0 -0.26,0 -0.47,-0.01 -0.52,-0.26l-0.01 -2.33c0,-0.72 0.03,-2.55 -0.01,-3.14 -0.56,0.09 -0.55,0.05 -1.05,-0.09 -0.04,1.66 0,3.62 -0,5.34 -0,0.63 0.21,0.97 0.54,1.24 0.41,0.34 0.89,0.29 1.5,0.29l17.81 0c1.16,0 2.27,0.25 2.8,-0.77 0.22,-0.43 0.15,-1.12 0.15,-1.64l0 -17.81c0,-0.46 0.06,-1.3 -0.09,-1.69 -0.15,-0.4 -0.49,-0.72 -0.94,-0.84 -0.32,-0.09 -3,-0.05 -3.53,-0.04z"/>
   <path class="fil0" d="M10.17 16.97c-0.15,-0.07 -0.51,-0.49 -0.72,-0.62 0.05,-0.13 0.43,-0.52 0.55,-0.66 0.05,-0.06 0.09,-0.09 0.14,-0.14l1.85 -2.08c0.05,-0.06 0.08,-0.08 0.14,-0.14l5.83 -6.5c0.05,-0.06 0.08,-0.08 0.14,-0.14l0.44 -0.48 0.72 0.65c-0.09,0.12 -0.16,0.18 -0.27,0.31l-1.55 1.73c-0.05,0.07 -0.09,0.09 -0.15,0.16l-0.29 0.33c-0.51,0.61 -1.3,1.42 -1.83,2.05l-0.44 0.49c-0.2,0.25 -0.48,0.53 -0.7,0.77 -0.06,0.06 -0.08,0.11 -0.14,0.17 -0.34,0.34 -1.35,1.52 -1.71,1.91l-2.01 2.21zm9.04 -11.75c0.11,-0.15 0.58,0.4 0.78,0.57 0.09,0.07 0.2,0.11 0.16,0.28 -0.16,0.07 -0.29,-0.13 -0.54,-0.35 -0.09,-0.08 -0.15,-0.15 -0.25,-0.23 -0.06,-0.05 -0.24,-0.15 -0.15,-0.27zm2 1c0.15,-0.87 -0.53,-1.19 -0.92,-1.6 -0.52,-0.54 -1.25,-0.72 -1.77,-0.21 -0.34,0.33 -0.23,0.34 -0.38,0.64 -0.05,0.1 -0.81,0.9 -0.96,1.08l-2.89 3.22c-0.16,0.16 -0.32,0.39 -0.48,0.54 -0.17,0.17 -0.32,0.38 -0.48,0.54l-2.9 3.23c-0.39,0.46 -1.12,1.2 -1.45,1.61 -0.4,0.5 -0.57,0.52 -0.92,1.12l-1.85 3.24c-0.31,0.56 -0.72,1.03 -0.41,1.41 0.4,0.49 0.95,-0.08 1.33,-0.36 0.07,-0.05 3.41,-2.46 3.51,-2.6l3.62 -4.05c0.08,-0.1 0.16,-0.17 0.24,-0.27 0.22,-0.28 0.71,-0.77 0.96,-1.07l1.44 -1.61c0.17,-0.17 0.3,-0.35 0.48,-0.54l2.88 -3.22c0.32,-0.38 0.35,-0.24 0.56,-0.45 0.16,-0.16 0.31,-0.34 0.37,-0.65z"/>
   <path class="fil0" d="M14.17 7.09c0.11,-0.22 -0.02,-0.43 -0.15,-0.51 -0.17,-0.11 -0.39,-0.02 -0.58,0.02 -0.38,0.1 -0.74,0.19 -1.12,0.29 -2.46,0.66 -3.78,1.12 -5.29,3.1 -0.06,0.08 -0.1,0.13 -0.16,0.21 -0.2,0.27 -0.18,0.16 -0.79,0.25 -1.72,0.28 -2.57,0.76 -3.79,1.83l-0.35 0.36c-0.11,0.11 -0.24,0.22 -0.34,0.34l-0.34 0.37c-0.18,0.2 -0.92,1.02 -0.96,1.13 -0.07,0.22 0.04,0.41 0.19,0.49 0.22,0.12 0.38,-0 0.54,-0.1 0.86,-0.54 1.89,-1 2.86,-1.35 0.99,-0.35 2.45,-0.68 3.55,-0.67 0.44,0.01 0.96,0.22 1.11,-0.16 0.07,-0.17 0.07,-0.35 0.16,-0.55 0.36,-0.87 1.51,-2.06 2.26,-2.66 0.94,-0.75 1.33,-1.08 2.41,-1.81 0.19,-0.13 0.71,-0.41 0.8,-0.59z"/>
   <path class="fil0" d="M0.02 13.13c0.08,-0.04 0.36,-0.38 0.44,-0.47 0.66,-0.77 0.62,-0.38 0.62,-1.15l0 -7.89c0,-2.84 -0.19,-2.53 0.95,-2.53 3.49,0 7.06,-0.02 10.55,0 0.3,0 0.39,-0.14 0.61,-0.28 0.42,-0.25 0.73,-0.39 1.19,-0.56 0.2,-0.07 0.47,-0.14 0.65,-0.22 -0.44,-0.06 -1.29,-0.01 -1.78,-0.01 -2.92,0 -5.84,0 -8.77,0 -0.56,0 -3.11,-0.05 -3.46,0.05 -1.22,0.35 -1.01,1.58 -1.01,2.53 0,1.17 0,2.34 0,3.51 0,2.33 -0.04,4.7 0,7.02z"/>
   <path class="fil0" d="M17.51 1.1c0.1,-0.29 -0.15,-0.56 -0.46,-0.51 -0.38,0.06 -2,0.55 -2.33,0.67 -1.86,0.69 -2.37,1.89 -2.54,1.98 -0.3,0.16 -1.46,-0.11 -3.13,1.39 -0.25,0.23 -1.35,1.4 -1.39,1.58 -0.07,0.3 0.18,0.56 0.48,0.49 0.11,-0.03 2.31,-1.5 4.56,-1.49 0.34,0 0.63,0.15 0.84,-0.08 0.14,-0.15 0.05,-0.29 0.3,-0.72 0.14,-0.24 0.26,-0.38 0.41,-0.58 0.26,-0.35 0.69,-0.7 1.01,-1 0.47,-0.43 1.19,-0.91 1.72,-1.28 0.19,-0.14 0.47,-0.24 0.54,-0.46z"/>
  </g>
 </g>
</svg>
