<?xml version="1.0" encoding="UTF-8"?>
<!DOCTYPE svg PUBLIC "-//W3C//DTD SVG 1.1//EN" "http://www.w3.org/Graphics/SVG/1.1/DTD/svg11.dtd">
<!-- Creator: CorelDRAW 2019 (64-Bit) -->
<svg xmlns="http://www.w3.org/2000/svg" xml:space="preserve" width="9.5418mm" height="12.4155mm" version="1.1" style="shape-rendering:geometricPrecision; text-rendering:geometricPrecision; image-rendering:optimizeQuality; fill-rule:evenodd; clip-rule:evenodd"
viewBox="0 0 40.01 52.05"
 xmlns:xlink="http://www.w3.org/1999/xlink">
 <defs>
  <style type="text/css">
   <![CDATA[
    .fil0 {fill:#2B2A29}
   ]]>
  </style>
 </defs>
 <g id="Layer_x0020_1">
  <metadata id="CorelCorpID_0Corel-Layer"/>
  <g id="_2407503569712">
   <path class="fil0" d="M18.89 41.47c1.7,-0.41 3.1,0.73 3.41,2 0.41,1.63 -0.77,2.98 -2.07,3.27 -3.61,0.83 -5.09,-4.38 -1.34,-5.28zm8.12 -5.8c2.15,-0.39 3.82,1.13 4.11,2.76 0.37,2.03 -1.14,3.66 -2.83,3.96 -2.19,0.39 -3.9,-1.1 -4.2,-2.82 -0.36,-2.09 1.17,-3.6 2.92,-3.91zm4.18 -9.33c2.46,-0.37 4.41,1.33 4.73,3.31 0.39,2.39 -1.41,4.25 -3.46,4.57 -2.45,0.37 -4.44,-1.36 -4.74,-3.32 -0.37,-2.4 1.4,-4.25 3.48,-4.56zm-2.49 -8.61c1.96,-0.48 3.57,0.8 3.95,2.3 0.48,1.88 -0.86,3.39 -2.31,3.77 -4.22,1.12 -5.96,-5.02 -1.65,-6.07zm-0.83 -3.79c-0.22,0.63 -2.89,4.71 -3.29,5.33 -1.18,1.82 -3.97,5.78 -5.37,7.6 -0.65,0.84 -1.16,1.62 -1.79,2.47 -3.57,4.8 -2.6,2.83 -2.11,5.42 0.49,2.57 -0.27,5.06 -1.61,6.62 -1.2,1.41 -3.18,2.47 -3.77,4.85 -0.62,2.52 1.45,4.48 3.14,5.18 2.46,1.02 4.97,0.63 7.54,0.05 8.64,-1.96 16.11,-8.49 18.5,-16.14 1.52,-4.85 1.15,-9.97 -1.3,-13.96 -0.4,-0.66 -1.33,-1.99 -1.85,-2.5l-1.67 -1.59c-1.12,-0.95 -4.7,-3.13 -6.43,-3.33z"/>
   <path class="fil0" d="M0.43 46.27c0.37,-1.65 7.69,-12.93 8.68,-14.39 1.26,-1.86 8.43,-11.88 9.76,-13.35l0.48 0.31 -2.47 3.31c-4.53,6.13 -7.65,10.62 -11.96,17.06 -1.42,2.13 -3.23,5.28 -4.5,7.07zm18.05 -27.97c-0.11,0.15 -0.22,0.3 -0.33,0.44l-4.55 6.12c-3.25,4.29 -7.09,10.04 -9.83,14.56 -0.76,1.25 -1.5,2.51 -2.23,3.82 -0.39,0.7 -0.71,1.27 -1.09,1.98 -0.31,0.58 -0.91,1.65 0.17,1.87 0.72,0.14 1.42,-0.93 1.75,-1.27l5.09 -5.61c1.58,-1.96 3.07,-3.64 4.78,-5.81 0.66,-0.84 9.66,-12.69 10.27,-14.04 -1.1,-0.68 -2.16,-1.59 -3.66,-2.45l-0.38 0.4z"/>
   <path class="fil0" d="M8.84 21.01c-0.32,-1.58 0.8,-2.78 2.08,-3.01 1.58,-0.29 2.89,0.8 3.13,2.02 0.3,1.56 -0.83,2.77 -2.11,2.99 -1.63,0.28 -2.85,-0.78 -3.1,-2zm1.04 7.21l5.6 -7.69c1.67,-2.18 3.33,-4.43 5.09,-6.52 0.29,-0.34 0.54,-0.6 0.77,-0.97 -6.54,0.24 -11.1,2.33 -15.13,5.23 -4.16,2.98 -5.17,8.9 1.47,9.53 1.03,0.1 1.31,0.21 2.2,0.42z"/>
   <path class="fil0" d="M25.45 10.02c0.27,-2.91 4.59,-8.84 8.38,-9.33 -0.27,0.25 -0.96,0.56 -1.35,0.84 -1.57,1.14 -1.03,0.86 -1.77,1.49 -1.9,1.6 -3.78,4.93 -3.8,7.83 -0.09,-0.04 -1.38,-0.76 -1.46,-0.83zm-0.39 0.41c1.27,0.32 2.1,1.27 2.8,1.79 1.16,-0.44 2.43,-1.49 2.98,-2.27 1.77,-2.49 0.54,-6.74 4.15,-9.03 0.42,-0.27 1.61,-0.71 1.8,-0.86 -2.82,-0.29 -5.29,0.72 -7.17,2.5 -0.27,0.25 -0.49,0.49 -0.74,0.72 -1.08,0.97 -3.85,4.92 -3.81,7.15z"/>
   <path class="fil0" d="M19.88 17.23c0.7,-1.09 4.39,-5.19 4.62,-5.57 0.32,0.06 0.45,0.07 0.61,0.28 -0.19,0.25 -0.48,0.55 -0.62,0.71l-4.14 4.9c-0.31,-0.11 -0.32,-0.14 -0.46,-0.32zm-0.66 0.19l3.66 2.42c0.62,-0.65 3.29,-5.07 3.93,-6.13 0.5,-0.82 0.54,-1 -0.81,-1.9 -0.28,-0.19 -0.72,-0.47 -1.07,-0.58 -0.46,-0.14 -0.41,-0.1 -0.65,0.12l-5.06 6.07z"/>
   <path class="fil0" d="M0.43 46.27c1.27,-1.8 3.08,-4.95 4.5,-7.07 4.31,-6.43 7.43,-10.93 11.96,-17.06l2.47 -3.31 -0.48 -0.31c-1.33,1.48 -8.5,11.49 -9.76,13.35 -0.99,1.46 -8.31,12.73 -8.68,14.39z"/>
   <path class="fil0" d="M25.45 10.02c0.08,0.07 1.37,0.79 1.46,0.83 0.02,-2.91 1.9,-6.24 3.8,-7.83 0.74,-0.63 0.2,-0.35 1.77,-1.49 0.39,-0.28 1.08,-0.59 1.35,-0.84 -3.79,0.49 -8.11,6.42 -8.38,9.33z"/>
   <path class="fil0" d="M19.88 17.23c0.14,0.17 0.16,0.21 0.46,0.32l4.14 -4.9c0.15,-0.15 0.44,-0.46 0.62,-0.71 -0.17,-0.21 -0.29,-0.22 -0.61,-0.28 -0.23,0.38 -3.92,4.48 -4.62,5.57z"/>
  </g>
 </g>
</svg>
