<?xml version="1.0" encoding="UTF-8"?>
<!DOCTYPE svg PUBLIC "-//W3C//DTD SVG 1.1//EN" "http://www.w3.org/Graphics/SVG/1.1/DTD/svg11.dtd">
<!-- Creator: CorelDRAW 2019 (64-Bit) -->
<svg xmlns="http://www.w3.org/2000/svg" xml:space="preserve" width="8.5265mm" height="8.5272mm" version="1.1" style="shape-rendering:geometricPrecision; text-rendering:geometricPrecision; image-rendering:optimizeQuality; fill-rule:evenodd; clip-rule:evenodd"
viewBox="0 0 178.04 178.05"
 xmlns:xlink="http://www.w3.org/1999/xlink">
 <defs>
  <style type="text/css">
   <![CDATA[
    .fil0 {fill:#000100}
   ]]>
  </style>
 </defs>
 <g id="Layer_x0020_1">
  <metadata id="CorelCorpID_0Corel-Layer"/>
  <path class="fil0" d="M21.72 93.73l-1.34 5.18 -1.33 4.71 -2.67 10.17 -13.62 50.51c-0.35,1.26 -0.6,3.41 -1.39,4.3 0.03,1.46 -0.63,3.15 -1.01,4.55 -0.87,3.24 -0.09,3.48 1.85,4.92l1.91 0 52.76 -14.21 10.12 -2.63c1.22,-0.71 13.45,-3.65 15.95,-4.32 7.11,-1.91 5.61,-1.36 12.39,-8.12 3.16,-3.15 6.81,-6.83 10.21,-10.32l10.35 -10.12c0.76,-1.15 19.26,-19.11 21.62,-21.46l4.23 -4.43c0.81,-0.81 7.71,-8.07 8.92,-8.44 0.2,-0.92 1.58,-1.92 2.28,-2.61l5.11 -5.03c0.47,-0.47 0.78,-0.76 1.25,-1.23 0.23,-0.23 0.37,-0.42 0.61,-0.63l0.94 -0.55c0.02,-0.06 0.06,-0.21 0.07,-0.18 0,0.01 -0.03,-0.25 0.99,-1.23 1.3,-1.24 7.82,-8.07 8.86,-8.46 0.27,-0.69 0.38,-0.68 1.09,-1.37l3.93 -3.74c0.6,-1.53 3.43,-1.16 1.64,-8.32 -0.68,-2.73 -1.65,-5.92 -2.46,-8.91 -2.52,-9.39 -3.53,-6.68 -10.88,0.59l-17.29 17.09c-1.48,1.49 -4.42,5.01 -5.84,5.85 -0.78,1.48 -28.66,28.46 -29.15,28.73 -0.14,0.39 -0.05,0.28 -0.42,0.41 -0.55,0.95 -1.4,1.54 -2.18,2.34l-4.6 4.79c-0.8,0.8 -1.51,1.71 -2.42,2.25l-0.78 0.77c-0.2,0.34 -8.44,8.77 -9.56,9.35l-0.11 0.1c-1.46,2.81 -5.54,3.94 -7.31,9.14 -0.03,0.08 -0.11,0.32 -0.14,0.4 -0.03,0.07 -0.06,0.14 -0.09,0.2l-0.2 0.4c0.21,0.67 0.36,2.98 0.66,4.26l1.41 5.2 1.22 4.33c-0.24,0.19 -0.53,0.36 -0.81,0.62 -0.37,0.36 -0.49,0.64 -0.81,0.92 -0.56,0.49 -1.5,0.62 -2.37,0.84l-36.11 9.59c-0.79,-0.15 -22.87,-22.65 -25.3,-25.09 -1.09,-1.09 -2.86,-2.56 -3.75,-3.79 1.12,-5.01 4.07,-15.21 5.55,-20.55 0.91,-3.28 1.81,-6.78 2.74,-10.13 0.48,-1.73 0.9,-3.35 1.36,-5.06 0.76,-2.87 1.08,-2.36 2.6,-3.98 6.66,1.03 11.2,4.45 16.2,2.26 1.85,-0.81 2.65,-1.97 3.81,-3.13l40.96 -40.64c2.03,-1.95 25.85,-25.24 27.32,-27.09l13.63 -13.57c4.55,-4.54 1.17,-4.96 -3.46,-6.25 -2.1,-0.59 -9.35,-2.21 -10.66,-2.93l-2.29 0c-1.97,0.93 -1.94,-0.45 -4.04,1.58l-56.15 55.64c-1.78,1.76 -4.3,3.94 -5.82,5.8 -2.32,2.85 -14.15,14.02 -17.71,17.65l-8.93 8.88c-1.05,1.28 -0.87,2.67 -1.55,4.17zm54.92 31.82c2.5,0.98 3.25,0.38 5.2,-0.66 0.1,-0.63 2.73,-2.93 3.37,-3.56l10.84 -10.68c4.78,-4.81 9.57,-9.02 14.24,-14.2 2.45,-2.72 4.74,-4.88 7.15,-7.19l35.62 -35.36c2.45,-2.36 4.83,-4.7 7.22,-7.12 9.6,-9.74 10.57,-8.58 3.19,-15.88l-17.93 -17.69c-1.05,-1.06 -2.01,-2.68 -4.45,-2.17 -2.35,0.49 -12.55,11.3 -14.85,13.58 -2.46,2.44 -4.75,4.7 -7.22,7.13l-6.97 7.12c-2.2,2.43 -4.85,4.79 -7.21,7.13l-49.92 49.49c-0.96,0.95 -2.66,2.38 -2.59,4.67 0.06,1.92 1.99,3.24 3.01,4.24l14.31 14.13c1.25,1.19 6.46,6.09 6.99,7.02z"/>
 </g>
</svg>
