<?xml version="1.0" encoding="UTF-8"?>
<!DOCTYPE svg PUBLIC "-//W3C//DTD SVG 1.1//EN" "http://www.w3.org/Graphics/SVG/1.1/DTD/svg11.dtd">
<!-- Creator: CorelDRAW 2019 (64-Bit) -->
<svg xmlns="http://www.w3.org/2000/svg" xml:space="preserve" width="6.2618mm" height="7.4514mm" version="1.1" style="shape-rendering:geometricPrecision; text-rendering:geometricPrecision; image-rendering:optimizeQuality; fill-rule:evenodd; clip-rule:evenodd"
viewBox="0 0 13.17 15.67"
 xmlns:xlink="http://www.w3.org/1999/xlink">
 <defs>
  <style type="text/css">
   <![CDATA[
    .fil0 {fill:black}
   ]]>
  </style>
 </defs>
 <g id="Layer_x0020_1">
  <metadata id="CorelCorpID_0Corel-Layer"/>
  <g id="_2407425052496">
   <path class="fil0" d="M4.27 8.61c0.11,0.06 0.16,0.12 0.24,0.21l1.74 1.42c0.27,-0.28 0.77,-0.67 1.19,-1.12 0.44,-0.46 0.48,-0.59 0.8,-0.98l1.92 -2.65c0.04,-0.06 0.07,-0.08 0.11,-0.14 0.04,-0.07 0.05,-0.08 0.1,-0.15 0.31,-0.38 1.05,-1.5 1.38,-1.93 0.05,-0.06 0.07,-0.08 0.11,-0.14l0.73 -1.03c0.15,-0.21 0.41,-0.53 0.5,-0.75 0.06,-0.14 0.08,-0.28 0.07,-0.42l-0.01 -0.08c-0.03,-0.22 -0.14,-0.43 -0.33,-0.59 -0.18,-0.16 -0.4,-0.24 -0.62,-0.24l-0.18 0.02c-0.24,0.04 -0.47,0.18 -0.65,0.38l-0.49 0.53c-0.06,0.06 -0.07,0.06 -0.13,0.13l-0.37 0.4c-0.05,0.05 -0.07,0.08 -0.12,0.14 -0.05,0.06 -0.07,0.06 -0.13,0.13l-3.6 3.84c-0.05,0.05 -0.07,0.09 -0.12,0.14 -0.3,0.29 -0.7,0.79 -0.97,1.07l-1 1.51c-0.06,0.11 -0.14,0.22 -0.19,0.33z"/>
   <path class="fil0" d="M2.18 11.7c-0.66,0.06 -0.66,-0.66 0.09,-1.3 0.26,-0.22 0.76,-0.52 1.1,-0.55 0.42,-0.04 0.68,0.61 0.13,0.8 -1.19,0.41 -0.88,1.01 -1.31,1.05zm-0.6 3.93l-0.36 0.03c-0.24,0.01 -0.48,0 -0.71,-0.03 -0.22,-0.03 -0.48,-0.07 -0.5,-0.28 -0.01,-0.14 0.19,-0.28 0.27,-0.37 0.73,-0.89 -0.06,-2.06 0.5,-3.61 0.14,-0.4 0.47,-0.81 0.74,-1.13 0.43,-0.51 1.27,-1.11 2.03,-1.19 0.41,-0.04 0.35,-0.07 0.59,0.13 0.2,0.17 1.78,1.41 1.8,1.54 0.08,0.81 -0.04,1.32 -0.4,1.98 -0.22,0.42 -0.61,0.97 -0.93,1.29l-0.29 0.28c-0.69,0.67 -1.71,1.2 -2.74,1.35z"/>
  </g>
 </g>
</svg>
