<?xml version="1.0" encoding="UTF-8"?>
<!DOCTYPE svg PUBLIC "-//W3C//DTD SVG 1.1//EN" "http://www.w3.org/Graphics/SVG/1.1/DTD/svg11.dtd">
<!-- Creator: CorelDRAW 2019 (64-Bit) -->
<svg xmlns="http://www.w3.org/2000/svg" xml:space="preserve" width="10.5984mm" height="8.3254mm" version="1.1" style="shape-rendering:geometricPrecision; text-rendering:geometricPrecision; image-rendering:optimizeQuality; fill-rule:evenodd; clip-rule:evenodd"
viewBox="0 0 49.64 39"
 xmlns:xlink="http://www.w3.org/1999/xlink">
 <defs>
  <style type="text/css">
   <![CDATA[
    .fil0 {fill:#2B2A29}
   ]]>
  </style>
 </defs>
 <g id="Layer_x0020_1">
  <metadata id="CorelCorpID_0Corel-Layer"/>
  <g id="_2407422995408">
   <path class="fil0" d="M3.51 29.34c5.58,1.68 6.07,4.76 6.91,5.32l27.33 -28c2.44,-3.33 -3.45,-9.16 -6.86,-5.5l-13.64 14.05c-0.65,0.68 -1.33,1.25 -1.99,1.95 -1.3,1.37 -2.57,2.8 -3.91,4.09 -0.63,0.6 -7.56,7.54 -7.84,8.09z"/>
   <path class="fil0" d="M14.53 33.81c1.4,0.15 28.89,-0.12 31.82,-0.13 3.95,-0.01 3.73,-4.57 2.39,-6.4 -0.82,-1.12 -2.67,-0.89 -4.36,-0.88l-21.16 0.1c-2,0.01 -1.29,-0.36 -3.46,1.93 -1.01,1.06 -4.88,4.82 -5.22,5.38z"/>
   <path class="fil0" d="M24.69 23.42c2.49,0.15 5.45,-0.02 8,-0.02 2.71,-0.01 5.41,-0.03 8.12,-0.03 1.69,-0 6.37,0.29 7.46,-0.49 1.58,-1.13 1.85,-4.34 0.42,-6 -0.78,-0.9 -1.72,-0.83 -3.08,-0.83l-12.18 0.05c-2.45,0.02 -1.7,0.1 -4.73,3.19 -1.02,1.04 -3.32,3.12 -4.01,4.13z"/>
   <path class="fil0" d="M34.84 12.99c1.13,0.19 9.23,0.01 11.51,-0 1.39,-0.01 2.04,-0.37 2.63,-1.23 1.21,-1.75 0.67,-4.77 -0.91,-5.72 -1.11,-0.67 -5.87,-0.32 -7.48,-0.32 -1.09,3.04 -0.9,2.2 -2.59,3.93l-3.17 3.34z"/>
   <path class="fil0" d="M8.99 36.07c-1.11,-2.4 -3.62,-4.95 -7.07,-5.17 -0.83,0.81 -1.83,1.66 -1.92,3.46 -0.17,3.35 3.18,5.47 5.99,4.31 0.82,-0.34 1.1,-0.62 1.59,-1.12 0.4,-0.41 1.04,-1.01 1.4,-1.48z"/>
   <path class="fil0" d="M14.53 13.13c1.9,-0.01 1.32,0.18 2.64,-1.18 0.67,-0.69 1.37,-1.31 2.05,-2.01l3.93 -4.08 -9.45 -0.01c0.09,0.48 0.47,0.99 0.66,1.54 1.13,3.21 0.12,4.84 0.17,5.75z"/>
   <path class="fil0" d="M12.83 13.14c1.15,-2.21 0.17,-7.28 -1.54,-7.3 -3.41,-0.03 -4.72,3.33 -3.38,5.55 1.06,1.76 2.53,1.74 4.92,1.75z"/>
   <path class="fil0" d="M7.83 21.5c0.86,-0.74 1.57,-1.51 2.26,-2.24 0.47,-0.51 1.91,-1.89 2.18,-2.38 -0.21,-0.39 -0.24,-0.6 -0.74,-0.69 -2.79,-0.48 -5.33,3.06 -3.7,5.31z"/>
  </g>
 </g>
</svg>
