<?xml version="1.0" encoding="UTF-8"?>
<!DOCTYPE svg PUBLIC "-//W3C//DTD SVG 1.1//EN" "http://www.w3.org/Graphics/SVG/1.1/DTD/svg11.dtd">
<!-- Creator: CorelDRAW 2019 (64-Bit) -->
<svg xmlns="http://www.w3.org/2000/svg" xml:space="preserve" width="8.4mm" height="7.54395mm" version="1.1" style="shape-rendering:geometricPrecision; text-rendering:geometricPrecision; image-rendering:optimizeQuality; fill-rule:evenodd; clip-rule:evenodd"
viewBox="0 0 25.08 22.52"
 xmlns:xlink="http://www.w3.org/1999/xlink">
 <defs>
  <style type="text/css">
   <![CDATA[
    .fil0 {fill:#010101}
   ]]>
  </style>
 </defs>
 <g id="Layer_x0020_1">
  <metadata id="CorelCorpID_0Corel-Layer"/>
  <g id="_2407425068688">
   <path class="fil0" d="M8.86 18.49c-0.12,-0.38 -0.05,-8.25 -0.05,-9.39 0.01,-5.21 -0.35,-5.51 0.91,-5.49 0.41,0 0.92,-0.13 1.06,0.4 0.11,0.4 0.04,8.25 0.05,9.42 0.03,5.3 0.29,5.51 -0.9,5.51 -0.47,-0 -0.85,0.21 -1.07,-0.45zm-3.37 -0.01c-0.12,-0.38 -0.06,-8.24 -0.06,-9.38 0.01,-5.18 -0.34,-5.49 0.91,-5.49 0.41,-0 0.92,-0.14 1.06,0.4 0.11,0.41 0.05,8.25 0.05,9.42 0.02,5.16 0.32,5.54 -0.9,5.52 -0.48,-0.01 -0.85,0.18 -1.06,-0.46zm-2.84 0.47c-0.44,-0 -0.59,-0.22 -0.59,-1l-0.01 -12.17c-0.01,-1.56 -0.17,-2.17 0.75,-2.17 0.6,-0 1.19,-0.19 1.27,0.69l0 10.52c0.01,4.47 0.22,4.14 -1.43,4.14zm9.44 -18.92c-2.96,-0.02 -5.94,-0.02 -8.81,0.04 -1.14,0.02 -2.45,-0.25 -3.09,2.44 -0.3,1.26 -0.16,5.79 -0.17,7.5 -0.01,2.6 -0,5.24 0,7.84 0,1.37 0.04,2.1 0.45,3.07 0.3,0.71 0.84,1.33 1.36,1.49 0.32,0.1 5.54,0.11 10.26,0.1l0 -22.48z"/>
   <path class="fil0" d="M16.22 18.47c0.12,-0.38 0.05,-8.25 0.05,-9.39 -0.01,-5.21 0.35,-5.51 -0.91,-5.49 -0.41,0 -0.92,-0.13 -1.06,0.4 -0.11,0.4 -0.04,8.25 -0.05,9.42 -0.03,5.3 -0.29,5.51 0.9,5.51 0.47,-0 0.85,0.21 1.07,-0.45zm3.37 -0.01c0.12,-0.38 0.06,-8.23 0.06,-9.38 -0.01,-5.18 0.34,-5.49 -0.91,-5.49 -0.41,-0 -0.92,-0.14 -1.06,0.4 -0.11,0.41 -0.05,8.25 -0.05,9.42 -0.02,5.16 -0.32,5.54 0.9,5.52 0.48,-0.01 0.85,0.18 1.06,-0.46zm2.84 0.47c0.44,-0 0.59,-0.22 0.59,-1l0.01 -12.17c0.01,-1.56 0.17,-2.17 -0.75,-2.17 -0.6,-0 -1.19,-0.19 -1.27,0.69l-0 10.52c-0.01,4.47 -0.22,4.14 1.43,4.14zm-9.44 -18.92c2.96,-0.02 5.94,-0.02 8.81,0.04 1.14,0.02 2.45,-0.25 3.09,2.44 0.3,1.26 0.16,5.79 0.17,7.5 0.01,2.6 0,5.24 -0,7.84 -0,1.37 -0.04,2.1 -0.45,3.07 -0.3,0.71 -0.84,1.33 -1.36,1.49 -0.32,0.1 -5.54,0.11 -10.26,0.1l0 -22.48z"/>
  </g>
 </g>
</svg>
