<?xml version="1.0" encoding="UTF-8"?>
<!DOCTYPE svg PUBLIC "-//W3C//DTD SVG 1.1//EN" "http://www.w3.org/Graphics/SVG/1.1/DTD/svg11.dtd">
<!-- Creator: CorelDRAW 2019 (64-Bit) -->
<svg xmlns="http://www.w3.org/2000/svg" xml:space="preserve" width="10.6mm" height="9.14904mm" version="1.1" style="shape-rendering:geometricPrecision; text-rendering:geometricPrecision; image-rendering:optimizeQuality; fill-rule:evenodd; clip-rule:evenodd"
viewBox="0 0 244.99 211.45"
 xmlns:xlink="http://www.w3.org/1999/xlink">
 <defs>
  <style type="text/css">
   <![CDATA[
    .fil0 {fill:black}
   ]]>
  </style>
 </defs>
 <g id="Layer_x0020_1">
  <metadata id="CorelCorpID_0Corel-Layer"/>
  <g id="_2407530160592">
   <path class="fil0" d="M140.49 70.47c-3.1,2.45 -1.07,-0.02 -5.6,4.87l-35.63 38.49c-1.67,1.79 -35.25,37.48 -35.55,38.84 -0.18,0.82 -0.2,9.37 -0.11,10.61l164.52 -0.11 0.01 -0.76 0 -6.63 0 -6.55 0 -6.63 -0.24 -2.71c-4.99,0.97 -15.04,-5.96 -17.81,-8.2 -7.67,-6.21 -12.64,-13.84 -17.41,-22.62 -3.55,-6.54 -11.2,-19.77 -17.79,-21.72 -4.74,-0.34 -7.54,6.16 -11.36,8.2 -1,-1.32 -2.03,-4.45 -2.83,-6.21 -0.91,-1.99 -2.44,-4.4 -2.97,-6.23 -0.72,-0.53 -2.04,-3.08 -2.71,-4.1 -0.91,-1.37 -1.86,-2.61 -2.89,-3.78 -1.82,-2.06 -4.24,-4.1 -7.75,-5.03l-3.87 0.27z"/>
   <path class="fil0" d="M53.48 41.17l183.27 -0.03 0.03 130.42 -183.27 0.04 -0.03 -130.43zm-37.4 29.01c1.11,-0.69 9.73,-3.72 10.82,-3.61l1.55 -0.85c0.69,-0.24 1.17,-0.39 1.85,-0.62 1.2,-0.42 2.41,-0.88 3.72,-1.19 0.81,-0.57 9.68,-3.58 10.61,-3.56 0.56,-0.53 -0.79,-0.36 0.32,-0.25 0.02,0 0.14,0.03 0.16,0.03 0.02,0 0.1,0.08 0.16,0.12l0.01 120.22 54.02 0.04 -22.77 8.43c-1.34,0.72 -9.83,3.95 -11.35,3.93 -0.61,0.71 -14.06,5.66 -15.66,5.82l-3.07 -10.17c-0.37,-0.52 -0.53,-1.09 -0.49,-2.04l-2.87 -8.54c-0.85,-2.84 -2.2,-6.44 -2.69,-9.19 -0.62,-0.91 -3.51,-10.49 -3.49,-11.78 -1.05,-1.06 -2.29,-6.34 -2.62,-8.08 -0.53,-0.74 -3.62,-11.13 -3.54,-12.06 -0.81,-1.05 -2.25,-6.47 -2.51,-7.71 -0.51,-0.76 -3.6,-11.1 -3.57,-12.11 -0.19,-0.25 -0.2,-0.24 -0.41,-0.68 -0.16,-0.36 -0.23,-0.57 -0.35,-0.97l-1.73 -6.01c-0.5,-0.84 -3.5,-10.82 -3.52,-11.99 -0.83,-0.87 -2.03,-5.65 -2.46,-7.33 -0.68,-2.01 -3.85,-11.29 -3.71,-12.8l-1.75 -5.34 5.33 -1.69zm139.27 -45.34l12.09 -4.3 17.09 -6.02 5.25 17.73 -55.04 -0.16 20.61 -7.25zm30.07 -22.6c-1.19,1.55 -55.36,20.91 -62.21,23.55 -5.19,2 -10.43,3.74 -15.63,5.76 -5.18,2.01 -57.72,-0.49 -62.15,0.86 -0.56,2.33 -0.16,13.66 -0.16,16.96 -0.6,1.1 -4.15,1.91 -5.41,2.38 -1.49,0.55 -4.29,1.86 -5.78,1.81l-1.28 0.74c-0.41,0.17 -1.08,0.38 -1.61,0.57 -1.19,0.41 -2.17,0.73 -3.39,1.27 -3.13,0.54 -9.13,3.92 -11.84,3.94 -0.97,1.07 -5.04,2.19 -6.62,2.57l-9.33 3.47 0.75 3.72c1,1.17 2,5.08 2.34,6.94 0.67,1.45 3.5,10.67 3.47,12.08 0.64,0.78 1.02,2.55 1.36,3.64 0.46,1.48 0.87,2.75 1.19,4.31 0.47,0.74 3.44,10.88 3.47,12.01 1.02,1.1 1.99,5.6 2.42,7.4l3.98 13.13 1.99 6.89 22.78 75.21 12.23 -4.83c4.23,-1.56 8.27,-3.04 12.53,-4.54 3.75,-1.32 23.39,-8.93 25.42,-8.92 0.81,-0.79 5.63,-2.31 6.62,-2.61 1.51,-0.7 10.6,-4.13 11.77,-4.04l6.43 -2.55c1.58,-0.71 7.76,-3.19 9.09,-3.04 0.34,-0.25 0.14,-0.19 0.75,-0.34l57.74 -0.09c19.46,-0.18 39.25,0.51 58.65,-0l0.01 -148.23 -45.93 -0.01 -4.03 -14.86 -1.85 -6.55c-0.81,-2.12 -2.21,-9.49 -3.22,-10.82l-4.54 2.23z"/>
   <path class="fil0" d="M106.65 76.95c0.35,-2.82 0.66,-4.01 0.55,-7.16 -0.51,-2.99 -0.79,-4.71 -2.13,-7.16 -0.66,-1.22 -1.09,-1.93 -1.91,-2.87 -0.7,-0.81 -1.68,-1.43 -2.07,-2.51 -1.39,-0.4 -0.57,-0.09 -0.92,-0.73 -1.59,-0.34 -4.21,-3.31 -10.23,-3.14 -11.76,0.32 -19.65,13.35 -15.12,25.25 4.52,11.87 18.35,14.78 26.43,7.04 1.16,-1.11 2.25,-2.31 3.18,-3.81 0.96,-1.54 1.57,-3.84 2.23,-4.9z"/>
   <path class="fil0" d="M195.83 96l2.35 0.38c4.25,0.05 8.52,0 12.77,-0.01 2.34,-0 4.22,0.23 5.63,-1.03 1.3,-1.17 1.85,-3.4 0.99,-5.39 -0.56,-1.3 -1.04,-1.25 -1.55,-1.92 -0.98,-1.29 -0.58,-4.42 -4.32,-6.22 -3.91,-1.89 -7.94,0.74 -8.93,3.82 -2.26,-0.45 -3.72,-0.09 -4.12,2.51 -5.27,0.09 -5.87,5.25 -2.82,7.85z"/>
  </g>
 </g>
</svg>
