<?xml version="1.0" encoding="UTF-8"?>
<!DOCTYPE svg PUBLIC "-//W3C//DTD SVG 1.1//EN" "http://www.w3.org/Graphics/SVG/1.1/DTD/svg11.dtd">
<!-- Creator: CorelDRAW 2019 (64-Bit) -->
<svg xmlns="http://www.w3.org/2000/svg" xml:space="preserve" width="8.9081mm" height="8.9421mm" version="1.1" style="shape-rendering:geometricPrecision; text-rendering:geometricPrecision; image-rendering:optimizeQuality; fill-rule:evenodd; clip-rule:evenodd"
viewBox="0 0 34.59 34.72"
 xmlns:xlink="http://www.w3.org/1999/xlink">
 <defs>
  <style type="text/css">
   <![CDATA[
    .fil0 {fill:black}
   ]]>
  </style>
 </defs>
 <g id="Layer_x0020_1">
  <metadata id="CorelCorpID_0Corel-Layer"/>
  <path class="fil0" d="M28.4 0l0.05 0c1.04,0.05 2.05,0.36 2.91,0.87l0.75 0.52c1.32,1.03 2.49,2.99 2.49,4.71l0 0c0,1.22 -0.07,2.1 -0.91,2.97 -0.11,0.12 -0.2,0.2 -0.32,0.32l-0.62 0.65c-0.45,0.44 -0.86,0.86 -1.31,1.31 -0.23,0.23 -0.4,0.44 -0.64,0.67l-1.94 1.94c-3.23,3.23 -6.44,6.5 -9.67,9.74 -0.13,0.13 -0.23,0.19 -0.35,0.32l-2.91 2.88c-0.2,0.2 -1.16,1.19 -1.38,1.19 -0.28,0 -0.91,-0.72 -1.12,-0.89 -0.31,-0.25 -1.25,-1.22 -1.76,-1.7l-4.22 -4.22c-0.17,-0.17 -0.32,-0.32 -0.49,-0.49 -0.14,-0.14 -0.41,-0.32 -0.41,-0.57 0,-0.15 0.68,-0.77 0.82,-0.91l2.51 -2.58c4.74,-4.74 9.57,-9.94 14.45,-14.45l1.31 -1.24c0.44,-0.44 0.96,-0.79 1.61,-0.93l1.17 -0.12zm-24.05 27.07c0,0.28 0.05,0.55 0.15,0.77 0.24,0.51 1.58,1.85 2.11,2.16 0.75,0.44 1.56,0.12 2.16,-0.41l0.44 -0.41c0.17,-0.15 0.57,-0.49 0.75,-0.56 0.18,-0.07 0.93,-0.03 1.24,-0.03 0.2,-0 0.24,-0.03 0.42,-0.04 0.51,-0.02 0.47,0.09 0.7,-0.15 0.13,-0.14 0.38,-0.25 0.43,-0.45 -0.11,-0.16 -2.69,-2.71 -2.9,-2.92 -0.82,-0.82 -1.54,-1.57 -2.38,-2.35 -0.17,-0.16 -0.41,-0.45 -0.57,-0.56 -0.2,0.05 -0.37,0.27 -0.47,0.45 -0.28,0.48 -0.31,1 -0.31,1.56 0,0.55 0.07,0.44 -0.22,0.73 -0.16,0.16 -0.3,0.3 -0.46,0.46l-0.45 0.5c-0.24,0.3 -0.63,0.72 -0.63,1.24zm-4.34 7.05c0.03,0.37 0.16,0.67 0.79,0.58 0.52,-0.07 0.57,-0 1.27,-0.14 0.79,-0.16 1.38,-0.46 1.99,-0.8l0.83 -0.55c0.13,-0.11 0.27,-0.2 0.39,-0.32l1.06 -1.02c0.06,-0.06 0.12,-0.11 0.18,-0.18 0.17,-0.19 0.46,-0.46 0.49,-0.57 -0.45,-0.04 -1.04,-0.48 -1.37,-0.78l-1.48 -1.56c-0.56,-0.69 -0.35,-0.93 -0.5,-1.22 -0.12,0.03 -0.1,0.03 -0.19,0.1l-0.63 0.57c-0.18,0.16 -0.31,0.34 -0.44,0.48 -0.11,0.11 -0.2,0.19 -0.29,0.31l-0.54 0.67c-0.68,0.93 -1.55,2.49 -1.55,3.92l0 0.52z"/>
 </g>
</svg>
