<?xml version="1.0" encoding="UTF-8"?>
<!DOCTYPE svg PUBLIC "-//W3C//DTD SVG 1.1//EN" "http://www.w3.org/Graphics/SVG/1.1/DTD/svg11.dtd">
<!-- Creator: CorelDRAW 2019 (64-Bit) -->
<svg xmlns="http://www.w3.org/2000/svg" xml:space="preserve" width="10mm" height="10.5151mm" version="1.1" style="shape-rendering:geometricPrecision; text-rendering:geometricPrecision; image-rendering:optimizeQuality; fill-rule:evenodd; clip-rule:evenodd"
viewBox="0 0 35.04 36.85"
 xmlns:xlink="http://www.w3.org/1999/xlink">
 <defs>
  <style type="text/css">
   <![CDATA[
    .fil0 {fill:black}
    .fil1 {fill:#616161}
   ]]>
  </style>
 </defs>
 <g id="Layer_x0020_1">
  <metadata id="CorelCorpID_0Corel-Layer"/>
  <g id="_2407466034720">
   <path class="fil0" d="M11.69 36.85c0.07,0 1.89,-1.32 1.99,-1.39 1.93,-1.36 4.02,-2.9 5.96,-4.23l0.99 -0.7c0.33,-0.25 0.66,-0.47 0.99,-0.7 0.33,-0.23 0.66,-0.46 0.99,-0.7l4.86 -3.45c0.06,-0.05 0.09,-0.03 0.09,-0.13l0 -3.01 -20.15 0 0 14.33 4.29 0z"/>
   <path class="fil0" d="M13.42 12.63l0.08 0.02 -0.08 -0.02zm-0.98 -12.63l0.5 0c0.54,0.04 1.07,0.2 1.52,0.43 1.47,0.74 2.56,2.12 3.38,3.5 0.22,0.37 0.85,1.69 0.88,2.05 0.09,-0.06 0.22,-0.3 0.31,-0.41 0.34,-0.45 0.53,-0.71 0.94,-1.12 0.48,-0.48 0.9,-0.87 1.56,-1.19 0.8,-0.39 1.56,-0.29 1.92,0.44 0.33,0.66 0.28,1.6 0.12,2.39 -0.45,2.27 -1.52,4.05 -2.96,5.69 -0.17,0.19 -0.38,0.34 -0.53,0.49 -0.23,0.23 -0.69,0.49 -0.76,0.59 1.33,0 2.54,-0.47 3.76,-0.87 2.03,-0.67 2.53,-1.01 4.83,-1.33 0.34,-0.05 1.11,-0.09 1.47,-0.04 1.04,0.16 1.29,0.03 2.47,0.61 0.33,0.17 0.64,0.4 0.92,0.63 1.27,1.07 1.62,2.88 0.97,4.56 -0.15,0.38 -0.3,0.7 -0.47,1.03 0.59,0.14 1.17,0.28 1.77,0.41 -0.13,0.11 -1.07,0.41 -1.23,0.47 -1,0.33 -2.11,0.77 -3.11,1.1 -0.15,0.05 -0.5,0.19 -0.63,0.2 0,-0.17 0.06,-0.4 0.09,-0.59 0.2,-1.21 0.39,-2.92 0.11,-4.13 -0.16,-0.69 -0.49,-1.25 -1.09,-1.5 -0.44,-0.18 -1.6,-0.33 -2.23,-0.33 -0.27,0 -0.37,-0.05 -0.64,-0.04 -0.91,0.03 -2.05,0.13 -2.96,0.24 -0.96,0.12 -3.73,0.58 -4.65,0.45 -1.47,-0.2 -0.36,-0.65 -1.6,-0.09 -1.51,0.68 -2.28,0.54 -3.85,0.27 -1,-0.17 -1.98,-0.42 -3.05,-0.6 -0.38,-0.06 -1.26,-0.16 -1.64,-0.16 -1.43,0.01 -2.11,0.01 -2.97,0.64 -1.23,0.92 -2.1,3.37 -3.09,4.16 -0.37,0.3 -0.6,0.53 -1.18,0.66 -0.59,0.13 -0.6,0.09 -0.64,-0.15l-0.56 -3.05c-0.04,-0.2 -0.12,-0.55 -0.14,-0.76 0.28,0 0.37,-0.05 0.53,-0.18 0.23,-0.18 0.42,-0.56 0.56,-0.79 0.81,-1.4 1.54,-3.49 3.43,-4.05 1.58,-0.46 3.07,0.08 4.45,0.67l1.78 0.93c0.29,0.15 0.59,0.33 0.87,0.49 0.18,0.1 1.59,0.85 1.8,0.9l-1.01 -0.99 -0.85 -1.1c-0.08,-0.11 -0.13,-0.21 -0.2,-0.32 -1.31,-2.03 -2.09,-4.97 -1.58,-7.44 0.24,-1.18 0.98,-2.4 2.21,-2.71 0.15,-0.04 0.3,-0.06 0.45,-0.07zm5.15 12c-0.05,-0.58 -0.23,-0.48 0.02,-1.6 0.05,-0.24 0.13,-0.51 0.22,-0.72 0.06,-0.15 0.19,-0.52 0.3,-0.64 0,0.22 0.04,0.64 0.07,0.84 0.06,0.44 -0.23,1.86 -0.59,2.13zm1.02 0.41c0.09,-0.35 0.71,-1.11 0.71,-2.74 0,-0.82 -0,-1.07 -0.12,-1.87 -0.07,-0.48 -0.19,-0.36 0.32,-0.87 0.17,-0.17 0.27,-0.26 0.45,-0.41 0.27,-0.22 0.76,-0.51 1.19,-0.42 0.46,0.09 0.58,0.57 0.64,1.06 0.02,0.14 -0.05,0.58 -0.07,0.74 -0.17,0.98 -0.6,1.86 -1.12,2.68 -0.07,0.11 -0.12,0.16 -0.19,0.26 -0.34,0.5 -1.2,1.43 -1.81,1.57zm-6.54 -5.41l0 -0.41c0,-2.18 1.78,-3.3 3.58,-1.89 0.09,0.07 0.19,0.14 0.27,0.22 0.1,0.1 0.13,0.12 0.24,0.21 0.48,0.4 1.59,2.15 1.59,2.62 0,0.05 -0.26,0.65 -0.3,0.75 -0.38,0.96 -0.78,2.51 -0.53,3.58 0.04,0.16 0.11,0.33 0.12,0.48 -0.24,0.06 -0.3,0.19 -0.86,0.19 -1.15,0 -2.29,-1.18 -2.87,-2.05 -0.57,-0.86 -1.23,-2.29 -1.23,-3.7z"/>
   <path class="fil0" d="M6.62 20.42c0,1.61 -0.14,1.33 0.41,1.32l21.31 0 0 -6.67 -21.72 0 0 5.35z"/>
   <path class="fil0" d="M17.65 36.85c0.04,-0.01 0.08,-0.02 0.11,-0.03l4.31 -3.06c1,-0.74 2.12,-1.48 3.12,-2.22l2.37 -1.69 0 -3.27c-0.11,0.03 -0.14,0.07 -0.23,0.14l-2.92 2.08c-0.15,0.11 -0.3,0.22 -0.46,0.33l-1.81 1.28c-0.15,0.1 -0.29,0.21 -0.44,0.31l-7.21 5.12c-0.21,0.15 -1.3,0.9 -1.37,1l4.52 0z"/>
   <path class="fil0" d="M23.54 36.85c0.26,-0.01 0.26,-0.06 0.73,-0.4l0.82 -0.57c0.27,-0.2 0.54,-0.37 0.81,-0.58 0.09,-0.07 1.53,-1.12 1.66,-1.16l0 -3.27c-0.2,0.02 -0.39,0.23 -0.56,0.35 -1.5,1.02 -3.23,2.31 -4.75,3.38 -0.18,0.13 -0.35,0.25 -0.53,0.38 -0.18,0.13 -0.35,0.24 -0.53,0.37 -0.35,0.26 -0.7,0.49 -1.05,0.75 -0.17,0.13 -0.35,0.25 -0.53,0.37 -0.1,0.07 -0.16,0.12 -0.26,0.19l-0.26 0.2 4.44 0z"/>
   <path class="fil0" d="M27.56 36.85l0 -1.73c-0.12,0.03 -0.21,0.11 -0.31,0.18 -0.11,0.08 -0.19,0.13 -0.31,0.22l-1.23 0.88c-0.13,0.09 -0.53,0.35 -0.6,0.45l2.44 0z"/>
   <path class="fil1" d="M6.62 15.07l21.72 0 0 6.67 -21.31 0c-0.55,0 -0.41,0.28 -0.41,-1.32l0 -5.35zm-0.07 6.7l21.85 0 0 -6.73 -21.85 0 0 6.73z"/>
  </g>
 </g>
</svg>
