<?xml version="1.0" encoding="UTF-8"?>
<!DOCTYPE svg PUBLIC "-//W3C//DTD SVG 1.1//EN" "http://www.w3.org/Graphics/SVG/1.1/DTD/svg11.dtd">
<!-- Creator: CorelDRAW 2019 (64-Bit) -->
<svg xmlns="http://www.w3.org/2000/svg" xml:space="preserve" width="11.5mm" height="12.3147mm" version="1.1" style="shape-rendering:geometricPrecision; text-rendering:geometricPrecision; image-rendering:optimizeQuality; fill-rule:evenodd; clip-rule:evenodd"
viewBox="0 0 326.17 349.27"
 xmlns:xlink="http://www.w3.org/1999/xlink">
 <defs>
  <style type="text/css">
   <![CDATA[
    .fil0 {fill:#333333}
   ]]>
  </style>
 </defs>
 <g id="Layer_x0020_1">
  <metadata id="CorelCorpID_0Corel-Layer"/>
  <g id="_2407464241792">
   <path class="fil0" d="M257.41 324.39c1.1,-3.29 -0.16,-12.55 -0.5,-15.81 -23.99,-5.84 -48,-8.54 -71.89,-14.35 1.49,2.55 9.57,8.83 12.31,11.36 10.88,10.05 6.91,8.07 25.97,12.1 9.7,2.05 22.9,3.98 34.11,6.7zm-1.78 -37.31l-0.5 -15.81 -120.89 -23.92c0.99,4.43 12.91,13.55 17.76,17.97 3.83,3.47 10.29,3.47 15.42,4.27 2.82,0.44 5.94,1.47 8.74,2.11 4.07,0.94 4.94,0.41 9.01,1.35 23.53,5.42 46.99,8.33 70.45,14.03zm-3.01 -53.3c-5.21,-1.27 -9.88,-2.45 -14.26,-2.9l-44.19 -8.92c-3.6,-0.57 -27.11,-5.17 -28.7,-4.81 -1.67,0.38 -19.87,10.07 -21.59,11.37l40.25 7.43c5.67,1.42 9.44,1.55 14.14,2.63 18.28,4.22 36.61,6.58 54.84,11.02l-0.5 -15.81zm-1.66 -35.71l-23.95 -4.3c-14.53,-2.29 -6.1,-5.38 -21.33,2.5 -4.06,2.1 -8.81,4.03 -12.27,6.63l58.05 10.98c-0.41,-3.99 -1.25,-11.56 -0.5,-15.81zm-16.72 150.5c-8.67,-2.11 -25.67,-19.21 -32.34,-25.39 -2.67,-2.48 -5,-4.11 -7.67,-6.56 -2.65,-2.45 -4.64,-4.3 -7.3,-6.75 -5.06,-4.68 -10.08,-8.81 -14.97,-13.32l-44.39 -39.66c-6.57,-7.53 -5.81,-14.23 -1.91,-23.39 4.28,-10.05 19.13,-15.71 27.17,-19.87 10.05,-5.2 19.35,-10.01 29.4,-15.21 10.05,-5.2 19.35,-10.01 29.4,-15.21 11.44,-5.91 21.23,-13.08 33.83,-10.01 18.34,4.46 14.72,24.08 16.15,42.63 0.33,4.35 0.26,8.31 0.58,12.44 0.98,12.8 6.31,93.62 4.85,99.48 -1.26,5.05 -3.27,9.05 -7.09,12.72 -6.42,6.18 -15.51,10.59 -25.73,8.1z"/>
   <path class="fil0" d="M176.52 187.8l-8.19 -10.17c-2.76,-3.92 -5.06,-7.15 -7.59,-11.03l-64.91 -99.97c-7.91,-11.87 -18.1,-25.27 -12.67,-38.06 6.32,-14.87 27.89,-21.03 38.52,-7.45 2.98,3.81 6.76,15.86 8.62,21.03l11.5 33.39c1.31,3.9 2.42,6.92 3.73,10.81l20.02 61.13c2.04,6.82 11.81,35.56 10.97,40.32z"/>
   <path class="fil0" d="M263.97 50.59c-2.5,5.87 -5.03,11.24 -8.06,16.75 -2.67,4.84 -5.43,10.57 -8.49,15.87 -10.79,18.74 -23.15,43.55 -34.09,63.19 -2.64,4.75 -6.07,10.82 -8.7,15.43 -3.07,5.38 -5.98,11.04 -9.24,15.65 -1.17,-1.62 -1.54,0.41 0.72,-7.02l7.39 -24.88c6.18,-19.84 15.72,-47.35 21.14,-66.34l12.38 -35.21c8.02,-18.81 34.87,-12 26.96,6.56z"/>
   <path class="fil0" d="M158.25 196.7l-34.06 -3.92c-5.7,-0.58 -12.02,-1.41 -17.2,-2.3l-69.27 -10.22c-9.38,-0.88 -22.84,-2.44 -27.43,-9.56 -6.79,-10.55 4.91,-23.71 21.83,-19.6l112.23 38.93c3.12,1.2 4.41,1.7 7.44,2.8 7.13,2.59 5.85,1.67 6.46,3.87z"/>
   <path class="fil0" d="M74.09 92.27l-0.61 1.42c-2.07,0.03 -14.38,5.98 -14.51,6.07 -2.74,2.05 -5.61,15.72 -5.57,16.5 -11.09,-5.78 -3.42,-12.92 -20.05,-9.6 -2.76,0.55 -5.36,1.57 -8.49,1.08 9.47,-13.42 10.66,-12.96 6.88,-21.29 -1.14,-2.53 -3.1,-4.38 -2.65,-7.49 4.21,1.02 5.53,0.82 9.07,1.45 3.74,0.67 6.34,1.54 8.92,-0.19 3.16,-2.12 8.75,-9.01 12.43,-10.34 -0.06,0.33 -0.92,14.31 1.05,16.08l13.53 6.3z"/>
   <path class="fil0" d="M206.15 14.55l-12.36 12.59c-0.36,1.07 1.76,13.13 2,15.49 -4.96,-1.21 -8.4,-3.44 -13.08,-4.96 -3.29,-1.07 -0.52,-1.31 -3.51,-0.12 -5.03,2 -8.62,5.94 -14.31,7.76 -0.12,-2.06 2.21,-12.74 3.45,-15.64 -4,-2.09 -7.65,-6.89 -12.15,-9.23l0.61 -1.42c2.64,0.04 13.39,-2.96 16.88,-3.74 2.59,-6.07 5.85,-10.24 8.13,-15.29 2.47,3.07 3.67,8.45 6.62,12.13 1.55,1.94 -0.15,1.68 7.73,1.72 3.31,0.02 6.58,-0.13 10,0.7z"/>
   <path class="fil0" d="M39.4 232.12l7.11 13.5c-3.2,-0.05 -14.79,-1.63 -17.03,-0.6 -2.06,0.95 -10.18,9.32 -11.81,11.63 -2.53,-1.43 -1.58,-1.8 -1.99,-7.28 -0.21,-2.86 -0.78,-5.27 -0.27,-8.17 -6,-1.46 -9.42,-3.86 -15.43,-5.32 1.75,-2.33 12.84,-7.77 15.78,-8.72 0.72,-4.03 2,-12.23 3.76,-16.35 3.45,1.8 9.21,9.23 11.84,9.7 2.42,0.44 12.85,-3.56 16.88,-3.5 -2.33,5.46 -6.23,10.09 -8.85,15.11z"/>
   <path class="fil0" d="M326.17 97.11c-1.13,-0.02 -14.87,2.2 -15.55,2.47 -2.96,1.14 -8.75,11.35 -10.3,14.78 -4.03,-2.29 -4.63,-12.9 -7.11,-13.5 -5.6,-1.36 -11.51,-0.92 -16.94,-1.77 4.51,-4.04 9.37,-8.74 14.08,-12.27l-1.54 -15.93c3.98,1.17 13,7.04 16.2,6.33 2.66,-0.59 11.16,-6.2 15.14,-7.47 -1.23,3.06 -5.04,14.68 -3.66,16.86 0.59,0.94 3.91,3.84 5.09,5.13 1.92,2.1 3.95,2.98 4.6,5.38z"/>
   <path class="fil0" d="M96.65 139.34c-2.49,-0.6 -11.11,-6.01 -9.05,-10.83 3.6,-8.45 13.81,-0.45 15.79,3.49 1.86,3.71 -1.84,8.54 -6.74,7.34z"/>
   <path class="fil0" d="M188.07 119.22c-2.45,5.75 -10.46,5.77 -10.4,-1.82 0.01,-1.78 -0.28,-7.07 0.32,-8.48 1.76,-4.12 8.06,-4.92 9.98,-1.31 0.82,1.55 1.16,9.14 0.11,11.6z"/>
   <path class="fil0" d="M187.44 92.39c-2.49,5.84 -10.34,5.61 -10.53,-1.76 -0.03,-0.96 -0.09,-7.3 0.14,-7.83 2.08,-4.89 7.56,-5.49 9.86,-2.37 1.18,1.6 1.69,9.23 0.52,11.96z"/>
   <path class="fil0" d="M107.82 145.2c4.8,-11.26 25.48,7.9 11.1,11.19 -3.9,0.89 -13.05,-6.59 -11.1,-11.19z"/>
   <path class="fil0" d="M128.05 161.89c1.1,-2.58 5.48,-5.53 10.25,-1.45 2.67,2.28 7.52,4.86 5.59,9.14 -1.52,3.36 -5.52,5.21 -10.14,1.59 -2.87,-2.25 -7.68,-4.63 -5.7,-9.27z"/>
   <path class="fil0" d="M83.95 118.21c-4.01,9.4 -11.33,2.43 -13.97,0.02 -7.91,-7.21 2.53,-10.65 3.89,-10.32 2.62,0.64 8.08,5.57 9.01,6.98 0.52,0.77 0.26,0.25 0.64,1.33 0.25,0.72 0.65,1.47 0.43,1.99z"/>
   <path class="fil0" d="M186.82 65.56c-1.79,4.2 -9.96,6.91 -10.56,-1.74 -1.15,-16.55 8.74,-11.96 10.04,-10.22 1.46,1.96 1.25,10.26 0.52,11.96z"/>
   <path class="fil0" d="M189 145.33c-2.41,5.65 -10.13,8.55 -10.6,-2.83 -0.57,-13.94 9.43,-11.23 10.65,-7.18 0.39,1.32 0.64,8.38 -0.05,10.01z"/>
   <path class="fil0" d="M285.87 112.41c-1.06,2.48 -2.28,3.7 -4.44,5.5 -2.7,2.24 -2.31,1.65 -5.32,2.32 -0.77,-0.75 -2.98,-2.44 -2.43,-3.73 3.43,-8.05 14.85,-10.3 12.2,-4.09z"/>
   <path class="fil0" d="M106.84 221.07c-1.71,1.02 -2.75,1.54 -4.83,2 -7.38,1.65 -5.97,0.82 -8.64,-0.57 0.53,-3.12 -0.44,-4.79 5.47,-6.05 8.87,-1.9 8.8,0.18 8.01,4.62z"/>
   <path class="fil0" d="M127.84 215.19c-1.68,3.93 -9.75,4.48 -12.2,4.09 -0.68,-1.16 -1.22,-2.29 -1.7,-3.55 1.84,-2.61 2.29,-2.96 5.3,-3.72 2.17,-0.54 5.15,-1.12 7.2,-1.09 0.09,0.14 0.33,0.17 0.29,0.4 -0.11,0.7 2.09,1.57 1.11,3.86z"/>
   <path class="fil0" d="M238.42 155.79c-3.17,7.42 -15.22,11.19 -11.9,3.38 1.71,-4.01 5.68,-6.27 9.47,-7.11 0.77,0.75 2.98,2.44 2.43,3.73z"/>
   <path class="fil0" d="M253.83 142.28c-0.57,1.33 -5.5,5.8 -6.69,6.34 -2.97,1.35 -6.14,-0.78 -4.9,-3.67 3.23,-7.57 14.64,-9.81 11.59,-2.67z"/>
   <path class="fil0" d="M65.62 229.09c-2.34,2.09 -1.64,2.13 -4.99,3.01 -11,2.91 -9.82,-3.79 -6.04,-5.78 1.37,-0.72 6.92,-2.15 8.91,-1.67 2.37,0.58 1.95,2.7 2.13,4.44z"/>
   <path class="fil0" d="M269.85 127.34c-1.02,2.39 -6.83,7.75 -8.74,7.29 -1.97,-0.48 -1.86,-0.83 -3.34,-1.6 1.87,-10.93 14.81,-12.09 12.08,-5.69z"/>
   <path class="fil0" d="M86.32 223.92c-1.81,4.26 -16.32,8.09 -12.57,-0.71 1.3,-3.05 15.08,-5.18 12.57,0.71z"/>
  </g>
 </g>
</svg>
