<?xml version="1.0" encoding="UTF-8"?>
<!DOCTYPE svg PUBLIC "-//W3C//DTD SVG 1.1//EN" "http://www.w3.org/Graphics/SVG/1.1/DTD/svg11.dtd">
<!-- Creator: CorelDRAW 2019 (64-Bit) -->
<svg xmlns="http://www.w3.org/2000/svg" xml:space="preserve" width="9.8544mm" height="13.804mm" version="1.1" style="shape-rendering:geometricPrecision; text-rendering:geometricPrecision; image-rendering:optimizeQuality; fill-rule:evenodd; clip-rule:evenodd"
viewBox="0 0 42.36 59.34"
 xmlns:xlink="http://www.w3.org/1999/xlink">
 <defs>
  <style type="text/css">
   <![CDATA[
    .fil0 {fill:black}
    .fil1 {fill:#F7F7F7}
   ]]>
  </style>
 </defs>
 <g id="Layer_x0020_1">
  <metadata id="CorelCorpID_0Corel-Layer"/>
  <g id="_2407464290976">
   <path class="fil0" d="M25.58 19.51c-0.05,-2.16 -2.17,-6.09 -3.66,-7.72 -1.02,-1.11 -1.7,-1.83 -2.96,-2.79 -0.47,-0.36 -2.97,-2.03 -3.51,-2.1 2.54,0.05 5.99,1.66 7.59,3.77 1.42,1.87 2.85,5.65 2.55,8.83zm-10.92 20.22c7.59,-3.63 12.57,-9.45 13.39,-18.13 0.85,-9.06 -5.49,-17.45 -13.9,-17.54 -12.64,-0.13 -18.93,17.21 -9.87,28.79 1.9,2.43 5.23,5.26 8.91,6.79l-0.85 1.9c0.38,0.04 1.67,-0.3 2,1.55 0.23,1.25 -0.85,1.33 -1.55,1.91 -0.69,0.57 -0.88,1.68 -0.18,2.5 0.43,0.51 1.52,1.16 1.7,1.72 0.36,1.13 -0.69,1.82 -1.12,2.29 -1.36,1.49 -1.27,3.88 -0.59,5.53 0.36,0.88 0.87,1.49 1.18,2.29l0.91 -0.51c-0.46,-1.08 -2.93,-4.46 -0.58,-6.76 3.68,-3.61 -1.28,-4.54 -0.84,-5.97 0.4,-0.75 1.37,-0.81 1.89,-1.66 0.5,-0.81 0.13,-2.12 -0.29,-2.74l0.58 -0.26c-0.39,-0.49 -0.63,-1.1 -0.82,-1.71z"/>
   <path class="fil0" d="M39.45 11.87c-0.44,-0.75 -0.89,-1.85 -1.34,-2.69 -1.08,-2.02 -2.88,-4.15 -4.64,-5.52 -0.36,-0.28 -0.81,-0.56 -1.14,-0.85 3.88,0.27 7.19,5.69 7.11,9.06zm-10.48 23.84c0.44,-0.33 1.08,-0.56 1.58,-0.85 3.57,-2.05 6.46,-4.43 8.75,-8.01 5.62,-8.76 3.49,-21.94 -6.25,-25.93 -2.46,-1.01 -5.42,-1.22 -8.13,-0.44 -2.07,0.6 -5.06,2.3 -5.9,3.67 2.48,0.74 5.13,3.28 6.32,4.84 1.57,2.05 2.84,4.62 3.4,7.73 0.59,3.3 0.24,6.82 -0.67,9.79 -1.32,4.3 -3.65,6.56 -3.91,7.24 0.86,0.76 2.34,1.26 3.3,1.85l-0.77 1.87c0.89,0.01 0.97,-0.11 1.41,0.43 1.63,2 -0.57,2.65 -1,3.04 -0.71,0.65 -0.9,1.67 -0.16,2.52 0.48,0.55 1.49,1.1 1.68,1.74 0.6,2.04 -4.85,2.95 -0.5,10.04l0.84 -0.46c-0.13,-0.6 -0.83,-1.5 -1.11,-2.21 -0.32,-0.81 -0.46,-1.78 -0.34,-2.78 0.26,-2.25 2.25,-1.95 2.18,-4.3 -0.07,-2.2 -3.31,-2.6 -1.8,-3.86 0.61,-0.5 2.94,-1.22 1.22,-4.11 0.25,-0.1 0.34,-0.03 0.57,-0.23 -0.29,-0.48 -0.56,-0.99 -0.73,-1.59z"/>
   <path class="fil1" d="M25.58 19.51c0.31,-3.18 -1.12,-6.96 -2.55,-8.83 -1.6,-2.1 -5.05,-3.72 -7.59,-3.77 0.54,0.07 3.04,1.74 3.51,2.1 1.26,0.96 1.94,1.68 2.96,2.79 1.49,1.62 3.62,5.56 3.66,7.72z"/>
   <path class="fil1" d="M39.45 11.87c0.08,-3.37 -3.23,-8.79 -7.11,-9.06 0.33,0.29 0.78,0.57 1.14,0.85 1.76,1.37 3.55,3.5 4.64,5.52 0.45,0.84 0.89,1.93 1.34,2.69z"/>
  </g>
 </g>
</svg>
