<?xml version="1.0" encoding="UTF-8"?>
<!DOCTYPE svg PUBLIC "-//W3C//DTD SVG 1.1//EN" "http://www.w3.org/Graphics/SVG/1.1/DTD/svg11.dtd">
<!-- Creator: CorelDRAW 2019 (64-Bit) -->
<svg xmlns="http://www.w3.org/2000/svg" xml:space="preserve" width="4.9208mm" height="11.1995mm" version="1.1" style="shape-rendering:geometricPrecision; text-rendering:geometricPrecision; image-rendering:optimizeQuality; fill-rule:evenodd; clip-rule:evenodd"
viewBox="0 0 69.8 158.86"
 xmlns:xlink="http://www.w3.org/1999/xlink">
 <defs>
  <style type="text/css">
   <![CDATA[
    .fil0 {fill:black}
   ]]>
  </style>
 </defs>
 <g id="Layer_x0020_1">
  <metadata id="CorelCorpID_0Corel-Layer"/>
  <path class="fil0" d="M26.43 14.18c-1.99,1.27 -2.84,1.04 -5.93,3.42 -2,1.54 -3.1,2.69 -4.62,4.75 -2.31,3.13 -3.41,5.95 -4.23,9.84 -0.28,1.32 -0.17,3.14 -0.52,4.39 -2.63,0.96 -4.44,-0.47 -7.62,1.76 -4.45,3.12 -4.63,9.22 -0.74,12.78 2.51,2.31 3.92,1.67 7.36,2.28 -2.04,1.14 -2.94,0.85 -5.52,3.45 -1.51,1.52 -2.81,3.26 -3.58,5.78 -1.06,3.47 -0.9,13.62 -0.65,17.7 2.63,0.38 7.71,0.1 10.59,0.09 8.61,-0.02 6.96,5.86 4.8,7.65 -2.22,1.83 -10.19,0.26 -15.43,0.97l-0 13.14c4.55,0.62 13.14,-0.66 15.15,0.73 0.95,0.65 1.9,1.96 1.93,3.5 0.16,6.2 -8.94,3.91 -16.94,4.36l-0.14 12.72c7.46,0.95 16.98,-2.32 17.09,4.26 0.11,6.4 -8.76,3.83 -16.96,4.35 -0.34,1.36 -0.21,10.9 -0.1,12.82 0.26,4.28 1.72,7.13 3.84,9.37 5.38,5.68 12.66,4.43 21.85,4.43 8.76,0 17.52,-0 26.28,0 5.82,0 10.68,-0.35 14.37,-5.4 1.07,-1.46 1.66,-2.58 2.25,-4.51 1.27,-4.15 0.64,-20.21 0.64,-25.73l0 -52.57c0,-6.39 -0.3,-10.64 -5.16,-14.7 -1.78,-1.49 -2.34,-1.33 -4.24,-2.41 3.37,-0.6 4.6,-0.19 6.97,-2.41 4.96,-4.65 2.49,-12.82 -4.18,-14.05 -1.56,-0.29 -4.1,0.07 -4.54,-0.52 -0.37,-1.21 -0.22,-2.74 -0.49,-4.07 -1.64,-8.25 -6.91,-14.95 -14.98,-18.05 -0.19,-3.4 0.53,-7.03 -1.14,-10.05 -3,-5.4 -10.67,-5.87 -14.14,-0.28 -1.81,2.92 -1.1,6.52 -1.27,10.19z"/>
 </g>
</svg>
