<?xml version="1.0" encoding="UTF-8"?>
<!DOCTYPE svg PUBLIC "-//W3C//DTD SVG 1.1//EN" "http://www.w3.org/Graphics/SVG/1.1/DTD/svg11.dtd">
<!-- Creator: CorelDRAW 2019 (64-Bit) -->
<svg xmlns="http://www.w3.org/2000/svg" xml:space="preserve" width="12.0406mm" height="11.0042mm" version="1.1" style="shape-rendering:geometricPrecision; text-rendering:geometricPrecision; image-rendering:optimizeQuality; fill-rule:evenodd; clip-rule:evenodd"
viewBox="0 0 47.2 43.14"
 xmlns:xlink="http://www.w3.org/1999/xlink">
 <defs>
  <style type="text/css">
   <![CDATA[
    .fil0 {fill:#2B2A29}
   ]]>
  </style>
 </defs>
 <g id="Layer_x0020_1">
  <metadata id="CorelCorpID_0Corel-Layer"/>
  <g id="_2407608472336">
   <path class="fil0" d="M27.13 9c0,0.03 0,0.1 -0,0.12 -0.03,0.11 -0.02,0.06 -0.06,0.13 0,0.29 0,0.11 -0.06,0.18 0,0.28 0,0.12 -0.06,0.18l0 0.06 -0.06 0.12 -0 0.12 -0.06 0.12 0 0.12 -0.06 0.12 0 0.12 -0.06 0.12c-0.02,0.52 -0.22,1.18 -0.24,1.82 -0.01,0.3 -0.02,0.73 0.01,1.03 0.03,0.28 0.11,0.59 0.11,0.85l0.06 0.06 -0 0.18 0.06 0.12 0 0.06 0.06 0.12 0 0.06 0.06 0.12c0.06,0.07 0.06,-0.11 0.06,0.18l0.06 0.12 0.06 0.12 0.06 0.12 0.06 0.12c0.14,0.1 0.32,0.41 0.45,0.58 0.17,0.22 0.37,0.35 0.52,0.57 0.21,0.06 0.14,0.02 0.24,0.18 0.17,0.04 0.09,-0.01 0.18,0.12 0.17,0.04 0.09,-0.01 0.18,0.12l0.12 0.06 0.12 0.06 0.12 0.06 0.12 0.06 0.12 0.06 0.06 0 0.12 0.06 0.06 0 0.12 0.06 0.06 0 0.12 0.06 0.12 -0 0.06 0.06 0.18 0 0.12 0.06 0.24 0 0.12 0.06 0.3 0 1.03 0 0.3 0c0.07,-0.06 -0.11,-0.06 0.18,-0.06l0.24 0 0.06 -0.06c0.69,-0.01 1.58,-0.48 2.18,-0.61l0.06 -0.06 0.12 0 0.06 -0.06 0.06 0 0.06 -0.06 0.06 0 0.12 -0.06c0.07,-0.06 -0.11,-0.06 0.18,-0.06l0.12 -0.06 2.61 -1.27c3.08,-1.38 6.39,-1.58 8.06,1.64 0.47,0.9 0.71,2.11 0.67,3.21 -0.03,1.02 -0.4,2.42 -0.73,3.15 -0.81,1.81 -2.44,2.15 -4.28,2.51 -0.31,0.06 -0.56,0.16 -0.87,0.16 -0.01,0.01 -0.03,0.01 -0.04,0.02 -0.01,0.02 -0.03,0.02 -0.04,0.02 -0.08,0.02 -0.08,0.02 -0.17,0.02 -0.07,0.06 0.11,0.06 -0.18,0.06l-0.06 0c-0.07,0.06 0.1,0.06 -0.18,0.06 -0.1,0.07 0.1,-0 -0.16,0.08 -0.14,0.04 -0.03,0.02 -0.2,0.04 -0.07,0.06 0.11,0.06 -0.18,0.06 -0.07,0.06 0.11,0.06 -0.18,0.06l-1.19 0.69c-0.19,0.15 -0.16,0.22 -0.39,0.28l-0.06 0.06 -0.06 0.06 -0.06 0.06 -0.06 0.06 -0.06 0.12 -0.06 0.06 -0.06 0.06 -0.06 0.06 -0.06 0.12 -0.06 0.06 -0.06 0.12 -0.06 0.12 -0.06 0.06 0 0.06 -0.06 0.06 0 0.06 -0.06 0.12 -0.06 0.12 0 0.06 -0.06 0.12 0 0.12 -0.06 0.06c-0.03,0.39 -0.12,0.71 -0.12,1.15 -0,0.43 0.06,0.79 0.06,1.15l0.06 0.06 -0 0.18 0.06 0.06 -0 0.12 0.06 0.12 0 0.06 0.06 0.12 0 0.06 0.06 0.06 0 0.06 0.06 0.06 0 0.06 0.06 0.12 0 0.06 0.06 0.06 0.12 0.24 0.06 0.06 0 0.06 0.06 0.06 0.06 0.12 0.06 0.06c0.2,0.4 0.5,0.69 0.72,1.03l0.06 0.06 0.06 0.06 0.06 0.12 0.06 0.06 0.06 0.06 0.06 0.06 0.06 0.06 0.06 0.06 0.06 0.12 0.06 0.06 0.06 0.06 0.06 0.06 0.06 0.06 0.06 0.06c0.27,0.18 0.58,0.56 0.83,0.8l0.82 0.88c1.35,1.53 2.65,4.13 0.39,5.51 -0.27,0.17 -0.91,0.37 -1.31,0.39 -1.93,0.09 -3.71,-1.14 -4.72,-2.01l-3.35 -3.38 -0.06 -0.06 -0.06 -0.06 -0.06 -0.06 -0.06 -0.06 -0.06 -0.06c-0.35,-0.51 -1.39,-1.34 -1.94,-1.88 -0.29,-0.29 -0.68,-0.58 -1.02,-0.86 -0.32,-0.27 -0.76,-0.58 -1.1,-0.78l-0.06 -0.06 -0.06 0 -0.06 -0.06 -0.06 0 -0.06 -0.06 -0.12 -0.06 -0.06 -0.06 -1.69 -0.62c-0.09,-0.03 -0.03,-0 -0.14,-0.05 -0.17,-0.07 -0.04,-0.01 -0.12,-0.07l-0.06 0c-0.03,0 -0.1,0 -0.12,-0 -0.11,-0.03 -0.07,-0.02 -0.13,-0.06l-0.12 0c-0.29,-0 -0.12,0 -0.18,-0.06 -0.29,0 -0.54,-0.04 -0.8,-0.05 -0.26,-0.01 -0.5,0.05 -0.78,0.05l-0.12 0.06 -0.12 0c-0.07,0.06 0.1,0.06 -0.18,0.06 -0.07,0.06 0.11,0.06 -0.18,0.06 -0.12,0.11 -0.09,0.1 -0.3,0.12l-0.07 0.06c-0.23,0.18 -0.34,0.19 -0.64,0.45 -0.23,0.2 -0.38,0.43 -0.62,0.59l-0.06 0.06c-0.04,0.17 0.01,0.09 -0.12,0.18l-0.06 0.06 -0.06 0.12 -0.06 0.06 0 0.06 -0.06 0.06 -0.06 0.06 0 0.06 -0.06 0.06 0 0.06 -0.06 0.06 0 0.06 -0.06 0.06c-0.13,0.29 -0.36,0.71 -0.42,1.03l-0.06 0.06 0 0.12 -0.06 0.06 0 0.06 -0.06 0.12 0 0.06 -0.06 0.12 0 0.06 -0.06 0.12 0 0.06c0,0.29 0,0.11 -0.06,0.18 0,0.29 0,0.11 -0.06,0.18 -0.01,0.32 -0.43,1.62 -0.55,1.99 -1.73,5.23 -6.53,2.84 -6.6,0.01 -0.03,-1.26 0.31,-2.09 0.7,-3.12l0.39 -0.94c0,-0.29 -0,-0.12 0.06,-0.18l0.06 -0.12 -0 -0.12 0.06 -0.06c0.02,-0.41 0.24,-1.08 0.29,-1.64 0.07,-0.78 -0.02,-1.15 -0.11,-1.82l-0.06 -0.06 0 -0.12 -0.06 -0.12 -0.06 -0.12 -0.06 -0.12 -0.06 -0.12c-0.18,-0.13 -0.3,-0.41 -0.5,-0.59 -0.1,-0.09 -0.19,-0.16 -0.31,-0.24 -0.18,-0.12 -0.23,-0.1 -0.35,-0.26 -0.29,-0.02 -0.51,-0.2 -0.91,-0.24 -0.16,-0.02 -0.39,-0.04 -0.47,-0.04 -0.1,0 -0.34,0.04 -0.55,0.04l-0.12 0c-0.07,0.06 0.1,0.06 -0.18,0.06l-0.12 0 -0.06 0.06 -0.12 0 -0.06 0.06 -0.3 0.06 -0.06 0.06 -0.12 0 -0.06 0.06 -0.06 0 -0.06 0.06 -0.24 0.06 -0.06 0.06 -0.06 0 -0.06 0.06 -0.06 0 -0.06 0.06 -0.06 0c-0.15,0.2 -2.24,1.28 -2.45,1.37 -3.89,1.54 -6.98,-0.91 -5.82,-4.24 1.02,-2.93 4.11,-4.22 6.97,-4.67 1.18,-0.19 2.38,-0.16 3.72,-0.16 -0.06,0.12 -0.09,0.28 -0.12,0.42l0.18 0.73 0.06 0.06 0 0.06 0.06 0.06 0.06 0.06 0.3 0.3 0.79 0.24 0.18 0c0.06,-0.04 0,-0.03 0.13,-0.05 0.05,-0.01 0.12,-0.01 0.18,-0.01l0.06 0 0.12 -0.06 0.06 0 0.12 -0.06 0.12 -0.06c0.09,-0.13 0.01,-0.08 0.18,-0.12 0.11,-0.16 0.2,-0.21 0.31,-0.35 0.12,-0.16 0.09,-0.2 0.29,-0.43 0,-0.28 0,-0.12 0.06,-0.18l0 -0.06c0,-0.29 0,-0.12 0.06,-0.18l-0.01 -1.03 -0.06 -0.06 0 -0.12 -0.06 -0.12 0 -0.06 -0.06 -0.12 0 -0.06 -0.06 -0.06 0 -0.06 -0.06 -0.12 -0.06 -0.06 -0.06 -0.12 -0.06 -0.06 -0.06 -0.12 -0.06 -0.06 -0.06 -0.06 -0.06 -0.06 -0.06 -0.06 -0.06 -0.06 -0.06 -0.06 -0.06 -0.06 -0.06 -0.06 -0.06 -0.06 -0.06 -0.06 -0.12 -0.06 -0.06 -0.06 -0.06 -0.06c-0.4,-0.23 -1.18,-0.7 -1.7,-0.79l-0.06 -0.06 -0.12 -0 -0.06 -0.06 -0.06 0 -0.12 -0.06 -0.06 0 -0.12 -0.06 -0.12 0 -0.12 -0.06 -0.06 0c-0.29,-0 -0.11,0 -0.18,-0.06 -0.03,0 -0.1,0 -0.12,-0 -0.11,-0.03 -0.07,-0.02 -0.13,-0.06 -0.28,-0.01 -1.75,-0.43 -2.07,-0.54 -1.18,-0.39 -2.52,-1.14 -3,-2.34 -0.3,-0.76 -0.3,-1.5 0.08,-2.18 0.61,-1.1 2.02,-1.69 3.75,-1.41 0.82,0.14 1.36,0.38 2.02,0.65l1.34 0.66c0.07,0.03 0.12,0.06 0.2,0.1l0.22 0.14 0.12 0.06 0.12 0.06 0.12 0.06 0.12 0.06 0.06 0 0.06 0.06 0.06 0 0.06 0.06 0.12 0 0.06 0.06c0.4,0.16 1.35,0.56 1.76,0.61l0.06 0.06 0.18 0 0.12 0.06 0.24 -0 0.12 0.06c0.88,-0 1.41,0.05 2.2,-0.23 0.8,-0.29 0.94,-0.5 1.5,-0.86l0.06 -0.06 0.06 -0.06 0.06 -0.06 0.06 -0.06 0.06 -0.06 0.06 -0.06 0.06 -0.06 0 -0.06 0.06 -0.06 0.06 -0.06 0.06 -0.06 0.06 -0.12 0.06 -0.06 0.06 -0.12c0.04,-0.17 -0.01,-0.09 0.12,-0.18l0.06 -0.12 0.06 -0.12 0.06 -0.12 0.06 -0.12 0.06 -0.12 0 -0.06 0.06 -0.12 0.06 -0.12 0 -0.06 0.06 -0.12 -0 -0.12 0.06 -0.12c0.19,-1.29 0.36,-2.58 0.36,-4 -0.05,-0.07 -0.02,-0 -0.05,-0.13 -0.01,-0.06 -0.01,-0.1 -0.02,-0.17 -0,-0.11 0,-0.26 0,-0.37 0.01,-2.17 0.03,-4.96 2.24,-6.24 1.4,-0.81 3.26,-0.34 4.23,1.16 0.37,0.58 0.68,1.47 0.68,2.41 -0.01,1.16 -0.13,1.8 -0.38,2.72 -0.04,0.16 -0.63,2.11 -0.78,2.32zm-16.19 13.4l0 0z"/>
   <path class="fil0" d="M21.19 7.3c-0.01,1.42 -0.18,2.71 -0.36,4l-0.06 0.12 0 0.12 -0.06 0.12 0 0.06 -0.06 0.12 -0.06 0.12 0 0.06 -0.06 0.12 -0.06 0.12 -0.06 0.12 -0.06 0.12 -0.06 0.12c-0.04,0.17 0.01,0.09 -0.12,0.18l-0.06 0.12 -0.06 0.06 -0.06 0.12 -0.06 0.06 -0.06 0.06 -0.06 0.06 0 0.06 -0.06 0.06 -0.06 0.06 -0.06 0.06 -0.06 0.06 -0.06 0.06 -0.06 0.06 -0.06 0.06c-0.56,0.37 -0.7,0.58 -1.5,0.86 -0.78,0.28 -1.31,0.23 -2.2,0.23l-0.12 -0.06 -0.24 0 -0.12 -0.06 -0.18 0 -0.06 -0.06c-0.41,-0.04 -1.36,-0.45 -1.76,-0.61l-0.06 -0.06 -0.12 -0 -0.06 -0.06 -0.06 0 -0.06 -0.06 -0.06 0 -0.12 -0.06 -0.12 -0.06 -0.12 -0.06 -0.12 -0.06c-0.62,-0.05 -3.78,-2.13 -6.01,-1.22 -1.16,0.47 -2.11,1.84 -1.42,3.2 0.78,1.55 2.21,2.12 3.89,2.6l0.75 0.22c0.09,0.03 0.03,0 0.14,0.05 0.16,0.07 0.04,0.01 0.12,0.06 0.03,0 0.1,-0 0.12,0 0.11,0.03 0.06,0.02 0.13,0.06 0.29,0 0.11,-0 0.18,0.06l0.06 0 0.12 0.06 0.12 0 0.12 0.06 0.06 0 0.12 0.06 0.06 0 0.06 0.06 0.12 0 0.06 0.06c0.52,0.09 1.3,0.55 1.7,0.79l0.06 0.06 0.06 0.06 0.12 0.06 0.06 0.06 0.06 0.06 0.06 0.06 0.06 0.06 0.06 0.06 0.06 0.06 0.06 0.06 0.06 0.06 0.06 0.06 0.06 0.06 0.06 0.12 0.06 0.06 0.06 0.12 0.06 0.06 0.06 0.12 0 0.06 0.06 0.06 0 0.06 0.06 0.12 0 0.06 0.06 0.12 0 0.12 0.06 0.06 0.01 1.03c0,0.29 0,0.11 -0.06,0.18l0 0.06c0,0.29 0,0.12 -0.06,0.18 -0.02,0.23 -0.09,0.3 -0.21,0.46 -0.12,0.16 -0.2,0.27 -0.4,0.33 -0.09,0.13 -0.01,0.08 -0.18,0.12l-0.12 0.06 -0.12 0.06 -0.06 0 -0.12 0.06 -0.06 0c-0.07,0.04 -0,0.03 -0.13,0.06 -0.06,0.01 -0.12,0.01 -0.18,0l-0.18 -0c-0.38,0 -0.63,-0.02 -0.79,-0.24 -0.2,-0.05 -0.25,-0.11 -0.3,-0.3l-0.06 -0.06 -0.06 -0.06 0 -0.06 -0.06 -0.06 -0.18 -0.73c-0.62,-0.41 -0.43,-0.19 -1.15,-0.25 -1.12,-0.09 -0.46,0.01 -1.28,0 -1.5,-0.01 -4.37,0.83 -5.71,1.81 -0.21,0.15 -0.35,0.29 -0.54,0.43 -2.38,1.83 -3.01,6.05 0.61,6.85 2.64,0.58 4.65,-1.32 5.76,-1.57l0.06 0 0.06 -0.06 0.06 0 0.06 -0.06 0.06 0 0.06 -0.06 0.24 -0.06 0.06 -0.06 0.06 0 0.06 -0.06 0.12 -0 0.06 -0.06 0.3 -0.06 0.06 -0.06 0.12 0 0.06 -0.06 0.12 0c0.07,-0.06 -0.11,-0.06 0.18,-0.06l0.12 -0 0.09 -0.03c0.07,-0.02 0.07,-0.02 0.15,-0.03 0.48,-0.09 0.88,-0.03 1.3,0.1 0.11,0.03 0.15,0.05 0.22,0.08 0.1,0.05 0.11,0.06 0.18,0.12 0.43,0.1 1.05,0.66 1.15,1.09l0.06 0.12 0.06 0.12 0.06 0.12 0.06 0.12 0 0.12 0.06 0.06c0.09,0.67 0.18,1.03 0.11,1.82 -0.05,0.56 -0.27,1.23 -0.29,1.64l-0.06 0.06 0 0.12 -0.06 0.12c0,0.29 0,0.11 -0.06,0.18 -0.01,0.64 -0.99,2.54 -0.97,4 0.03,1.83 2.14,3.58 4.22,2.7 0.75,-0.31 1.42,-1.18 1.78,-1.91 0.13,-0.26 0.26,-0.61 0.37,-0.9l0.6 -1.71c0.06,-0.12 0.02,-0.05 0.06,-0.12 0,-0.29 -0,-0.12 0.06,-0.18 0,-0.29 -0,-0.12 0.06,-0.18l0 -0.06 0.06 -0.12 0 -0.06 0.06 -0.12 0 -0.06 0.06 -0.12 0 -0.06 0.06 -0.06 -0 -0.12 0.06 -0.06c0.07,-0.32 0.29,-0.74 0.42,-1.03l0.06 -0.06 0 -0.06 0.06 -0.06 0 -0.06 0.06 -0.06 0 -0.06 0.06 -0.06 0.06 -0.06 0 -0.06 0.06 -0.06 0.06 -0.12 0.06 -0.06c0.04,-0.17 -0.01,-0.09 0.12,-0.18l0.06 -0.06c0.06,-0.24 0.38,-0.48 0.56,-0.65 0.16,-0.15 0.51,-0.42 0.77,-0.44 0.13,-0.11 0.09,-0.1 0.3,-0.12 0.07,-0.06 -0.11,-0.06 0.18,-0.06 0.07,-0.06 -0.11,-0.06 0.18,-0.06l0.12 -0 0.12 -0.06c0.28,0 0.52,-0.05 0.78,-0.05 0.26,0.01 0.5,0.05 0.8,0.05 0.29,-0 0.11,-0 0.18,0.06l0.12 -0c0.03,0 0.1,-0 0.12,0 0.11,0.03 0.07,0.02 0.13,0.06l0.06 0c0.43,0.01 1.31,0.37 1.72,0.58l0.22 0.14 0.06 0.06 0.12 0.06 0.06 0.06 0.06 0 0.06 0.06 0.06 0 0.06 0.06c0.34,0.2 0.78,0.51 1.1,0.78 0.34,0.28 0.73,0.57 1.02,0.86 0.54,0.54 1.59,1.37 1.94,1.88l0.06 0.06 0.06 0.06 0.06 0.06 0.06 0.06 0.06 0.06c0.21,0.06 0.29,0.2 0.44,0.35l2.09 2.03c0.61,0.59 2,1.78 2.74,2.17 0.61,0.32 1.66,0.76 2.61,0.73 1.89,-0.06 3.24,-1.78 2.28,-3.68 -0.7,-1.39 -2.77,-3.55 -2.83,-3.78l-0.06 -0.06 -0.06 -0.06 -0.06 -0.06 -0.06 -0.06 -0.06 -0.06 -0.06 -0.12 -0.06 -0.06 -0.06 -0.06 -0.06 -0.06 -0.06 -0.06 -0.06 -0.06 -0.06 -0.12 -0.06 -0.06 -0.06 -0.06c-0.22,-0.34 -0.53,-0.63 -0.72,-1.03l-0.06 -0.06 -0.06 -0.12 -0.06 -0.06 0 -0.06 -0.06 -0.06 -0.12 -0.24 -0.06 -0.06 0 -0.06 -0.06 -0.12 0 -0.06 -0.06 -0.06 0 -0.06 -0.06 -0.06 0 -0.06 -0.06 -0.12 0 -0.06 -0.06 -0.12 0 -0.12 -0.06 -0.06 0 -0.18 -0.06 -0.06c-0,-0.37 -0.07,-0.72 -0.06,-1.15 0,-0.44 0.1,-0.76 0.12,-1.15l0.06 -0.06 0 -0.12 0.06 -0.12 0 -0.06 0.06 -0.12 0.06 -0.12 0 -0.06 0.06 -0.06 0 -0.06 0.06 -0.06 0.06 -0.12 0.06 -0.12 0.06 -0.06 0.06 -0.12 0.06 -0.06 0.06 -0.06 0.06 -0.06 0.06 -0.12 0.06 -0.06 0.06 -0.06 0.06 -0.06 0.06 -0.06c0.22,-0.33 1.09,-0.93 1.58,-0.97 0.07,-0.06 -0.11,-0.06 0.18,-0.06 0.07,-0.06 -0.11,-0.06 0.18,-0.06 0.15,-0.13 0.1,-0.12 0.36,-0.12 0.07,-0.06 -0.11,-0.06 0.18,-0.06l0.06 0c0.07,-0.06 -0.11,-0.06 0.18,-0.06 0.01,-0.01 0.03,-0.04 0.04,-0.02 0.01,0.01 0.03,-0.02 0.04,-0.02 0.08,-0.02 0.08,-0.02 0.17,-0.02 0.07,-0.05 -0.01,-0.01 0.13,-0.06l1.36 -0.33c3.24,-0.92 3.87,-1.98 4.14,-5.31 0.1,-1.2 -0.23,-2.89 -0.88,-3.84l-0.43 -0.54c-2.02,-2.11 -4.65,-1.51 -7.07,-0.43 -0.38,0.17 -2.46,1.09 -2.71,1.11l-0.12 0.06c-0.07,0.06 0.11,0.06 -0.18,0.06l-0.12 0.06 -0.06 0 -0.06 0.06 -0.06 0 -0.06 0.06 -0.12 0 -0.06 0.06c-0.6,0.13 -1.49,0.6 -2.18,0.61l-0.06 0.06 -0.24 0c-0.07,0.06 0.11,0.06 -0.18,0.06l-0.3 -0 -0.09 0.04c-0.01,0 -0.03,0.01 -0.05,0.01l-0.76 0c-0.13,-0.03 -0.06,-0 -0.13,-0.05l-0.3 0 -0.12 -0.06 -0.24 0 -0.12 -0.06 -0.18 0 -0.06 -0.06 -0.12 0 -0.12 -0.06 -0.06 0 -0.12 -0.06 -0.06 0 -0.12 -0.06 -0.06 0 -0.12 -0.06 -0.12 -0.06 -0.12 -0.06 -0.12 -0.06 -0.12 -0.06c-0.17,-0.04 -0.09,0.01 -0.18,-0.12 -0.17,-0.04 -0.09,0.01 -0.18,-0.12 -0.21,-0.06 -0.14,-0.02 -0.24,-0.18 -0.24,-0.06 -0.41,-0.3 -0.56,-0.48 -0.15,-0.18 -0.36,-0.44 -0.42,-0.68l-0.06 -0.12 -0.06 -0.12 -0.06 -0.12 -0.06 -0.12c-0.06,-0.07 -0.06,0.11 -0.06,-0.18l-0.06 -0.12 0 -0.06 -0.06 -0.12 0 -0.06 -0.06 -0.12 0 -0.18 -0.06 -0.06c-0,-0.26 -0.08,-0.57 -0.11,-0.85 -0.03,-0.29 -0.02,-0.73 -0.01,-1.03 0.02,-0.64 0.22,-1.29 0.24,-1.82l0.06 -0.12 -0 -0.12 0.06 -0.12 0 -0.12 0.06 -0.12 0 -0.12 0.06 -0.12 0 -0.06c-0,-0.29 -0,-0.12 0.06,-0.18 0,-0.29 -0,-0.12 0.06,-0.18 0,-0.03 -0,-0.1 0,-0.12 0.03,-0.11 0.02,-0.06 0.06,-0.13 0.01,-0.51 1.19,-3.43 1.02,-4.96 -0.18,-1.59 -0.69,-3.14 -2.29,-3.72 -1.68,-0.61 -3.16,0.46 -3.87,1.79 -0.31,0.58 -0.53,1.59 -0.61,2.36 -0.09,0.87 -0.19,1.93 -0.19,2.84z"/>
  </g>
 </g>
</svg>
