<?xml version="1.0" encoding="UTF-8"?>
<!DOCTYPE svg PUBLIC "-//W3C//DTD SVG 1.1//EN" "http://www.w3.org/Graphics/SVG/1.1/DTD/svg11.dtd">
<!-- Creator: CorelDRAW 2019 (64-Bit) -->
<svg xmlns="http://www.w3.org/2000/svg" xml:space="preserve" width="8.9722mm" height="12.9675mm" version="1.1" style="shape-rendering:geometricPrecision; text-rendering:geometricPrecision; image-rendering:optimizeQuality; fill-rule:evenodd; clip-rule:evenodd"
viewBox="0 0 26.19 37.86"
 xmlns:xlink="http://www.w3.org/1999/xlink">
 <defs>
  <style type="text/css">
   <![CDATA[
    .fil0 {fill:black}
   ]]>
  </style>
 </defs>
 <g id="Layer_x0020_1">
  <metadata id="CorelCorpID_0Corel-Layer"/>
  <path class="fil0" d="M13.02 35.49c-2.18,0 -2.17,-3.18 0,-3.18 2.02,0 2,3.18 0,3.18zm0.42 2.37l-0.78 0c-1.17,-0.13 -2.33,-0.83 -2.92,-2.04 -0.16,-0.32 -0.34,-0.84 -0.34,-1.28l0.36 -4.3c0.05,-0.49 0.04,-0.88 0.11,-1.37l0.5 -5.57c-1.49,-0.35 -2.51,-0.95 -3.71,-1.76 -0.55,-0.37 -0.98,-0.83 -1.45,-1.29 -0.84,-0.83 -1.66,-2.22 -2.1,-3.3 -0.72,-1.78 -0.11,-1.32 -0.95,-1.71 -1.86,-0.87 -2.67,-3.17 -1.8,-4.98 0.2,-0.42 0.39,-0.73 0.71,-1.07 0.55,-0.59 1.56,-1.11 2.42,-1.13 -0.14,-0.26 -0.21,-0.29 -0.35,-0.54 -0.86,-1.58 -0.68,-3.21 0.54,-4.52 0.56,-0.6 1.57,-1.15 2.39,-1.15 1.76,0 1.81,0.24 3.11,1.11 0.44,-0.91 0.15,-0.94 1.2,-1.98 0.82,-0.82 1.72,-0.98 2.79,-0.98 1.56,0 3.28,1.56 3.4,2.96 0.81,-0.22 0.69,-1.11 3.18,-1.11 1.24,0 2.61,1.11 3.11,2.22 0.3,0.67 0.4,1.32 0.28,2.2 -0.12,0.87 -0.51,1.25 -0.79,1.79 0.67,0 1.11,0.05 1.57,0.27 0.83,0.4 1.46,0.98 1.88,1.82 0.98,1.95 0.11,4.22 -1.85,5.13 -1.14,0.53 -0.42,-0.23 -1.14,1.6 -0.72,1.84 -1.99,3.5 -3.56,4.65 -1.89,1.38 -2.63,1.28 -3.63,1.76 0.01,0.39 0.12,1 0.15,1.41 0.02,0.42 0.04,0.94 0.11,1.37 0.18,1.22 0.35,4.18 0.5,5.56 0.2,1.87 0.68,3.87 -0.9,5.26 -0.48,0.42 -0.39,0.35 -0.98,0.65 -0.32,0.17 -0.68,0.27 -1.05,0.31zm-6.7 -28.47c1.18,-0.03 2.33,-0.9 2.89,-1.77 0.16,-0.24 0.43,-0.8 0.44,-1.18 0.27,0.07 2.09,1.96 4.56,0.72 0.79,-0.4 0.67,-0.53 1.06,-0.79 0.42,1.82 1.79,3.03 3.77,3.03 -0.61,1.15 -0.81,1.01 -0.81,2.66 0,1.36 0.88,2.41 1.7,2.96 -0.37,0.78 -0.24,1.03 -0.98,2.13l-0.67 0.88c-0.16,0.18 -0.18,0.27 -0.37,0.44 -0.18,0.16 -0.26,0.19 -0.45,0.37 -2.48,2.37 -7.21,2.39 -9.8,0.07 -0.59,-0.53 -1,-0.88 -1.48,-1.62 -0.3,-0.45 -0.92,-1.58 -0.97,-2.2 0.81,-0.19 1.92,-1.73 1.92,-3.03 0,-1.62 -0.21,-1.53 -0.81,-2.66z"/>
 </g>
</svg>
