<?xml version="1.0" encoding="UTF-8"?>
<!DOCTYPE svg PUBLIC "-//W3C//DTD SVG 1.1//EN" "http://www.w3.org/Graphics/SVG/1.1/DTD/svg11.dtd">
<!-- Creator: CorelDRAW 2019 (64-Bit) -->
<svg xmlns="http://www.w3.org/2000/svg" xml:space="preserve" width="11.4891mm" height="11.2312mm" version="1.1" style="shape-rendering:geometricPrecision; text-rendering:geometricPrecision; image-rendering:optimizeQuality; fill-rule:evenodd; clip-rule:evenodd"
viewBox="0 0 58.15 56.84"
 xmlns:xlink="http://www.w3.org/1999/xlink">
 <defs>
  <style type="text/css">
   <![CDATA[
    .fil0 {fill:black}
   ]]>
  </style>
 </defs>
 <g id="Layer_x0020_1">
  <metadata id="CorelCorpID_0Corel-Layer"/>
  <g id="_2443811689840">
   <path class="fil0" d="M8.72 22.96c0,0.86 0.1,1.52 0.35,2.2 0.1,0.28 0.25,0.57 0.36,0.83 0.11,0.27 0.31,0.57 0.36,0.82 -0.66,0 -1.1,0.06 -1.72,0.06 -1.35,-0 -4.22,-0.08 -5.22,0.18 -1.16,0.29 -2.41,1.54 -2.68,2.72 -0.09,0.37 -0.14,1.22 -0.16,2.27l0 7.41 0 0c0,0.15 0.23,0.34 0.34,0.43 0.39,0.35 1.07,0.28 1.39,-0.12 0.2,-0.24 0.29,-0.34 0.51,-0.56 1.22,-1.22 2.6,-1.94 4.57,-1.51 2.87,0.62 4.66,3.75 3.39,6.57 -0.13,0.3 -0.26,0.48 -0.44,0.75 -1.49,2.25 -4.54,2.87 -6.67,1.26 -0.58,-0.44 -0.44,-0.34 -0.94,-0.84 -0.69,-0.69 -0.4,-0.82 -1.38,-0.82 -0.37,0 -0.77,0.46 -0.77,0.83l0 8.19c0,0.41 0.79,1.72 1.37,2.19l0.72 0.53c0.18,0.11 0.88,0.49 1.12,0.49l23.73 0c0.53,0 1.81,-0.96 2.26,-1.53 0.31,-0.39 0.48,-0.81 0.64,-1.26 0.46,-1.38 0.23,-5.5 0.25,-7.23 0.01,-0.51 0.06,-0.46 -0.22,-0.73 -1.25,-1.21 -1.86,1.09 -4.76,1.09 -0.67,0 -1.39,-0.22 -1.86,-0.45 -0.3,-0.15 -0.44,-0.23 -0.72,-0.41 -1.18,-0.78 -2.11,-2.29 -2.11,-3.76 0,-1.25 0.29,-2.21 1,-3.09 0.53,-0.66 1.21,-1.23 2.08,-1.54 3.34,-1.2 4.62,1.08 5.53,1.08 1.03,0 1.07,-0.63 1.07,-1.54l0.06 -3.68c0,-0.32 -0,-0.63 0,-0.95 0,-0.42 -0.06,-0.59 -0.06,-0.95 -0.02,-1.88 -0.15,-3.03 -1.75,-4.24 -0.25,-0.19 -0.96,-0.64 -1.28,-0.68 -0.24,-0.03 -0.74,-0.01 -1,-0.01 -0.41,0 -0.62,-0.05 -0.95,-0.06 -0.64,-0.02 -1.32,0 -1.96,0 -0.73,0 -1.23,-0.06 -1.96,-0.06 0.98,-1.86 1.35,-3.01 0.98,-5.13 -0.09,-0.49 -0.22,-0.97 -0.37,-1.35 -0.32,-0.78 -0.8,-1.47 -1.39,-2.05 -1.24,-1.23 -2.22,-1.74 -3.93,-2 -0.3,-0.05 -0.55,-0.01 -0.85,-0.04 -1.41,-0.15 -2.81,0.4 -3.89,1.11 -0.39,0.26 -0.6,0.48 -0.96,0.76 -0.42,0.33 -1.2,1.44 -1.45,1.99 -0.29,0.65 -0.59,1.91 -0.59,2.85z"/>
   <path class="fil0" d="M32.69 5.99c-0.53,-0.14 -1.43,-1.78 -4.39,-1.78 -1.91,0 -3.68,0.92 -4.71,2.41 -1.36,1.96 -1.41,4.7 -0.06,6.69 0.22,0.32 0.4,0.5 0.66,0.76 0.56,0.56 0.85,0.75 1.6,1.13 1.19,0.6 1.73,0.57 3.05,0.57 0.25,0 0.33,-0.04 0.48,-0.05 0.2,-0.01 0.2,0.05 0.47,0.05 -0.02,0.23 -0.12,0.43 -0.18,0.65l-0.57 1.92c-0.26,0.92 -0.56,1.85 -0.56,2.94 0,1.35 0.99,2.44 2.12,2.92l3.81 1.23c-0.51,0.96 -1.72,1.97 -1.72,4.15 0,1.09 0.06,1.73 0.55,2.71 0.6,1.19 1.57,2.11 2.75,2.71 1.01,0.51 1.79,0.51 2.93,0.51 2.9,0 5.4,-2.83 5.4,-5.76 0,-0.58 -0.12,-0.92 -0.12,-1.48 0.31,0.07 0.72,0.2 1.02,0.29l3.13 0.9c0.83,0.18 1.44,0.22 2.28,-0.04 0.68,-0.21 1.19,-0.6 1.63,-1.1 0.69,-0.8 1.09,-2.84 1.46,-3.94l0.6 -2.07c0.11,-0.39 0.19,-0.68 0.3,-1.06 0.24,-0.83 0.44,-1.16 -0.02,-1.66 -1.07,-1.17 -2.16,1.54 -5.11,0.54 -1.04,-0.35 -1.8,-1.14 -2.24,-2.09 -0.37,-0.78 -0.34,-2.28 0.02,-3.03 0.36,-0.76 1.14,-1.53 1.9,-1.9 1.92,-0.92 3.99,-0.09 4.97,1.66 0.09,0.15 0.1,0.2 0.17,0.36 0.33,0.71 0.44,0.97 1.23,0.97 0.6,0 0.84,-0.88 1.02,-1.42 0.27,-0.81 1.59,-5.1 1.59,-5.88l0 -0.16c-0,-0.75 -0.02,-0.96 -0.39,-1.7 -0.24,-0.48 -0.45,-0.68 -0.81,-1.03 -0.46,-0.46 -1.92,-0.86 -2.6,-1.07 -1.86,-0.59 -3.72,-1.13 -5.61,-1.69 -2.81,-0.84 -7.1,-2.14 -9.97,-2.85 -0.59,-0.15 -1.12,-0.3 -1.65,-0.33l-0.42 0c-0.53,0.04 -1.07,0.22 -1.67,0.68 -0.52,0.39 -0.86,0.78 -1.13,1.42 -0.12,0.29 -1.18,3.51 -1.21,3.89z"/>
  </g>
 </g>
</svg>
