<?xml version="1.0" encoding="UTF-8"?>
<!DOCTYPE svg PUBLIC "-//W3C//DTD SVG 1.1//EN" "http://www.w3.org/Graphics/SVG/1.1/DTD/svg11.dtd">
<!-- Creator: CorelDRAW 2019 (64-Bit) -->
<svg xmlns="http://www.w3.org/2000/svg" xml:space="preserve" width="15.7634mm" height="8.9663mm" version="1.1" style="shape-rendering:geometricPrecision; text-rendering:geometricPrecision; image-rendering:optimizeQuality; fill-rule:evenodd; clip-rule:evenodd"
viewBox="0 0 113.27 64.43"
 xmlns:xlink="http://www.w3.org/1999/xlink">
 <defs>
  <style type="text/css">
   <![CDATA[
    .fil0 {fill:black}
    .fil2 {fill:#C6C6C6}
    .fil1 {fill:white}
   ]]>
  </style>
 </defs>
 <g id="Layer_x0020_1">
  <metadata id="CorelCorpID_0Corel-Layer"/>
  <g id="_2407484032896">
   <path class="fil0" d="M56.16 27.02c1.11,-0.22 7.84,-0.19 9.24,-0.06 3.3,0.29 3.19,4.66 0.44,5.22 -1.03,0.21 -8.14,0.19 -9.37,0.05 -3.16,-0.35 -3.28,-4.62 -0.32,-5.21zm4.44 -19c3.22,-0.55 8.65,2.33 10.65,3.72 2.23,1.55 5.73,4.8 6.83,7.36 0.41,0.53 0.24,-0.68 0.37,0.67l-31.35 -0.05 0.05 -12.09c2.29,-0.17 12.09,-0.51 13.44,0.4zm-39.52 11.06c0.04,-1.09 1.51,-5.86 2,-7.13 0.68,-1.78 2.66,-4.01 4.84,-3.93 0.29,-0.28 0.01,-0.16 0.54,-0.34l11.38 -0.07 -0.07 12.15 -19.01 -0.03 0.31 -0.64zm8.95 -19.09c-13.37,0 -14.25,11.2 -16.97,19.67 -0.83,2.59 -2.86,0.75 -4.85,7.14 2.67,0.55 6.76,-0.88 6.75,2.79 -0.02,3.46 -4.07,2.62 -6.91,2.67l-0.04 3.84c-2.67,0.88 -4.08,0.87 -5.83,2.97 -1.14,1.37 -2.33,3.73 -2.15,6.37 0.45,6.62 5.37,8.31 10.96,8.26 0.58,-6.31 0.34,-9.22 5.02,-14.8 2.29,-2.73 7.32,-6.44 12.71,-6.44 7,0 10.65,1.24 15.7,6.61 4.5,4.78 4.28,10.01 4.85,14.64l19.16 -0.12c0.33,-7.3 1.47,-11.02 5.28,-15.11 8.06,-8.65 20.42,-7.9 27.67,0.13 5.01,5.55 4.63,9.25 5.25,15.09 3.98,-0 6.57,-0.15 6.57,-4.62 0,-10.07 1.21,-12.74 -5.47,-12.96 -0.24,-3.31 0.34,-5.78 -0.69,-8.87 -3.13,-9.4 -12.84,-7.48 -20.23,-7.58 -5.68,-12.31 -15.26,-19.69 -29.11,-19.69l-27.66 0z"/>
   <path class="fil0" d="M28.55 47.99c5.25,-2.35 8.63,6.1 3.29,8.47 -2.68,1.19 -5.08,-0.5 -5.82,-2.38 -0.94,-2.39 -0.11,-4.91 2.52,-6.09zm13.15 6.05c0.95,-7.25 -3.88,-12.84 -9.73,-13.86 -6.78,-1.19 -12.65,4.12 -13.45,10.18 -0.97,7.32 3.94,13 9.83,13.93 6.87,1.08 12.56,-4.19 13.35,-10.25z"/>
   <path class="fil0" d="M86.2 47.85c5.81,-1.76 8.09,7.03 2.59,8.81 -5.61,1.81 -8.13,-7.13 -2.59,-8.81zm-10.31 6.19c0.75,5.85 6.33,11.25 13.16,10.28 5.99,-0.85 10.9,-6.46 10.06,-13.75 -0.7,-6.07 -6.36,-11.45 -13.26,-10.42 -5.92,0.88 -10.9,6.62 -9.96,13.9z"/>
   <path class="fil1" d="M78.08 19.1c-1.11,-2.56 -4.6,-5.82 -6.83,-7.36 -2.01,-1.39 -7.43,-4.27 -10.65,-3.72 -0.24,0.06 -11.79,-0.15 -13.22,-0.18l0 11.59 29.93 0c0.92,-0.13 0.35,0.05 0.77,-0.33z"/>
   <path class="fil1" d="M21.07 19.09c0.45,0.68 7.76,0.33 8.95,0.33 3.17,0 6.38,0.06 9.54,-0.02l-0.01 -11.5c-3.83,-0.19 -8.09,0.26 -11.63,0.13 -2.18,-0.08 -4.16,2.15 -4.84,3.93 -0.49,1.28 -1.96,6.05 -2,7.13z"/>
   <path class="fil1" d="M56.16 27.02c-2.97,0.59 -2.84,4.86 0.32,5.21 1.23,0.13 8.34,0.16 9.37,-0.05 2.74,-0.56 2.86,-4.93 -0.44,-5.22 -1.4,-0.12 -8.14,-0.16 -9.24,0.06z"/>
   <path class="fil1" d="M86.2 47.85c-5.55,1.68 -3.02,10.61 2.59,8.81 5.51,-1.78 3.22,-10.57 -2.59,-8.81z"/>
   <path class="fil1" d="M28.55 47.99c-2.63,1.18 -3.46,3.7 -2.52,6.09 0.74,1.88 3.13,3.58 5.82,2.38 5.34,-2.38 1.96,-10.83 -3.29,-8.47z"/>
   <path class="fil2" d="M78.08 19.1c-0.42,0.38 0.15,0.2 -0.77,0.33l-29.93 -0 0 -11.59c1.43,0.03 12.98,0.25 13.22,0.18 -1.35,-0.91 -11.15,-0.56 -13.44,-0.4l-0.05 12.09 31.35 0.05c-0.13,-1.35 0.04,-0.14 -0.37,-0.67z"/>
   <path class="fil2" d="M21.07 19.09l-0.31 0.64 19.01 0.03 0.07 -12.15 -11.38 0.07c-0.53,0.17 -0.25,0.06 -0.54,0.34 3.54,0.13 7.81,-0.32 11.63,-0.13l0.01 11.5c-3.16,0.08 -6.38,0.02 -9.54,0.02 -1.19,0 -8.5,0.35 -8.95,-0.33z"/>
  </g>
 </g>
</svg>
