<?xml version="1.0" encoding="UTF-8"?>
<!DOCTYPE svg PUBLIC "-//W3C//DTD SVG 1.1//EN" "http://www.w3.org/Graphics/SVG/1.1/DTD/svg11.dtd">
<!-- Creator: CorelDRAW 2019 (64-Bit) -->
<svg xmlns="http://www.w3.org/2000/svg" xml:space="preserve" width="9.6284mm" height="10.0952mm" version="1.1" style="shape-rendering:geometricPrecision; text-rendering:geometricPrecision; image-rendering:optimizeQuality; fill-rule:evenodd; clip-rule:evenodd"
viewBox="0 0 29.88 31.33"
 xmlns:xlink="http://www.w3.org/1999/xlink">
 <defs>
  <style type="text/css">
   <![CDATA[
    .fil0 {fill:black}
    .fil2 {fill:#3D3D3D}
    .fil3 {fill:#6C6C6C}
    .fil1 {fill:#888888}
   ]]>
  </style>
 </defs>
 <g id="Layer_x0020_1">
  <metadata id="CorelCorpID_0Corel-Layer"/>
  <g id="_2407696980928">
   <path class="fil0" d="M18.23 25.04c0.01,-0.07 0,-0.12 0.03,-0.19 0.06,-0.21 0.04,-0.1 0.08,-0.15 0.34,-1.29 1.82,-2.51 3.55,-2.26 1.47,0.22 2.74,1.49 2.77,3.14 0.06,3.55 -4.97,4.63 -6.28,1.12 -0.01,-0.01 -0.02,-0.03 -0.02,-0.04l-0.06 -0.24c-0.1,-0.62 -0.04,-0.82 -0.05,-1.38zm-6.69 -0.34c0.03,0.05 0.02,-0.04 0.08,0.15 0.02,0.07 0.02,0.13 0.03,0.19 -0.02,0.57 0.05,0.77 -0.05,1.38 -0.02,0.17 0.02,-0 -0.02,0.16 -0.02,0.07 -0.04,0.09 -0.04,0.08 -0,-0.01 -0.02,0.02 -0.02,0.04 -0.47,1.25 -1.81,2.44 -3.65,2.11 -1.43,-0.26 -2.69,-1.61 -2.63,-3.28 0.05,-1.64 1.32,-2.89 2.81,-3.09 1.71,-0.23 3.17,1 3.5,2.26zm-0.3 -10.65c0.02,-0.12 -0.01,-0.03 0.03,-0.15 0.06,-0.19 0.02,-0.04 0.07,-0.12 0.37,-0.48 0.48,-1.33 1.28,-0.92 0.53,0.27 1.08,0.59 1.61,0.84 0.18,-0.15 0.32,-0.36 0.67,-0.37 0.37,-0.01 0.56,0.18 0.67,0.38 0.29,-0.09 0.76,-0.38 1.05,-0.53 0.26,-0.13 0.82,-0.55 1.13,-0.42 0.54,0.24 1.44,2.05 0.68,3.56 -0.91,1.81 -1.22,0.53 -2.87,-0.04 -0.1,0.2 -0.3,0.39 -0.66,0.38 -0.37,-0.01 -0.47,-0.21 -0.67,-0.37 -1.57,0.75 -1.89,1.36 -2.45,0.64 -0.65,-0.84 -0.8,-1.65 -0.53,-2.89zm0.02 -3.92c-0.14,-0.22 -0.07,-0.78 -0.04,-1.04l0.09 -0.31c0.07,-1.19 1.05,-2.26 2.06,-2.47l0.31 -0.11c0.52,-0.01 0.93,-0.12 1.52,-0.09 1.35,0.06 2.54,0.5 3.09,1.8 0.62,1.46 0.59,4.07 -1.97,3.85 -0.08,-0.01 -0.12,-0.01 -0.19,-0.04 -0.09,-0.04 -0.05,-0.03 -0.1,-0.07 -0.77,-0.2 -0.63,-0.64 -0.63,-1.01 0,-0.48 -0.04,-1.14 0.02,-1.59 0.13,-0.14 0.17,-0.13 0.28,-0.23 0.07,-0.07 0.16,-0.19 0.23,-0.29 0.12,-0.17 0.25,-0.45 0.26,-0.71 0.02,-0.65 -0.68,-0.75 -1.28,-0.75 -0.62,0 -1.3,0.12 -1.24,0.8 0.05,0.6 0.45,0.91 0.77,1.18 0.01,0.45 0.08,1.91 -0.02,2.23 -0.35,0.47 -1.34,0.68 -2.05,0.37 -0.46,-0.2 -1.14,-0.8 -1.09,-1.5zm5.34 -5.56c0.65,-0.3 1.02,0.72 0.42,0.96 -0.67,0.27 -1.1,-0.65 -0.42,-0.96zm-3.68 -0.03c0.7,-0.2 0.93,0.8 0.36,1 -0.73,0.26 -1.04,-0.8 -0.36,-1zm6.86 -2.44c0.4,-0.27 0.71,-0.59 1.48,-0.46 1.78,0.29 1.77,2.94 0.1,3.23 -0.14,-0.19 -0.32,-0.94 -0.68,-1.51l-0.9 -1.25zm-11.25 2.68l-0.07 0.11 -0.11 -0.07c-0.86,-0.21 -1.48,-1.44 -0.87,-2.42 0.6,-0.97 1.91,-1.03 2.57,-0.3 -0.05,0.12 -1.38,1.53 -1.53,2.68zm-0.16 3.46c0.02,0.04 0.04,0.05 0.07,0.16 0.02,0.07 0.02,0.13 0.02,0.19 0.13,0.53 0.34,0.97 0.58,1.41 0.26,0.46 0.75,1.08 0.81,1.2 -0.44,0.2 -0.98,0.55 -1.41,0.79l-6.93 3.96c-0.97,0.56 -1.56,1.28 -1.51,2.79 0.1,0.19 0.07,0.18 0.09,0.33 0.08,0.65 0.66,1.22 1.01,1.49 0.56,0.42 1.1,0.5 1.95,0.49 0.04,-0.02 -0.02,-0.01 0.11,-0.06 0.02,-0.01 0.06,-0.02 0.08,-0.02 0.08,-0.02 0.14,-0.01 0.19,-0.02l0.28 -0.1c0.29,-0.15 0.51,-0.28 0.79,-0.43 0.2,-0.11 0.61,-0.44 0.77,-0.37l-0.1 0.25c-0.08,0.32 -0.21,0.84 -0.47,1.05 -0.69,0.57 -1.68,1.96 -1.71,2.75l-0.13 0.36c-0.01,0.36 -0.1,0.74 -0.11,1.16 -0,0.44 0.09,0.78 0.1,1.17l0.13 0.36c0.02,0.39 0.4,1.09 0.58,1.4 0.28,0.47 0.51,0.74 0.86,1.09 0.52,0.52 1.8,1.42 2.5,1.44l0.37 0.13c0.33,0.02 0.63,0.09 1,0.1 1.61,0.04 2.83,-0.53 3.99,-1.5 0.2,-0.17 0.33,-0.33 0.53,-0.55 0.86,-0.92 -0.19,-0.61 2.11,-0.59 2.22,0.02 1.25,-0.4 2.11,0.59 0.89,1.03 2.03,1.71 3.43,1.97 1.08,0.2 1.49,-0.02 1.99,0.02 0.07,-0.07 -0.03,-0.01 0.09,-0.06 0.02,-0.01 0.1,-0.03 0.13,-0.04 0.09,-0.02 0.17,-0.05 0.26,-0.07 0.35,-0.01 1.14,-0.41 1.41,-0.58 0.46,-0.29 0.75,-0.52 1.09,-0.86 0.53,-0.53 1.4,-1.77 1.44,-2.49l0.13 -0.36c0.01,-0.43 0.12,-0.82 0.1,-1.33 -0.02,-0.45 -0.08,-0.78 -0.16,-1.21 -0.02,-0.03 -0.03,-0.01 -0.06,-0.12 -0.04,-0.12 -0,0 -0.03,-0.16 -0.24,-0.86 -0.89,-1.89 -1.45,-2.42 -0.12,-0.11 -0.33,-0.24 -0.41,-0.36 -0.08,-0.11 -0.35,-0.97 -0.4,-1.14 -0.03,-0.04 -0.12,0.04 -0.03,-0.13 0.16,0.02 0.1,0.05 0.13,0.09 0.34,0.26 1.03,0.61 1.45,0.82l0.28 0.1c0.07,0.01 0.15,0.01 0.23,0.03 0.21,0.05 0.11,0.04 0.15,0.07 1.09,0.02 1.52,-0.13 2.18,-0.67 0.44,-0.36 0.87,-1.13 0.87,-2 0.01,-1.84 -1.44,-2.35 -2.64,-3.06l-7.25 -4.18c0.33,-0.57 0.67,-0.71 1.18,-2 0.37,-0.96 0.38,-1.59 0.45,-2.68 1.39,-0.33 2.49,-1.37 2.61,-3.03 0.11,-1.54 -1.11,-3.06 -2.29,-3.28l-0.32 -0.1c-0.7,-0.09 -1.18,-0.1 -1.83,0.16 -0.84,0.33 -1,0.69 -1.31,0.87 -0.84,-0.47 -1.55,-0.82 -2.63,-0.97 -1.4,-0.19 -1.95,0.01 -3.14,0.3l-0.25 0.11c-0.44,0.12 -0.79,0.42 -1.13,0.54 -0.37,-0.26 -0.48,-0.52 -1.18,-0.81 -1.57,-0.65 -3.24,0 -4.06,1.33 -0.59,0.97 -0.62,2.11 -0.12,3.15 0.49,1.01 1.23,1.4 2.21,1.73 0.02,0.7 0.05,1.11 0.17,1.78z"/>
   <path class="fil1" d="M11.25 10.13c-0.02,-0.52 0.02,-0.85 0.05,-1.35l-0.09 0.31c-0.03,0.26 -0.1,0.82 0.04,1.04z"/>
   <path class="fil1" d="M22.46 31.26c0.11,-0.01 0.14,-0.01 0.26,-0.05 0.02,-0.01 0.09,-0.03 0.12,-0.04 0.12,-0.06 0.02,0 0.09,-0.07 -0.08,0.02 -0.17,0.04 -0.26,0.07 -0.02,0.01 -0.11,0.03 -0.13,0.04 -0.13,0.05 -0.02,-0.01 -0.09,0.06z"/>
   <path class="fil1" d="M2.87 24.47l0.13 -0.36c-0.1,0.09 -0.01,-0.11 -0.1,0.12 -0.03,0.08 -0.03,0.16 -0.03,0.24z"/>
   <path class="fil1" d="M8.46 8.59c-0.01,-0.07 -0,-0.12 -0.02,-0.19 -0.03,-0.11 -0.05,-0.12 -0.07,-0.16 0.02,0.19 0.02,0.21 0.1,0.35z"/>
   <path class="fil2" d="M24.61 20.08c0.03,-0.06 -0.07,-0.06 0.1,-0.04 -0.03,-0.04 0.03,-0.07 -0.13,-0.09 -0.09,0.17 -0.01,0.09 0.03,0.13z"/>
   <path class="fil3" d="M0.09 19.08c-0.01,-0.15 0.02,-0.15 -0.09,-0.33 0.02,0.2 -0,0.18 0.09,0.33z"/>
   <path class="fil1" d="M7.31 31.23l-0.37 -0.13c0.06,0.06 -0.06,0.03 0.17,0.1 0.08,0.02 0.12,0.02 0.2,0.03z"/>
   <path class="fil1" d="M26.88 27.17c0.1,-0.11 -0,0.12 0.09,-0.14 0.03,-0.07 0.03,-0.15 0.04,-0.22l-0.13 0.36z"/>
   <path class="fil1" d="M2.99 27.17l-0.13 -0.36c0.01,0.05 0.01,0.12 0.03,0.18 0.06,0.2 0.04,0.11 0.1,0.18z"/>
   <path class="fil3" d="M26.83 21.06c-0.05,-0.03 0.06,-0.02 -0.15,-0.07 -0.08,-0.02 -0.16,-0.02 -0.23,-0.03l0.39 0.1z"/>
   <path class="fil1" d="M26.96 24.27c-0.02,-0.11 0.01,-0.04 -0.03,-0.15 -0,-0.01 -0.01,-0.03 -0.02,-0.04 -0,-0.01 -0.02,-0.03 -0.02,-0.04 -0,-0.01 -0.02,-0.03 -0.02,-0.04 0.02,0.17 -0.01,0.04 0.03,0.16 0.04,0.1 0.04,0.09 0.06,0.12z"/>
   <path class="fil3" d="M3.05 21.06l0.39 -0.1c-0.06,0 -0.12,0 -0.19,0.02 -0.02,0 -0.06,0.01 -0.08,0.02 -0.14,0.05 -0.07,0.04 -0.11,0.06z"/>
   <path class="fil3" d="M18.23 25.04l0.11 -0.34c-0.04,0.05 -0.02,-0.06 -0.08,0.15 -0.02,0.08 -0.02,0.12 -0.03,0.19z"/>
   <path class="fil3" d="M11.65 25.04c-0.01,-0.06 -0,-0.12 -0.03,-0.19 -0.06,-0.19 -0.05,-0.1 -0.08,-0.15l0.11 0.34z"/>
   <path class="fil1" d="M13.36 6.31c0.09,-0.01 0.11,-0 0.19,-0.03 0.08,-0.03 0.07,-0.04 0.12,-0.08l-0.31 0.11z"/>
   <path class="fil3" d="M21.94 0.16c-0.09,-0.06 0.09,-0 -0.11,-0.07 -0.08,-0.02 -0.12,-0.02 -0.21,-0.03l0.32 0.1z"/>
   <path class="fil1" d="M16.31 11.75l-0.29 -0.11c0.05,0.05 0.01,0.04 0.1,0.07 0.07,0.03 0.11,0.03 0.19,0.04z"/>
   <path class="fil3" d="M8.35 4.83l0.11 0.07 0.07 -0.11c-0.1,0.05 -0.02,0.03 -0.17,0.04z"/>
   <path class="fil3" d="M11.24 14.05l0.09 -0.27c-0.05,0.08 -0.01,-0.07 -0.07,0.12 -0.04,0.12 -0.01,0.04 -0.03,0.15z"/>
   <path class="fil3" d="M11.51 26.7c0.01,-0.01 0.02,-0.05 0.02,-0.04 0,0.01 0.02,-0.01 0.04,-0.08 0.05,-0.16 0,0.01 0.02,-0.16l-0.09 0.28z"/>
   <path class="fil1" d="M12.47 0.53l0.25 -0.11c-0.17,0.03 -0.02,-0.03 -0.14,0.03 -0.18,0.08 -0.01,-0.01 -0.1,0.07z"/>
   <path class="fil3" d="M18.37 26.7l-0.09 -0.28 0.06 0.24c0,0.01 0.02,0.02 0.02,0.04z"/>
   <polygon class="fil1" points="5.18,20.31 5.27,20.06 "/>
   <polygon class="fil1" points="26.44,20.96 26.16,20.86 "/>
   <polygon class="fil1" points="3.43,20.96 3.71,20.86 "/>
  </g>
 </g>
</svg>
