<?xml version="1.0" encoding="UTF-8"?>
<!DOCTYPE svg PUBLIC "-//W3C//DTD SVG 1.1//EN" "http://www.w3.org/Graphics/SVG/1.1/DTD/svg11.dtd">
<!-- Creator: CorelDRAW 2019 (64-Bit) -->
<svg xmlns="http://www.w3.org/2000/svg" xml:space="preserve" width="9.5623mm" height="9.5623mm" version="1.1" style="shape-rendering:geometricPrecision; text-rendering:geometricPrecision; image-rendering:optimizeQuality; fill-rule:evenodd; clip-rule:evenodd"
viewBox="0 0 39.94 39.94"
 xmlns:xlink="http://www.w3.org/1999/xlink">
 <defs>
  <style type="text/css">
   <![CDATA[
    .fil0 {fill:black}
   ]]>
  </style>
 </defs>
 <g id="Layer_x0020_1">
  <metadata id="CorelCorpID_0Corel-Layer"/>
  <g id="_2407521049312">
   <path class="fil0" d="M12.84 25.67l14.26 0 0 2.85 -14.26 0 0 -2.85zm8.56 -7.85c0,-0.45 0.17,-1.12 0.33,-1.45 0.18,-0.37 0.45,-0.8 0.72,-1.07 2.24,-2.24 6.08,-0.59 6.08,2.52 0,3.6 -5.04,5.08 -6.8,1.45 -0.16,-0.33 -0.33,-1.01 -0.33,-1.45zm-9.98 0c0,-2.51 2.73,-4.34 5.02,-3.23 0.37,0.18 0.8,0.45 1.07,0.72 1.37,1.37 1.37,3.66 0,5.03 -0.27,0.27 -0.7,0.54 -1.07,0.72 -0.88,0.43 -2.02,0.43 -2.9,0 -0.88,-0.43 -1.36,-0.9 -1.78,-1.78 -0.16,-0.33 -0.33,-1.01 -0.33,-1.45zm-4.28 -5.28l0 20.25 25.67 0 0 -20.25c0,-2.79 -2.63,-5.42 -5.42,-5.42l-14.83 0c-1.55,0 -2.97,0.86 -3.76,1.66 -0.79,0.79 -1.66,2.21 -1.66,3.76z"/>
   <polygon class="fil0" points="1.43,39.94 38.51,39.94 38.51,34.23 1.43,34.23 "/>
   <path class="fil0" d="M-0 18.33l0 6.13c0,1.32 1.32,2.64 2.64,2.64l3.07 0 0 -11.41 -3.07 0c-1.32,0 -2.64,1.32 -2.64,2.64z"/>
   <path class="fil0" d="M34.23 27.1l3.07 0c1.32,0 2.64,-1.32 2.64,-2.64l0 -6.13c0,-1.32 -1.32,-2.64 -2.64,-2.64l-3.07 0 0 11.41z"/>
   <path class="fil0" d="M14.34 5.71l11.27 0c0,-2.62 -2.58,-5.71 -5.28,-5.71l-0.71 0c-2.73,0 -5.28,3.11 -5.28,5.71z"/>
   <path class="fil0" d="M1.43 3.35l0 0.43c0,0.81 0.75,1.63 1.43,1.78l0 8.7 1.43 0 0 -8.7c0.77,-0.18 1.43,-1.08 1.43,-1.78l0 -0.43c0,-0.92 -1.01,-1.93 -1.93,-1.93l-0.43 0c-0.92,0 -1.93,1.01 -1.93,1.93z"/>
   <path class="fil0" d="M12.84 17.62l0 0.43c0,0.92 1.01,1.93 1.93,1.93l0.43 0c0.92,0 1.93,-1.01 1.93,-1.93l0 -0.43c0,-0.92 -1.01,-1.93 -1.93,-1.93l-0.43 0c-0.92,0 -1.93,1.01 -1.93,1.93z"/>
   <path class="fil0" d="M22.82 17.62l0 0.43c0,0.92 1.01,1.93 1.93,1.93l0.43 0c0.92,0 1.93,-1.01 1.93,-1.93l0 -0.43c0,-0.92 -1.01,-1.93 -1.93,-1.93l-0.43 0c-0.92,0 -1.93,1.01 -1.93,1.93z"/>
  </g>
 </g>
</svg>
