<?xml version="1.0" encoding="UTF-8"?>
<!DOCTYPE svg PUBLIC "-//W3C//DTD SVG 1.1//EN" "http://www.w3.org/Graphics/SVG/1.1/DTD/svg11.dtd">
<!-- Creator: CorelDRAW 2019 (64-Bit) -->
<svg xmlns="http://www.w3.org/2000/svg" xml:space="preserve" width="8.2542mm" height="7.9265mm" version="1.1" style="shape-rendering:geometricPrecision; text-rendering:geometricPrecision; image-rendering:optimizeQuality; fill-rule:evenodd; clip-rule:evenodd"
viewBox="0 0 12.52 12.02"
 xmlns:xlink="http://www.w3.org/1999/xlink">
 <defs>
  <style type="text/css">
   <![CDATA[
    .fil0 {fill:black}
    .fil2 {fill:#3D3D3D}
    .fil3 {fill:#6C6C6C}
    .fil1 {fill:#888888}
   ]]>
  </style>
 </defs>
 <g id="Layer_x0020_1">
  <metadata id="CorelCorpID_0Corel-Layer"/>
  <g id="_2407422996880">
   <path class="fil0" d="M7.64 9.61c0,-0.03 0,-0.04 0.01,-0.07 0.03,-0.08 0.02,-0.04 0.03,-0.06 0.14,-0.5 0.76,-0.96 1.49,-0.87 0.62,0.08 1.15,0.57 1.16,1.2 0.03,1.36 -2.08,1.78 -2.63,0.43 -0,-0.01 -0.01,-0.01 -0.01,-0.01l-0.03 -0.09c-0.04,-0.24 -0.02,-0.31 -0.02,-0.53zm-2.8 -0.13c0.01,0.02 0.01,-0.01 0.03,0.06 0.01,0.03 0.01,0.05 0.01,0.07 -0.01,0.22 0.02,0.29 -0.02,0.53 -0.01,0.07 0.01,-0 -0.01,0.06 -0.01,0.03 -0.02,0.04 -0.02,0.03 -0,-0 -0.01,0.01 -0.01,0.01 -0.2,0.48 -0.76,0.94 -1.53,0.81 -0.6,-0.1 -1.12,-0.62 -1.1,-1.26 0.02,-0.63 0.55,-1.11 1.18,-1.19 0.72,-0.09 1.33,0.38 1.47,0.87zm-0.12 -4.09c0.01,-0.04 -0.01,-0.01 0.01,-0.06 0.02,-0.07 0.01,-0.02 0.03,-0.05 0.15,-0.18 0.2,-0.51 0.54,-0.35 0.22,0.1 0.45,0.23 0.67,0.32 0.07,-0.06 0.13,-0.14 0.28,-0.14 0.15,-0 0.23,0.07 0.28,0.14 0.12,-0.04 0.32,-0.15 0.44,-0.2 0.11,-0.05 0.34,-0.21 0.47,-0.16 0.23,0.09 0.6,0.79 0.29,1.37 -0.38,0.69 -0.51,0.2 -1.2,-0.01 -0.04,0.08 -0.12,0.15 -0.28,0.15 -0.16,-0 -0.2,-0.08 -0.28,-0.14 -0.66,0.29 -0.79,0.52 -1.02,0.25 -0.27,-0.32 -0.33,-0.63 -0.22,-1.11zm0.01 -1.5c-0.06,-0.08 -0.03,-0.3 -0.02,-0.4l0.04 -0.12c0.03,-0.46 0.44,-0.87 0.86,-0.95l0.13 -0.04c0.22,-0.01 0.39,-0.05 0.64,-0.04 0.56,0.02 1.06,0.19 1.29,0.69 0.26,0.56 0.25,1.56 -0.82,1.48 -0.03,-0.01 -0.05,-0 -0.08,-0.02 -0.04,-0.01 -0.02,-0.01 -0.04,-0.03 -0.32,-0.08 -0.27,-0.24 -0.27,-0.39 0,-0.18 -0.02,-0.44 0.01,-0.61 0.06,-0.05 0.07,-0.05 0.12,-0.09 0.03,-0.03 0.07,-0.07 0.09,-0.11 0.05,-0.06 0.11,-0.17 0.11,-0.27 0.01,-0.25 -0.28,-0.29 -0.54,-0.29 -0.26,0 -0.54,0.05 -0.52,0.31 0.02,0.23 0.19,0.35 0.32,0.45 0.01,0.17 0.03,0.73 -0.01,0.85 -0.15,0.18 -0.56,0.26 -0.86,0.14 -0.19,-0.08 -0.48,-0.31 -0.46,-0.58zm2.24 -2.13c0.27,-0.11 0.43,0.28 0.18,0.37 -0.28,0.1 -0.46,-0.25 -0.18,-0.37zm-1.54 -0.01c0.29,-0.08 0.39,0.31 0.15,0.38 -0.31,0.1 -0.44,-0.31 -0.15,-0.38zm2.87 -0.94c0.17,-0.1 0.3,-0.22 0.62,-0.18 0.74,0.11 0.74,1.13 0.04,1.24 -0.06,-0.07 -0.13,-0.36 -0.29,-0.58l-0.38 -0.48zm-4.71 1.03l-0.03 0.04 -0.04 -0.03c-0.36,-0.08 -0.62,-0.55 -0.37,-0.93 0.25,-0.37 0.8,-0.4 1.08,-0.12 -0.02,0.04 -0.58,0.59 -0.64,1.03zm-0.07 1.33c0.01,0.01 0.02,0.02 0.03,0.06 0.01,0.03 0.01,0.05 0.01,0.07 0.06,0.2 0.14,0.37 0.24,0.54 0.11,0.18 0.31,0.41 0.34,0.46 -0.19,0.08 -0.41,0.21 -0.59,0.3l-2.9 1.52c-0.41,0.21 -0.65,0.49 -0.63,1.07 0.04,0.07 0.03,0.07 0.04,0.13 0.03,0.25 0.28,0.47 0.42,0.57 0.24,0.16 0.46,0.19 0.82,0.19 0.02,-0.01 -0.01,-0.01 0.05,-0.02 0.01,-0 0.03,-0.01 0.03,-0.01 0.03,-0.01 0.06,-0.01 0.08,-0.01l0.12 -0.04c0.12,-0.06 0.21,-0.11 0.33,-0.16 0.08,-0.04 0.26,-0.17 0.32,-0.14l-0.04 0.1c-0.03,0.12 -0.09,0.32 -0.2,0.4 -0.29,0.22 -0.7,0.75 -0.72,1.05l-0.06 0.14c-0,0.14 -0.04,0.28 -0.04,0.45 -0,0.17 0.04,0.3 0.04,0.45l0.06 0.14c0.01,0.15 0.17,0.42 0.24,0.54 0.12,0.18 0.21,0.28 0.36,0.42 0.22,0.2 0.75,0.55 1.05,0.55l0.15 0.05c0.14,0.01 0.26,0.04 0.42,0.04 0.67,0.01 1.19,-0.2 1.67,-0.58 0.08,-0.06 0.14,-0.13 0.22,-0.21 0.36,-0.35 -0.08,-0.23 0.88,-0.22 0.93,0.01 0.52,-0.15 0.88,0.23 0.37,0.39 0.85,0.66 1.44,0.75 0.45,0.07 0.63,-0.01 0.83,0.01 0.03,-0.03 -0.01,-0 0.04,-0.02 0.01,-0 0.04,-0.01 0.05,-0.01 0.04,-0.01 0.07,-0.02 0.11,-0.03 0.15,-0 0.48,-0.16 0.59,-0.22 0.19,-0.11 0.31,-0.2 0.46,-0.33 0.22,-0.2 0.59,-0.68 0.6,-0.96l0.06 -0.14c0,-0.16 0.05,-0.31 0.04,-0.51 -0.01,-0.17 -0.03,-0.3 -0.07,-0.46 -0.01,-0.01 -0.01,-0.01 -0.03,-0.05 -0.02,-0.05 -0,0 -0.01,-0.06 -0.1,-0.33 -0.37,-0.72 -0.61,-0.93 -0.05,-0.04 -0.14,-0.09 -0.17,-0.14 -0.03,-0.04 -0.15,-0.37 -0.17,-0.44 -0.01,-0.01 -0.05,0.01 -0.01,-0.05 0.07,0.01 0.04,0.02 0.05,0.04 0.14,0.1 0.43,0.23 0.61,0.32l0.12 0.04c0.03,0 0.06,0 0.1,0.01 0.09,0.02 0.04,0.02 0.06,0.03 0.46,0.01 0.64,-0.05 0.91,-0.26 0.19,-0.14 0.36,-0.43 0.37,-0.77 0,-0.71 -0.6,-0.9 -1.1,-1.18l-3.04 -1.6c0.14,-0.22 0.28,-0.27 0.49,-0.77 0.16,-0.37 0.16,-0.61 0.19,-1.03 0.58,-0.13 1.04,-0.53 1.09,-1.16 0.05,-0.59 -0.47,-1.17 -0.96,-1.26l-0.13 -0.04c-0.29,-0.04 -0.49,-0.04 -0.77,0.06 -0.35,0.13 -0.42,0.26 -0.55,0.33 -0.35,-0.18 -0.65,-0.31 -1.1,-0.37 -0.59,-0.07 -0.82,0 -1.32,0.11l-0.1 0.04c-0.18,0.05 -0.33,0.16 -0.47,0.21 -0.15,-0.1 -0.2,-0.2 -0.5,-0.31 -0.66,-0.25 -1.36,0 -1.7,0.51 -0.25,0.37 -0.26,0.81 -0.05,1.21 0.2,0.39 0.52,0.54 0.93,0.66 0.01,0.27 0.02,0.42 0.07,0.68z"/>
   <path class="fil1" d="M4.71 3.89c-0.01,-0.2 0.01,-0.32 0.02,-0.52l-0.04 0.12c-0.01,0.1 -0.04,0.32 0.02,0.4z"/>
   <path class="fil1" d="M9.41 11.99c0.05,-0 0.06,-0.01 0.11,-0.02 0.01,-0 0.04,-0.01 0.05,-0.02 0.05,-0.02 0.01,0 0.04,-0.03 -0.03,0.01 -0.07,0.02 -0.11,0.03 -0.01,0 -0.05,0.01 -0.05,0.01 -0.05,0.02 -0.01,-0 -0.04,0.02z"/>
   <path class="fil1" d="M1.2 9.39l0.06 -0.14c-0.04,0.03 -0,-0.04 -0.04,0.05 -0.01,0.03 -0.01,0.06 -0.01,0.09z"/>
   <path class="fil1" d="M3.55 3.3c-0,-0.03 -0,-0.05 -0.01,-0.07 -0.01,-0.04 -0.02,-0.05 -0.03,-0.06 0.01,0.07 0.01,0.08 0.04,0.13z"/>
   <path class="fil2" d="M10.31 7.7c0.01,-0.02 -0.03,-0.02 0.04,-0.01 -0.01,-0.01 0.01,-0.03 -0.05,-0.04 -0.04,0.06 -0,0.03 0.01,0.05z"/>
   <path class="fil3" d="M0.04 7.32c-0.01,-0.06 0.01,-0.06 -0.04,-0.13 0.01,0.08 -0,0.07 0.04,0.13z"/>
   <path class="fil1" d="M3.06 11.98l-0.15 -0.05c0.02,0.02 -0.03,0.01 0.07,0.04 0.03,0.01 0.05,0.01 0.08,0.01z"/>
   <path class="fil1" d="M11.26 10.42c0.04,-0.04 -0,0.05 0.04,-0.05 0.01,-0.03 0.01,-0.06 0.02,-0.09l-0.06 0.14z"/>
   <path class="fil1" d="M1.25 10.42l-0.06 -0.14c0,0.02 0,0.05 0.01,0.07 0.03,0.08 0.02,0.04 0.04,0.07z"/>
   <path class="fil3" d="M11.24 8.08c-0.02,-0.01 0.02,-0.01 -0.06,-0.03 -0.03,-0.01 -0.07,-0.01 -0.1,-0.01l0.16 0.04z"/>
   <path class="fil1" d="M11.29 9.31c-0.01,-0.04 0.01,-0.01 -0.01,-0.06 -0,-0.01 -0.01,-0.01 -0.01,-0.02 -0,-0.01 -0.01,-0.01 -0.01,-0.02 -0,-0 -0.01,-0.01 -0.01,-0.02 0.01,0.06 -0.01,0.02 0.01,0.06 0.02,0.04 0.02,0.03 0.03,0.05z"/>
   <path class="fil3" d="M1.28 8.08l0.16 -0.04c-0.02,0 -0.05,0 -0.08,0.01 -0.01,0 -0.03,0.01 -0.03,0.01 -0.06,0.02 -0.03,0.01 -0.05,0.02z"/>
   <path class="fil3" d="M7.64 9.61l0.05 -0.13c-0.02,0.02 -0.01,-0.02 -0.03,0.06 -0.01,0.03 -0.01,0.05 -0.01,0.07z"/>
   <path class="fil3" d="M4.88 9.61c-0,-0.02 -0,-0.05 -0.01,-0.07 -0.02,-0.07 -0.02,-0.04 -0.03,-0.06l0.05 0.13z"/>
   <path class="fil1" d="M5.6 2.42c0.04,-0 0.05,-0 0.08,-0.01 0.04,-0.01 0.03,-0.02 0.05,-0.03l-0.13 0.04z"/>
   <path class="fil3" d="M9.19 0.06c-0.04,-0.02 0.04,-0 -0.05,-0.03 -0.03,-0.01 -0.05,-0.01 -0.09,-0.01l0.13 0.04z"/>
   <path class="fil1" d="M6.83 4.51l-0.12 -0.04c0.02,0.02 0,0.01 0.04,0.03 0.03,0.01 0.05,0.01 0.08,0.02z"/>
   <path class="fil3" d="M3.5 1.85l0.04 0.03 0.03 -0.04c-0.04,0.02 -0.01,0.01 -0.07,0.02z"/>
   <path class="fil3" d="M4.71 5.39l0.04 -0.1c-0.02,0.03 -0,-0.03 -0.03,0.05 -0.02,0.05 -0,0.01 -0.01,0.06z"/>
   <path class="fil3" d="M4.82 10.24c0,-0.01 0.01,-0.02 0.01,-0.01 0,0 0.01,-0.01 0.02,-0.03 0.02,-0.06 0,0 0.01,-0.06l-0.04 0.11z"/>
   <path class="fil1" d="M5.22 0.2l0.1 -0.04c-0.07,0.01 -0.01,-0.01 -0.06,0.01 -0.08,0.03 -0,-0 -0.04,0.03z"/>
   <path class="fil3" d="M7.69 10.24l-0.04 -0.11 0.03 0.09c0,0 0.01,0.01 0.01,0.01z"/>
   <polygon class="fil1" points="2.17,7.79 2.21,7.7 "/>
   <polygon class="fil1" points="11.08,8.04 10.96,8 "/>
   <polygon class="fil1" points="1.44,8.04 1.56,8 "/>
  </g>
 </g>
</svg>
