<?xml version="1.0" encoding="UTF-8"?>
<!DOCTYPE svg PUBLIC "-//W3C//DTD SVG 1.1//EN" "http://www.w3.org/Graphics/SVG/1.1/DTD/svg11.dtd">
<!-- Creator: CorelDRAW 2019 (64-Bit) -->
<svg xmlns="http://www.w3.org/2000/svg" xml:space="preserve" width="8.3109mm" height="7.6509mm" version="1.1" style="shape-rendering:geometricPrecision; text-rendering:geometricPrecision; image-rendering:optimizeQuality; fill-rule:evenodd; clip-rule:evenodd"
viewBox="0 0 12.68 11.67"
 xmlns:xlink="http://www.w3.org/1999/xlink">
 <defs>
  <style type="text/css">
   <![CDATA[
    .fil0 {fill:#2B2A29}
   ]]>
  </style>
 </defs>
 <g id="Layer_x0020_1">
  <metadata id="CorelCorpID_0Corel-Layer"/>
  <path class="fil0" d="M1.06 1.81c0,-0.47 0.29,-0.76 0.8,-0.76l5.42 0c0.62,0 1,0.37 1,0.93l0 7.9c0,0.46 -0.31,0.74 -0.8,0.74l-5.71 0c-0.46,0 -0.71,-0.25 -0.71,-0.66l0 -8.15zm8.26 8.56c0.05,-0.31 0.01,-6.92 0.01,-7.56 0,-1.02 0.19,-2.21 -1.19,-2.68 -0.39,-0.14 -0.84,-0.1 -1.28,-0.1 -0.46,0 -5.15,-0.03 -5.47,0.02 -0.71,0.1 -1.27,0.61 -1.36,1.27 -0.04,0.32 -0.01,7.92 -0.01,8.84 0,0.41 0.09,0.71 0.31,0.96 0.55,0.63 1.09,0.55 2.17,0.55 0.49,0 5.11,0.03 5.47,-0.02 0.72,-0.1 1.26,-0.61 1.36,-1.28zm2.65 -4.9c0.72,-0.04 0.69,-0.27 0.69,-0.85 0,-0.83 0.03,-2.16 -0,-2.93 -0.03,-0.61 -0.74,-0.45 -1.07,-0.48 -0.17,-0.4 -0.15,-0.76 -0.43,-1.09 -0.34,-0.4 -0.62,0.35 -0.7,0.62 -0.47,1.54 -0.52,3.85 -0.51,5.49 0.01,0.9 0.06,1.92 0.2,2.8l1.62 -0c0.19,-1.16 0.17,-2.36 0.21,-3.56zm-9.87 -1.79c-0.46,0.09 -0.56,0.75 0.21,0.74 0.64,-0 4.87,0.03 5.11,-0.01 0.41,-0.07 0.57,-0.75 -0.23,-0.74 -0.6,0 -4.89,-0.03 -5.08,0.01zm-0.35 1.96c0.05,0.42 0.6,0.34 1.03,0.34l2.8 0c0.44,0 0.97,0.05 0.91,-0.43 -0.05,-0.42 -0.6,-0.33 -1.04,-0.33 -0.41,0 -3.26,-0.04 -3.44,0.03 -0.14,0.05 -0.27,0.2 -0.25,0.4zm0.29 -3.49c-0.24,0.07 -0.39,0.3 -0.23,0.56 0.14,0.24 0.44,0.19 0.79,0.19 0.31,0 1.78,0.03 1.95,-0.02 0.21,-0.07 0.37,-0.31 0.22,-0.56 -0.14,-0.23 -0.43,-0.19 -0.79,-0.19 -0.32,0 -1.75,-0.03 -1.94,0.02zm8.2 7.5c0.15,1 0.49,1.48 0.5,1.56 0.03,0.19 -0.06,0.47 0.21,0.46 0.29,-0.01 0.14,-0.32 0.2,-0.5 0.01,-0.03 0.15,-0.2 0.23,-0.44 0.11,-0.29 0.23,-0.75 0.27,-1.08l-1.42 0z"/>
 </g>
</svg>
