<?xml version="1.0" encoding="UTF-8"?>
<!DOCTYPE svg PUBLIC "-//W3C//DTD SVG 1.1//EN" "http://www.w3.org/Graphics/SVG/1.1/DTD/svg11.dtd">
<!-- Creator: CorelDRAW 2019 (64-Bit) -->
<svg xmlns="http://www.w3.org/2000/svg" xml:space="preserve" width="7.7153mm" height="9.7811mm" version="1.1" style="shape-rendering:geometricPrecision; text-rendering:geometricPrecision; image-rendering:optimizeQuality; fill-rule:evenodd; clip-rule:evenodd"
viewBox="0 0 10.92 13.84"
 xmlns:xlink="http://www.w3.org/1999/xlink">
 <defs>
  <style type="text/css">
   <![CDATA[
    .fil0 {fill:#2B2A29}
   ]]>
  </style>
 </defs>
 <g id="Layer_x0020_1">
  <metadata id="CorelCorpID_0Corel-Layer"/>
  <path class="fil0" d="M7.46 12.16c0,-0.39 0.32,-0.65 0.59,-0.65 0.24,0 0.38,-0 0.56,0.16 0.37,0.31 0.25,0.9 -0.2,1.06 -0.28,0.1 -0.55,0.04 -0.74,-0.13 -0.11,-0.09 -0.22,-0.25 -0.22,-0.43zm-4.09 -0.04c0,-0.32 0.33,-0.62 0.61,-0.62l0.22 0c0.16,0 0.41,0.17 0.5,0.38 0.11,0.24 0.07,0.49 -0.13,0.67 -0.19,0.17 -0.33,0.24 -0.65,0.19 -0.32,-0.05 -0.56,-0.33 -0.56,-0.62zm2.61 -0.62c0.3,0 0.46,0 0.68,0.23l0.09 0.14c0.25,0.5 -0.32,1.06 -0.88,0.84l-0.11 -0.05c-0.05,-0.03 -0.07,-0.04 -0.11,-0.07 -0.01,-0.01 -0.04,-0.03 -0.04,-0.04l-0.02 -0.02c-0,-0 -0.02,-0.02 -0.02,-0.02 -0.27,-0.29 -0.16,-0.76 0.16,-0.93 0.05,-0.03 0.18,-0.09 0.24,-0.09zm1.02 -0.58c-0.66,0 -0.95,-0.64 -0.55,-1.06 0,-0 0.01,-0.01 0.01,-0.01 0.1,-0.1 0.25,-0.16 0.4,-0.19 0.58,-0.11 1.03,0.57 0.66,1.02 -0.02,0.03 -0.03,0.04 -0.06,0.06 -0.01,0.01 -0.02,0.02 -0.03,0.03l-0.08 0.06c-0.09,0.05 -0.25,0.11 -0.35,0.11zm-2.14 -1.27c0.22,0 0.4,0.05 0.54,0.16 0.26,0.21 0.32,0.64 0.02,0.92 -0.22,0.2 -0.5,0.23 -0.79,0.12 -0.08,-0.03 -0.13,-0.07 -0.19,-0.13 -0.16,-0.15 -0.2,-0.22 -0.19,-0.42 0.01,-0.16 0.01,-0.33 0.17,-0.46 0.11,-0.09 0.25,-0.21 0.45,-0.21zm2.61 -1.21c0,-0.52 0.7,-0.86 1.17,-0.43 0.21,0.19 0.29,0.45 0.15,0.7 -0.05,0.1 -0.07,0.11 -0.15,0.18 -0.09,0.08 -0.07,0.08 -0.2,0.14 -0.1,0.04 -0.17,0.05 -0.28,0.06 -0.32,0.02 -0.69,-0.25 -0.69,-0.65zm-1.36 -0.62c0.12,0 0.2,0.01 0.29,0.05 0.13,0.05 0.11,0.05 0.2,0.13 0.16,0.14 0.22,0.26 0.22,0.49 0,0.17 -0.13,0.34 -0.26,0.45 -0.05,0.04 -0.1,0.06 -0.17,0.09 -0.13,0.06 -0.27,0.06 -0.42,0.04 -0.35,-0.04 -0.66,-0.45 -0.49,-0.87 0.09,-0.21 0.3,-0.38 0.63,-0.38zm-2.73 0.62c0,-0.17 0.11,-0.35 0.21,-0.44l0.09 -0.07c0.25,-0.15 0.66,-0.16 0.88,0.06 0.08,0.09 0.11,0.1 0.16,0.23 0.05,0.13 0.07,0.23 0.03,0.38 -0,0.01 -0.01,0.03 -0.01,0.04 -0,0.01 -0.01,0.04 -0.01,0.04 -0.02,0.07 -0.1,0.18 -0.16,0.23 -0,0 -0.01,0.01 -0.01,0.01l-0.06 0.04c-0.02,0.01 -0.05,0.03 -0.07,0.04 -0.39,0.19 -0.84,0.04 -1,-0.36 -0.03,-0.07 -0.05,-0.11 -0.05,-0.2zm-0.24 5.39l5.97 0c0.07,0 0.16,-0.05 0.22,-0.08 0.49,-0.22 0.64,-0.61 0.64,-1.09l0.02 -5.75 -7.7 0c0,0.65 0.02,1.25 0.02,1.9l0 3.84c0,0.31 -0.04,0.47 0.21,0.78 0.13,0.16 0.2,0.2 0.34,0.28l0.13 0.07c0,0 0.01,0 0.01,0.01 0.01,0 0.02,0.01 0.03,0.01 0.05,0.02 0.04,0.03 0.11,0.03zm-2.38 -11.75c0.01,0.08 0.06,0.21 0.08,0.28l1.04 3c0.03,0.1 0.06,0.19 0.09,0.27l0.29 0.84 1.85 0c-0.01,-0.11 -0.12,-0.35 -0.16,-0.47 -0.01,-0.04 -0.01,-0.04 -0.02,-0.07 -0.01,-0.04 -0.02,-0.03 -0.03,-0.08l-0.35 -1c-0.02,-0.04 -0.02,-0.03 -0.04,-0.08l-0.63 -1.77c-0.01,-0.04 -0.01,-0.05 -0.03,-0.09l-0.4 -1.07c-0.04,-0.09 -0.07,-0.21 -0.12,-0.3l-0.99 0.34c-0.05,0.02 -0.05,0.02 -0.1,0.04 -0.05,0.02 -0.05,0.01 -0.11,0.03l-0.39 0.14zm3.64 -1.81c-0.04,0.12 -0.01,5.89 -0.01,6.18l0.47 0.01 0 -5.87c0.18,-0.02 1.49,-0.01 1.89,-0.01 0.14,0 0.11,0.01 0.13,0.03 -0.04,0.14 -0.01,0.49 -0.01,0.65 -0.18,0 -0.37,0 -0.55,0 -0.22,-0 -0.35,0 -0.35,0.21 0,0.24 0.2,0.21 0.33,0.21 0.19,-0 0.38,-0 0.57,-0l0 1.01c-0.18,0 -0.37,0 -0.55,-0 -0.22,-0 -0.35,-0 -0.35,0.21 -0,0.2 0.13,0.21 0.35,0.2 0.12,-0 0.15,0.02 0.26,0.02 0.09,0 0.19,-0 0.29,-0l0 0.97c-0.48,0 -0.91,-0.08 -0.9,0.22 0.01,0.24 0.24,0.2 0.35,0.21 0.11,0 0.14,0.02 0.26,0.02 0.1,-0 0.19,-0 0.29,-0l0 0.97c-0.18,0 -0.37,0 -0.55,-0 -0.22,-0 -0.34,0.01 -0.35,0.21 -0.01,0.23 0.19,0.22 0.33,0.22 0.19,-0 0.38,-0 0.57,-0l0 0.54 0.49 0 -0.01 -5.93c-0.01,-0.06 -0.01,-0.11 -0.02,-0.19 -0,-0.06 -0.03,-0.11 -0.04,-0.17l-2.61 -0c-0.17,-0 -0.21,0 -0.29,0.09zm5.85 1.51c0.09,0.01 0.16,0.04 0.24,0.06l0 0.75 -0.61 -0.15c0.01,-0.12 0.28,-0.51 0.37,-0.65zm-2.16 4.68c0.63,0 0.48,0.1 0.65,-0.51l0.9 -3.06c0.22,0 0.55,0.1 0.77,0.15l-0.27 0.95c-0.01,0.03 -0.02,0.08 -0.03,0.12l-0.42 1.41c-0.06,0.17 -0.17,0.65 -0.24,0.83 -0.06,0.15 0.02,0.1 0.48,0.1l0.5 -1.76c0.01,-0.04 0.02,-0.06 0.03,-0.1l0.28 -1c0.01,-0.05 0.02,-0.05 0.04,-0.1 0.01,-0.04 0.02,-0.09 0.03,-0.12l0.12 -0.45 0 -2.39c0,-0.1 -0.11,-0.21 -0.22,-0.21 -0.16,0 -0.23,0.15 -0.29,0.25l-0.53 0.84c-0.01,0.02 -0.01,0.02 -0.02,0.04l-0.51 0.82c-0.04,0.06 -0.07,0.1 -0.1,0.17l-0.84 2.82c-0.01,0.06 -0.01,0.07 -0.02,0.11 -0.01,0.04 -0.02,0.05 -0.03,0.1l-0.19 0.64c-0.01,0.04 -0.01,0.06 -0.03,0.11 -0.02,0.09 -0.05,0.13 -0.05,0.23zm-8.07 -4.27c0,0.22 0.02,0.17 0.08,0.38 0.02,0.06 0.03,0.09 0.05,0.14 0.01,0.05 0.02,0.11 0.03,0.15l0.08 0.3c0.02,0.07 0.02,0.08 0.03,0.16 0.02,0.11 0.04,0.12 0.06,0.3l0.09 0.47c0.08,0.35 0.14,0.9 0.24,1.25 0.02,0.06 0.04,0.1 0.04,0.15l0.21 0.72c0.06,0.19 0.2,0.56 0.49,0.41 0.23,-0.12 -0.06,-0.58 -0.15,-1l-0.55 -2.61c-0.06,-0.27 -0.12,-0.58 -0.23,-0.82 -0.02,-0.05 -0.03,-0.07 -0.06,-0.11 -0.06,-0.08 -0.26,-0.11 -0.37,-0 -0.05,0.05 -0.05,0.05 -0.05,0.1l0 0zm0.84 -0.49c0.09,-0.01 0.42,-0.12 0.53,-0.16l0.53 -0.19c0.2,-0.07 0.12,-0.16 0.01,-0.48 -0.04,-0.13 -0.09,-0.25 -0.13,-0.37 -0.13,-0.42 -0.29,-0.5 -0.51,-0.52l-0.29 0c-0.15,0 -0.33,0.18 -0.4,0.27 -0.21,0.26 -0.1,0.46 -0.02,0.73 0.01,0.05 0.02,0.08 0.03,0.12 0.02,0.05 0.03,0.07 0.05,0.13 0.04,0.12 0.12,0.36 0.2,0.47zm6.02 -1.1c-0.02,-0.01 0.01,-0.03 -0.13,-0.03 -0.4,0 -1.72,-0.01 -1.89,0.01l-0 5.87 -0.47 -0.01c0,-0.29 -0.03,-6.05 0.01,-6.18l-0.04 0 0 6.19 0.51 0 0 -5.86 0.04 0 1.97 0z"/>
 </g>
</svg>
