<?xml version="1.0" encoding="UTF-8"?>
<!DOCTYPE svg PUBLIC "-//W3C//DTD SVG 1.1//EN" "http://www.w3.org/Graphics/SVG/1.1/DTD/svg11.dtd">
<!-- Creator: CorelDRAW 2019 (64-Bit) -->
<svg xmlns="http://www.w3.org/2000/svg" xml:space="preserve" width="8.8449mm" height="6.3631mm" version="1.1" style="shape-rendering:geometricPrecision; text-rendering:geometricPrecision; image-rendering:optimizeQuality; fill-rule:evenodd; clip-rule:evenodd"
viewBox="0 0 14.36 10.33"
 xmlns:xlink="http://www.w3.org/1999/xlink">
 <defs>
  <style type="text/css">
   <![CDATA[
    .fil0 {fill:black}
   ]]>
  </style>
 </defs>
 <g id="Layer_x0020_1">
  <metadata id="CorelCorpID_0Corel-Layer"/>
  <g id="_2407420044448">
   <path class="fil0" d="M3.3 2.83c-0.28,0.05 -0.22,0.31 -0.22,0.57 0,0.25 0,0.5 0,0.75 0,0.27 -0.06,0.5 0.24,0.54 0.18,0.02 8.05,0 9.17,0 1.93,0 1.86,0.17 1.86,-0.59 0,-0.25 -0,-0.5 0,-0.75 0,-0.65 -0.03,-0.54 -1.08,-0.54 -0.53,0 -9.79,-0.02 -9.98,0.01z"/>
   <path class="fil0" d="M3.31 5.64c-0.29,0.05 -0.23,0.28 -0.23,0.56 0,0.25 0,0.5 0,0.75 0,0.67 0.01,0.56 1.06,0.56 0.52,0 9.81,0.02 9.99,-0.01 0.26,-0.04 0.22,-0.31 0.22,-0.55 0,-0.25 0,-0.5 0,-0.75 0,-0.67 0.01,-0.57 -1.06,-0.57 -2.78,0 -5.55,0 -8.33,0 -0.36,0 -1.38,-0.04 -1.66,0.01z"/>
   <path class="fil0" d="M3.09 0.29l-0 1.29c0,0.23 0.13,0.29 0.36,0.29l10.59 0c0.22,0 0.33,-0.08 0.33,-0.29l0 -1.29c-0,-0.21 -0.1,-0.29 -0.33,-0.29l-10.61 0c-0.23,0 -0.34,0.07 -0.34,0.29z"/>
   <path class="fil0" d="M3.09 8.74l-0 1.29c0,0.22 0.11,0.29 0.34,0.29l10.62 0c0.22,0 0.32,-0.08 0.32,-0.29l0 -1.29c-0,-0.21 -0.1,-0.29 -0.33,-0.29l-10.62 0c-0.21,0 -0.32,0.09 -0.32,0.29z"/>
   <path class="fil0" d="M0.23 5.64c-0.3,0.06 -0.22,0.35 -0.22,0.73 0,1.23 -0.15,1.14 0.8,1.14 1.34,0 1.25,0.14 1.25,-0.73 0,-1.22 0.16,-1.15 -0.8,-1.15 -0.25,0 -0.82,-0.03 -1.02,0.01z"/>
   <path class="fil0" d="M0.2 8.46c-0.27,0.07 -0.19,0.38 -0.19,0.75 0,1.21 -0.14,1.11 0.82,1.11 1.32,0 1.23,0.15 1.23,-0.74 0,-1.22 0.15,-1.13 -0.83,-1.13 -0.23,0 -0.86,-0.03 -1.03,0.02z"/>
   <path class="fil0" d="M0.01 3.12l0 1.27c0,0.41 0.37,0.31 1.01,0.31 0.66,0 1.04,0.1 1.04,-0.31l0 -1.27c0,-0.21 -0.1,-0.3 -0.33,-0.3l-1.39 0c-0.22,0 -0.32,0.09 -0.32,0.3z"/>
   <path class="fil0" d="M0.01 0.29l0 1.29c0,0.21 0.1,0.29 0.33,0.29l1.39 0c0.23,0 0.33,-0.08 0.33,-0.29l0 -1.29c-0,-0.21 -0.11,-0.29 -0.33,-0.29l-1.39 0c-0.23,0 -0.33,0.08 -0.33,0.29z"/>
  </g>
 </g>
</svg>
