<?xml version="1.0" encoding="UTF-8"?>
<!DOCTYPE svg PUBLIC "-//W3C//DTD SVG 1.1//EN" "http://www.w3.org/Graphics/SVG/1.1/DTD/svg11.dtd">
<!-- Creator: CorelDRAW 2019 (64-Bit) -->
<svg xmlns="http://www.w3.org/2000/svg" xml:space="preserve" width="7.4569mm" height="7.7461mm" version="1.1" style="shape-rendering:geometricPrecision; text-rendering:geometricPrecision; image-rendering:optimizeQuality; fill-rule:evenodd; clip-rule:evenodd"
viewBox="0 0 10.22 10.61"
 xmlns:xlink="http://www.w3.org/1999/xlink">
 <defs>
  <style type="text/css">
   <![CDATA[
    .fil0 {fill:#2B2A29}
   ]]>
  </style>
 </defs>
 <g id="Layer_x0020_1">
  <metadata id="CorelCorpID_0Corel-Layer"/>
  <g id="_2407418629408">
   <path class="fil0" d="M2.2 1.29c0,-0.28 0.31,-0.81 0.67,-0.81 0.4,0 0.84,0.35 1.08,0.58 0.02,0.02 0.03,0.03 0.05,0.05 0.1,0.09 0.19,0.2 0.29,0.3 0.04,0.04 0.05,0.07 0.09,0.11l0.26 0.33c-0.12,0 -0.22,0.02 -0.29,0.02 -0.19,0.01 -0.32,0.02 -0.53,0.02 -0.38,0 -0.7,-0.02 -1.02,-0.11 -0.2,-0.06 -0.58,-0.23 -0.58,-0.49zm0.54 -1.29l0.22 0c0.53,0.05 1.14,0.47 1.47,0.82l0.72 0.84c0.01,-0.04 0.09,-0.13 0.11,-0.16l0.35 -0.44 0.33 -0.34c0.03,-0.03 0.04,-0.04 0.07,-0.06 0.05,-0.05 0.09,-0.08 0.14,-0.12 0.1,-0.08 0.2,-0.15 0.31,-0.22 0.25,-0.15 0.56,-0.29 0.88,-0.32l0.18 0c0.05,0 0.09,0.01 0.14,0.02 0.3,0.06 0.61,0.29 0.78,0.54 0.04,0.06 0.07,0.1 0.1,0.16 0.24,0.44 0.14,0.88 -0.19,1.16 -0.15,0.12 -0.55,0.32 -0.71,0.32l1.85 0.01c0.25,0 0.36,-0.02 0.52,0.09 0.1,0.07 0.21,0.23 0.22,0.41l0 2.02 -4.71 0c0,-0.83 -0.01,-1.64 -0.01,-2.48 -0.05,0 -0.1,0.01 -0.17,0.01 -0.17,-0 -0.39,0.03 -0.51,0.01l-0.11 0.01 -0 2.44 -0.03 0 -4.67 0 0 -2.03c0.01,-0.17 0.12,-0.33 0.22,-0.4 0.15,-0.11 0.29,-0.1 0.53,-0.1 0.61,0 1.22,0 1.82,0l-0.38 -0.14c-0.12,-0.05 -0.22,-0.12 -0.32,-0.2 -0.36,-0.31 -0.28,-0.8 -0.07,-1.19 0.13,-0.24 0.32,-0.44 0.55,-0.56 0.09,-0.05 0.22,-0.09 0.33,-0.11 0.02,-0 0.03,-0.01 0.05,-0.01zm3.63 1.86c-0.25,0 -0.48,-0.02 -0.7,-0.02l0.17 -0.21c0.1,-0.12 0.25,-0.32 0.36,-0.41 0.04,-0.03 0.06,-0.07 0.1,-0.1 0.04,-0.03 0.06,-0.06 0.1,-0.09 0.21,-0.19 0.66,-0.56 0.97,-0.56 0.29,0 0.52,0.21 0.64,0.45 0.26,0.52 -0.13,0.77 -0.57,0.86 -0.32,0.06 -0.7,0.08 -1.07,0.08z"/>
   <path class="fil0" d="M9.36 10.61c0.19,0 0.42,-0.23 0.42,-0.46l0 -5.03 -4.31 0 0 5.49 3.89 0z"/>
   <path class="fil0" d="M0.44 10.13c-0.01,0.16 0.09,0.34 0.21,0.41 0.08,0.04 0.14,0.06 0.21,0.07l3.88 0 0 -5.47 -4.31 -0 0 5z"/>
   <path class="fil0" d="M0.44 10.13l-0 -5 4.31 0c-0.02,-0.02 0.01,-0.01 -0.02,-0.01l-4.29 -0 -0 4.97c0.01,0.04 0,0.02 0.01,0.03z"/>
   <path class="fil0" d="M-0 4.73l0.06 0.01c0.02,0 0.05,-0 0.07,-0l4.58 0 0 -2.45c0.05,0 0.08,0.01 0.1,-0.02l-0.11 0.01 -0 2.44 -0.03 0 -4.67 0 0 0z"/>
  </g>
 </g>
</svg>
