<?xml version="1.0" encoding="UTF-8"?>
<!DOCTYPE svg PUBLIC "-//W3C//DTD SVG 1.1//EN" "http://www.w3.org/Graphics/SVG/1.1/DTD/svg11.dtd">
<!-- Creator: CorelDRAW 2019 (64-Bit) -->
<svg xmlns="http://www.w3.org/2000/svg" xml:space="preserve" width="8.1302mm" height="9.6888mm" version="1.1" style="shape-rendering:geometricPrecision; text-rendering:geometricPrecision; image-rendering:optimizeQuality; fill-rule:evenodd; clip-rule:evenodd"
viewBox="0 0 12.1 14.42"
 xmlns:xlink="http://www.w3.org/1999/xlink">
 <defs>
  <style type="text/css">
   <![CDATA[
    .fil0 {fill:#2B2A29}
   ]]>
  </style>
 </defs>
 <g id="Layer_x0020_1">
  <metadata id="CorelCorpID_0Corel-Layer"/>
  <g id="_2443810682256">
   <path class="fil0" d="M5.71 11.49c0.51,-0.11 0.94,0.2 1.03,0.56 0.12,0.45 -0.23,0.82 -0.63,0.91 -1.09,0.23 -1.54,-1.21 -0.41,-1.46zm2.46 -1.61c0.65,-0.11 1.16,0.31 1.24,0.77 0.11,0.56 -0.35,1.01 -0.86,1.1 -0.66,0.11 -1.18,-0.31 -1.27,-0.78 -0.11,-0.58 0.35,-1 0.88,-1.08zm1.26 -2.58c0.75,-0.1 1.33,0.37 1.43,0.92 0.12,0.66 -0.43,1.18 -1.05,1.26 -0.74,0.1 -1.34,-0.38 -1.43,-0.92 -0.11,-0.67 0.42,-1.18 1.05,-1.26zm-0.75 -2.39c0.59,-0.13 1.08,0.22 1.2,0.64 0.15,0.52 -0.26,0.94 -0.7,1.05 -1.28,0.31 -1.8,-1.39 -0.5,-1.68zm-0.25 -1.05c-0.07,0.17 -0.88,1.31 -1,1.48 -0.36,0.5 -1.2,1.6 -1.63,2.1 -0.2,0.23 -0.35,0.45 -0.54,0.69 -1.08,1.33 -0.79,0.78 -0.64,1.5 0.15,0.71 -0.08,1.4 -0.49,1.83 -0.36,0.39 -0.96,0.68 -1.14,1.34 -0.19,0.7 0.44,1.24 0.95,1.44 0.75,0.28 1.5,0.17 2.28,0.01 2.61,-0.54 4.87,-2.35 5.6,-4.47 0.46,-1.34 0.35,-2.76 -0.39,-3.87 -0.12,-0.18 -0.4,-0.55 -0.56,-0.69l-0.5 -0.44c-0.34,-0.26 -1.42,-0.87 -1.95,-0.92z"/>
   <path class="fil0" d="M0.13 12.82c0.11,-0.46 2.33,-3.58 2.63,-3.99 0.38,-0.52 2.55,-3.29 2.95,-3.7l0.15 0.09 -0.75 0.92c-1.37,1.7 -2.31,2.94 -3.62,4.73 -0.43,0.59 -0.98,1.46 -1.36,1.96zm5.46 -7.75c-0.03,0.04 -0.07,0.08 -0.1,0.12l-1.38 1.7c-0.98,1.19 -2.14,2.78 -2.97,4.03 -0.23,0.35 -0.46,0.7 -0.67,1.06 -0.12,0.19 -0.21,0.35 -0.33,0.55 -0.09,0.16 -0.28,0.46 0.05,0.52 0.22,0.04 0.43,-0.26 0.53,-0.35l1.54 -1.55c0.48,-0.54 0.93,-1.01 1.45,-1.61 0.2,-0.23 2.92,-3.51 3.11,-3.89 -0.33,-0.19 -0.65,-0.44 -1.11,-0.68l-0.11 0.11z"/>
   <path class="fil0" d="M2.67 5.82c-0.1,-0.44 0.24,-0.77 0.63,-0.83 0.48,-0.08 0.87,0.22 0.95,0.56 0.09,0.43 -0.25,0.77 -0.64,0.83 -0.49,0.08 -0.86,-0.22 -0.94,-0.55zm0.31 2l1.69 -2.13c0.51,-0.61 1.01,-1.23 1.54,-1.81 0.09,-0.09 0.16,-0.17 0.23,-0.27 -1.98,0.07 -3.36,0.65 -4.58,1.45 -1.26,0.83 -1.56,2.47 0.44,2.64 0.31,0.03 0.4,0.06 0.67,0.12z"/>
   <path class="fil0" d="M7.7 2.78c0.08,-0.81 1.39,-2.45 2.53,-2.58 -0.08,0.07 -0.29,0.15 -0.41,0.23 -0.48,0.32 -0.31,0.24 -0.54,0.41 -0.57,0.44 -1.14,1.36 -1.15,2.17 -0.03,-0.01 -0.42,-0.21 -0.44,-0.23zm-0.12 0.11c0.38,0.09 0.64,0.35 0.85,0.5 0.35,-0.12 0.73,-0.41 0.9,-0.63 0.54,-0.69 0.16,-1.87 1.25,-2.5 0.13,-0.07 0.49,-0.2 0.54,-0.24 -0.85,-0.08 -1.6,0.2 -2.17,0.69 -0.08,0.07 -0.15,0.13 -0.22,0.2 -0.33,0.27 -1.16,1.36 -1.15,1.98z"/>
   <path class="fil0" d="M6.01 4.77c0.21,-0.3 1.33,-1.44 1.4,-1.54 0.1,0.02 0.14,0.02 0.19,0.08 -0.06,0.07 -0.14,0.15 -0.19,0.2l-1.25 1.36c-0.09,-0.03 -0.1,-0.04 -0.14,-0.09zm-0.2 0.05l1.11 0.67c0.19,-0.18 0.99,-1.4 1.19,-1.7 0.15,-0.23 0.16,-0.28 -0.25,-0.53 -0.09,-0.05 -0.22,-0.13 -0.32,-0.16 -0.14,-0.04 -0.12,-0.03 -0.2,0.03l-1.53 1.68z"/>
   <path class="fil0" d="M0.13 12.82c0.38,-0.5 0.93,-1.37 1.36,-1.96 1.3,-1.78 2.25,-3.03 3.62,-4.73l0.75 -0.92 -0.15 -0.09c-0.4,0.41 -2.57,3.18 -2.95,3.7 -0.3,0.4 -2.51,3.53 -2.63,3.99z"/>
   <path class="fil0" d="M7.7 2.78c0.03,0.02 0.41,0.22 0.44,0.23 0.01,-0.81 0.58,-1.73 1.15,-2.17 0.22,-0.17 0.06,-0.1 0.54,-0.41 0.12,-0.08 0.33,-0.16 0.41,-0.23 -1.15,0.14 -2.45,1.78 -2.53,2.58z"/>
   <path class="fil0" d="M6.01 4.77c0.04,0.05 0.05,0.06 0.14,0.09l1.25 -1.36c0.04,-0.04 0.13,-0.13 0.19,-0.2 -0.05,-0.06 -0.09,-0.06 -0.19,-0.08 -0.07,0.11 -1.19,1.24 -1.4,1.54z"/>
  </g>
 </g>
</svg>
