<?xml version="1.0" encoding="UTF-8"?>
<!DOCTYPE svg PUBLIC "-//W3C//DTD SVG 1.1//EN" "http://www.w3.org/Graphics/SVG/1.1/DTD/svg11.dtd">
<!-- Creator: CorelDRAW 2019 (64-Bit) -->
<svg xmlns="http://www.w3.org/2000/svg" xml:space="preserve" width="7.0946mm" height="8.6253mm" version="1.1" style="shape-rendering:geometricPrecision; text-rendering:geometricPrecision; image-rendering:optimizeQuality; fill-rule:evenodd; clip-rule:evenodd"
viewBox="0 0 9.26 11.26"
 xmlns:xlink="http://www.w3.org/1999/xlink">
 <defs>
  <style type="text/css">
   <![CDATA[
    .fil0 {fill:#010101}
    .fil1 {fill:whitesmoke}
   ]]>
  </style>
 </defs>
 <g id="Layer_x0020_1">
  <metadata id="CorelCorpID_0Corel-Layer"/>
  <g id="_2407517789104">
   <path class="fil0" d="M0.91 11.11c-0.04,-0.17 -0.11,-0.27 -0.12,-0.48 -0.02,-0.39 -0.01,-1.3 -0,-1.71 0,-0.43 -0.04,-1.93 0.05,-2.24 0.16,-0.54 0.66,-0.99 1.35,-1.05 0.33,-0.03 4.71,-0.02 4.95,0.01 0.65,0.08 1.16,0.53 1.3,1.1 0.07,0.3 0.03,0.78 0.04,1.11 0,0.38 -0,0.76 0,1.14 0,0.52 0.08,1.73 -0.13,2.12 0.19,-0.03 0.44,-0.26 0.54,-0.36 0.52,-0.51 0.37,-1.5 0.36,-2.31 -0,-0.59 0,-1.17 0,-1.76 -0.01,-1.09 0.1,-1.98 -0.61,-2.96 -0.27,-0.37 -0.55,-0.66 -0.93,-0.91 -0.96,-0.65 -1.63,-0.7 -3.05,-0.7 -1.46,0 -2.09,0.04 -3.08,0.69 -0.34,0.22 -0.69,0.57 -0.93,0.91 -0.26,0.37 -0.44,0.75 -0.55,1.25 -0.12,0.56 -0.07,2.73 -0.07,3.45 -0,0.43 -0.05,1.37 0.03,1.73 0.1,0.43 0.48,0.84 0.86,0.97z"/>
   <path class="fil0" d="M2.32 7.74l4.61 -0 0 0.7 -4.61 0 -0 -0.7zm5.36 2.95c0.04,-0.19 0.01,-2.24 0.01,-2.62 0,-0.7 0.15,-1.35 -0.37,-1.64 -0.19,-0.11 -0.35,-0.1 -0.61,-0.1 -0.96,0.01 -1.92,-0.01 -2.88,0 -0.48,0 -0.96,-0 -1.44,-0 -0.43,-0 -0.75,0.22 -0.83,0.56 -0.04,0.19 -0.02,2.25 -0.02,2.63 0,0.28 -0.03,1.07 0.05,1.28 0.17,0.43 0.56,0.46 0.94,0.46 0.96,0 1.92,-0.01 2.88,0 0.48,0 0.96,0 1.44,-0 0.45,-0 0.74,-0.21 0.82,-0.57z"/>
   <polygon class="fil1" points="2.32,8.44 6.93,8.44 6.93,7.74 2.32,7.74 "/>
   <path class="fil0" d="M4.83 0l-0.38 0c-0.22,0.09 -0.55,0.06 -0.95,0.45 -0.23,0.23 -0.41,0.53 -0.41,0.96l0.77 0c0.06,-0.93 1.48,-0.93 1.53,-0l0.77 -0c-0,-0.41 -0.17,-0.71 -0.39,-0.93 -0.37,-0.39 -0.69,-0.36 -0.94,-0.47z"/>
  </g>
 </g>
</svg>
