<?xml version="1.0" encoding="UTF-8"?>
<!DOCTYPE svg PUBLIC "-//W3C//DTD SVG 1.1//EN" "http://www.w3.org/Graphics/SVG/1.1/DTD/svg11.dtd">
<!-- Creator: CorelDRAW 2019 (64-Bit) -->
<svg xmlns="http://www.w3.org/2000/svg" xml:space="preserve" width="7.809mm" height="7.3134mm" version="1.1" style="shape-rendering:geometricPrecision; text-rendering:geometricPrecision; image-rendering:optimizeQuality; fill-rule:evenodd; clip-rule:evenodd"
viewBox="0 0 11.23 10.52"
 xmlns:xlink="http://www.w3.org/1999/xlink">
 <defs>
  <style type="text/css">
   <![CDATA[
    .fil0 {fill:black}
   ]]>
  </style>
 </defs>
 <g id="Layer_x0020_1">
  <metadata id="CorelCorpID_0Corel-Layer"/>
  <path class="fil0" d="M3.04 5.01c-0.43,0 -0.87,-0 -1.3,0 -0.67,0 -0.5,0.31 -0.23,0.56l3.28 3.01c0.17,0.15 0.42,0.46 0.82,0.46 0.4,0 0.64,-0.3 0.81,-0.45 0.22,-0.21 0.43,-0.4 0.66,-0.6l2.63 -2.4c0.25,-0.23 0.48,-0.56 -0.2,-0.56 -0.44,-0 -0.88,0 -1.32,-0 -0.03,-0.18 -0.01,-4.13 -0.01,-4.6 0,-0.41 -0.13,-0.41 -0.56,-0.41l-4.03 0c-0.68,-0 -0.56,0.07 -0.56,1.33 0,0.28 0.02,3.5 -0.01,3.69zm1.23 3.64c-1.16,-0.04 -2.53,-0 -3.73,-0 -0.27,-0 -0.43,0.01 -0.51,0.21 -0.03,0.09 -0.03,1.19 -0.02,1.35 0.01,0.22 0.17,0.31 0.41,0.31l5.19 -0c1.72,0 3.5,0.01 5.21,0 0.24,-0 0.38,-0.1 0.4,-0.31 0.01,-0.16 0.01,-1.26 -0.02,-1.35 -0.08,-0.21 -0.25,-0.21 -0.53,-0.21 -1.2,0 -2.57,-0.04 -3.72,0 -0.04,0.07 -0.27,0.26 -0.35,0.33l-0.19 0.18c-0.18,0.14 -0.46,0.28 -0.8,0.28 -0.57,0 -0.79,-0.29 -1.01,-0.48 -0.08,-0.07 -0.3,-0.25 -0.33,-0.31z"/>
 </g>
</svg>
